<svg width="19" height="20" viewBox="0 0 19 20" fill="none" xmlns="http://www.w3.org/2000/svg">
<path d="M11.875 2.51944V17.4757C11.8768 17.5876 11.851 17.6981 11.8002 17.7964C11.7493 17.8947 11.6751 17.9775 11.5848 18.0366C11.4822 18.1009 11.3636 18.1311 11.2444 18.1233C11.1252 18.1155 11.0111 18.07 10.9168 17.9929L6.05031 14.0085C6.01503 13.9792 5.98654 13.9418 5.967 13.8991C5.94746 13.8565 5.93737 13.8097 5.9375 13.7624V6.23741C5.93763 6.18988 5.94807 6.14301 5.968 6.10037C5.98793 6.05772 6.01685 6.02042 6.05254 5.99131L10.9191 2.00694C11.0257 1.91995 11.1573 1.87378 11.2922 1.87606C11.4271 1.87833 11.5573 1.9289 11.6612 2.01944C11.7295 2.08118 11.7841 2.15798 11.821 2.24439C11.8579 2.33079 11.8764 2.4247 11.875 2.51944ZM4.45312 6.24991H2.375C2.06006 6.24991 1.75801 6.3816 1.53531 6.61602C1.31261 6.85044 1.1875 7.16839 1.1875 7.49991V12.4999C1.1875 12.8314 1.31261 13.1494 1.53531 13.3838C1.75801 13.6182 2.06006 13.7499 2.375 13.7499H4.45312C4.53186 13.7499 4.60737 13.717 4.66305 13.6584C4.71872 13.5998 4.75 13.5203 4.75 13.4374V6.56241C4.75 6.47953 4.71872 6.40004 4.66305 6.34144C4.60737 6.28283 4.53186 6.24991 4.45312 6.24991ZM13.8618 7.87803C13.8032 7.93227 13.7553 7.99814 13.7209 8.07188C13.6865 8.14562 13.6662 8.22578 13.6612 8.30778C13.6563 8.38977 13.6667 8.47199 13.692 8.54973C13.7172 8.62748 13.7568 8.69922 13.8084 8.76084C14.0948 9.10321 14.2528 9.54374 14.2528 9.99991C14.2528 10.4561 14.0948 10.8966 13.8084 11.239C13.7554 11.3003 13.7145 11.3721 13.6881 11.4502C13.6617 11.5283 13.6503 11.6112 13.6547 11.6939C13.659 11.7767 13.6789 11.8578 13.7133 11.9324C13.7477 12.007 13.7958 12.0736 13.8549 12.1284C13.9139 12.1833 13.9828 12.2252 14.0574 12.2517C14.132 12.2783 14.2109 12.2889 14.2895 12.2831C14.368 12.2772 14.4447 12.255 14.515 12.2176C14.5853 12.1803 14.6479 12.1286 14.699 12.0655C15.1766 11.4948 15.4401 10.7604 15.4401 9.99991C15.4401 9.23939 15.1766 8.50497 14.699 7.93428C14.6475 7.87245 14.5849 7.82193 14.5148 7.78563C14.4446 7.74932 14.3684 7.72795 14.2904 7.72272C14.2124 7.71749 14.1342 7.72852 14.0603 7.75517C13.9864 7.78183 13.9182 7.82358 13.8596 7.87803H13.8618ZM16.8966 5.8335C16.8456 5.76922 16.7827 5.71642 16.7118 5.67822C16.641 5.64003 16.5635 5.61723 16.4841 5.61118C16.4047 5.60514 16.3249 5.61596 16.2496 5.64302C16.1742 5.67008 16.1048 5.71281 16.0455 5.76868C15.9861 5.82455 15.938 5.89241 15.9041 5.96823C15.8702 6.04405 15.8511 6.12628 15.848 6.21002C15.8448 6.29377 15.8577 6.37732 15.8859 6.45571C15.9141 6.53409 15.957 6.60572 16.012 6.66631C16.791 7.58305 17.2217 8.7699 17.2217 9.99991C17.2217 11.2299 16.791 12.4168 16.012 13.3335C15.957 13.3941 15.9141 13.4657 15.8859 13.5441C15.8577 13.6225 15.8448 13.706 15.848 13.7898C15.8511 13.8735 15.8702 13.9558 15.9041 14.0316C15.938 14.1074 15.9861 14.1753 16.0455 14.2311C16.1048 14.287 16.1742 14.3297 16.2496 14.3568C16.3249 14.3839 16.4047 14.3947 16.4841 14.3886C16.5635 14.3826 16.641 14.3598 16.7118 14.3216C16.7827 14.2834 16.8456 14.2306 16.8966 14.1663C17.8702 13.0205 18.4084 11.5371 18.4084 9.99991C18.4084 8.46267 17.8702 6.97935 16.8966 5.8335Z" fill="#3D3E40"/>
</svg>
