<svg width="19" height="20" viewBox="0 0 19 20" fill="none" xmlns="http://www.w3.org/2000/svg">
<path d="M15.4375 2.5H3.5625C3.24756 2.5 2.94551 2.6317 2.72281 2.86612C2.50011 3.10054 2.375 3.41848 2.375 3.75V16.25C2.375 16.5815 2.50011 16.8995 2.72281 17.1339C2.94551 17.3683 3.24756 17.5 3.5625 17.5H11.6293C11.7853 17.5003 11.9398 17.468 12.0838 17.4051C12.2279 17.3423 12.3587 17.25 12.4688 17.1336L16.2769 13.125C16.3875 13.0092 16.4751 12.8715 16.5349 12.7198C16.5946 12.5682 16.6253 12.4056 16.625 12.2414V3.75C16.625 3.41848 16.4999 3.10054 16.2772 2.86612C16.0545 2.6317 15.7524 2.5 15.4375 2.5ZM7.125 6.875H11.875C12.0325 6.875 12.1835 6.94085 12.2948 7.05806C12.4062 7.17527 12.4688 7.33424 12.4688 7.5C12.4688 7.66576 12.4062 7.82473 12.2948 7.94194C12.1835 8.05915 12.0325 8.125 11.875 8.125H7.125C6.96753 8.125 6.81651 8.05915 6.70516 7.94194C6.59381 7.82473 6.53125 7.66576 6.53125 7.5C6.53125 7.33424 6.59381 7.17527 6.70516 7.05806C6.81651 6.94085 6.96753 6.875 7.125 6.875ZM9.5 13.125H7.125C6.96753 13.125 6.81651 13.0592 6.70516 12.9419C6.59381 12.8247 6.53125 12.6658 6.53125 12.5C6.53125 12.3342 6.59381 12.1753 6.70516 12.0581C6.81651 11.9408 6.96753 11.875 7.125 11.875H9.5C9.65747 11.875 9.8085 11.9408 9.91985 12.0581C10.0312 12.1753 10.0938 12.3342 10.0938 12.5C10.0938 12.6658 10.0312 12.8247 9.91985 12.9419C9.8085 13.0592 9.65747 13.125 9.5 13.125ZM7.125 10.625C6.96753 10.625 6.81651 10.5592 6.70516 10.4419C6.59381 10.3247 6.53125 10.1658 6.53125 10C6.53125 9.83424 6.59381 9.67527 6.70516 9.55806C6.81651 9.44085 6.96753 9.375 7.125 9.375H11.875C12.0325 9.375 12.1835 9.44085 12.2948 9.55806C12.4062 9.67527 12.4688 9.83424 12.4688 10C12.4688 10.1658 12.4062 10.3247 12.2948 10.4419C12.1835 10.5592 12.0325 10.625 11.875 10.625H7.125ZM11.875 15.9914V12.5H15.1926L11.875 15.9914Z" fill="#3D3E40"/>
</svg>
