<svg width="19" height="20" viewBox="0 0 19 20" fill="none" xmlns="http://www.w3.org/2000/svg">
<path d="M17.2188 10.0002V16.2502C17.2188 17.079 16.906 17.8739 16.3492 18.4599C15.7925 19.046 15.0374 19.3752 14.25 19.3752H10.0938C9.93628 19.3752 9.78525 19.3094 9.6739 19.1922C9.56256 19.075 9.5 18.916 9.5 18.7502C9.5 18.5845 9.56256 18.4255 9.6739 18.3083C9.78525 18.1911 9.93628 18.1252 10.0938 18.1252H14.25C14.7224 18.1252 15.1755 17.9277 15.5095 17.5761C15.8436 17.2244 16.0312 16.7475 16.0312 16.2502H14.25C13.7776 16.2502 13.3245 16.0527 12.9905 15.7011C12.6564 15.3494 12.4688 14.8725 12.4688 14.3752V11.2502C12.4688 10.7529 12.6564 10.276 12.9905 9.9244C13.3245 9.57277 13.7776 9.37523 14.25 9.37523H16.0053C15.8929 8.07596 15.4317 6.83717 14.6754 5.80355C13.9192 4.76992 12.8991 3.98414 11.7344 3.53799C10.5698 3.09183 9.30852 3.00373 8.09804 3.28396C6.88756 3.56418 5.77782 4.20118 4.89844 5.12054C3.80494 6.25641 3.13049 7.76436 2.99547 9.37523H4.75C5.22242 9.37523 5.67549 9.57277 6.00953 9.9244C6.34358 10.276 6.53125 10.7529 6.53125 11.2502V14.3752C6.53125 14.8725 6.34358 15.3494 6.00953 15.7011C5.67549 16.0527 5.22242 16.2502 4.75 16.2502H3.5625C3.09008 16.2502 2.63702 16.0527 2.30297 15.7011C1.96892 15.3494 1.78125 14.8725 1.78125 14.3752V10.0002C1.78291 8.39078 2.23816 6.81802 3.08936 5.48103C3.94056 4.14405 5.14945 3.10294 6.56301 2.48949C7.97657 1.87604 9.53125 1.71782 11.0303 2.03486C12.5293 2.35191 13.9053 3.12996 14.984 4.27054C15.6963 5.02391 16.2603 5.9178 16.6437 6.901C17.0272 7.88421 17.2226 8.9374 17.2188 10.0002Z" fill="#3D3E40"/>
</svg>
