<svg width="22" height="22" viewBox="0 0 22 22" fill="none" xmlns="http://www.w3.org/2000/svg">
<path d="M13.75 11.1624L15.0442 13.75H12.4558L13.0023 12.6586L13.75 11.1624ZM19.25 4.125V17.875C19.25 18.2397 19.1051 18.5894 18.8473 18.8473C18.5894 19.1051 18.2397 19.25 17.875 19.25H4.125C3.76033 19.25 3.41059 19.1051 3.15273 18.8473C2.89487 18.5894 2.75 18.2397 2.75 17.875V4.125C2.75 3.76033 2.89487 3.41059 3.15273 3.15273C3.41059 2.89487 3.76033 2.75 4.125 2.75H17.875C18.2397 2.75 18.5894 2.89487 18.8473 3.15273C19.1051 3.41059 19.25 3.76033 19.25 4.125ZM17.8028 16.1923L14.3653 9.31734C14.3083 9.20294 14.2205 9.1067 14.1118 9.03942C14.0031 8.97215 13.8778 8.93651 13.75 8.93651C13.6222 8.93651 13.4969 8.97215 13.3882 9.03942C13.2795 9.1067 13.1917 9.20294 13.1347 9.31734L12.002 11.5844C11.2734 11.4417 10.5825 11.149 9.97305 10.725C10.9229 9.6496 11.5107 8.30276 11.6531 6.875H13.0625C13.2448 6.875 13.4197 6.80257 13.5486 6.67364C13.6776 6.5447 13.75 6.36984 13.75 6.1875C13.75 6.00516 13.6776 5.8303 13.5486 5.70136C13.4197 5.57243 13.2448 5.5 13.0625 5.5H9.625V4.8125C9.625 4.63016 9.55257 4.4553 9.42364 4.32636C9.2947 4.19743 9.11984 4.125 8.9375 4.125C8.75516 4.125 8.5803 4.19743 8.45136 4.32636C8.32243 4.4553 8.25 4.63016 8.25 4.8125V5.5H4.8125C4.63016 5.5 4.4553 5.57243 4.32636 5.70136C4.19743 5.8303 4.125 6.00516 4.125 6.1875C4.125 6.36984 4.19743 6.5447 4.32636 6.67364C4.4553 6.80257 4.63016 6.875 4.8125 6.875H10.2678C10.1314 7.95976 9.67349 8.97888 8.95297 9.80117C8.64772 9.44483 8.38792 9.05195 8.17953 8.63156C8.09509 8.47411 7.95267 8.35571 7.78245 8.30145C7.61222 8.24719 7.42755 8.26132 7.26757 8.34087C7.10759 8.42041 6.98485 8.55912 6.92537 8.72759C6.86589 8.89606 6.87433 9.08108 6.94891 9.24344C7.21204 9.77405 7.54121 10.2692 7.92859 10.7173C7.0129 11.3504 5.92575 11.6889 4.8125 11.6875C4.63016 11.6875 4.4553 11.7599 4.32636 11.8889C4.19743 12.0178 4.125 12.1927 4.125 12.375C4.125 12.5573 4.19743 12.7322 4.32636 12.8611C4.4553 12.9901 4.63016 13.0625 4.8125 13.0625C6.30501 13.0641 7.75704 12.5773 8.94695 11.6763C9.66694 12.2267 10.4906 12.6259 11.3687 12.8502L9.69719 16.1923C9.61559 16.3555 9.60217 16.5445 9.65986 16.7175C9.71756 16.8906 9.84165 17.0337 10.0048 17.1153C10.168 17.1969 10.357 17.2103 10.53 17.1526C10.7031 17.0949 10.8462 16.9708 10.9278 16.8077L11.7683 15.125H15.7317L16.5722 16.8077C16.6126 16.8885 16.6685 16.9605 16.7368 17.0197C16.805 17.0789 16.8842 17.1241 16.97 17.1526C17.0557 17.1812 17.1462 17.1926 17.2363 17.1862C17.3264 17.1798 17.4144 17.1557 17.4952 17.1153C17.576 17.0749 17.648 17.019 17.7072 16.9507C17.7664 16.8825 17.8116 16.8033 17.8401 16.7175C17.8687 16.6318 17.8801 16.5413 17.8737 16.4512C17.8673 16.3611 17.8432 16.2731 17.8028 16.1923Z" fill="#3D3E40"/>
</svg>
