<svg width="19" height="20" viewBox="0 0 19 20" fill="none" xmlns="http://www.w3.org/2000/svg">
<path d="M13.6562 4.375V15.625C13.6562 16.1223 13.4686 16.5992 13.1345 16.9508C12.8005 17.3025 12.3474 17.5 11.875 17.5H7.125C6.65258 17.5 6.19951 17.3025 5.86547 16.9508C5.53142 16.5992 5.34375 16.1223 5.34375 15.625V4.375C5.34375 3.87772 5.53142 3.40081 5.86547 3.04917C6.19951 2.69754 6.65258 2.5 7.125 2.5H11.875C12.3474 2.5 12.8005 2.69754 13.1345 3.04917C13.4686 3.40081 13.6562 3.87772 13.6562 4.375ZM15.4375 6.25C15.28 6.25 15.129 6.31585 15.0177 6.43306C14.9063 6.55027 14.8438 6.70924 14.8438 6.875V13.125C14.8438 13.2908 14.9063 13.4497 15.0177 13.5669C15.129 13.6842 15.28 13.75 15.4375 13.75C15.595 13.75 15.746 13.6842 15.8573 13.5669C15.9687 13.4497 16.0312 13.2908 16.0312 13.125V6.875C16.0312 6.70924 15.9687 6.55027 15.8573 6.43306C15.746 6.31585 15.595 6.25 15.4375 6.25ZM17.8125 7.5C17.655 7.5 17.504 7.56585 17.3927 7.68306C17.2813 7.80027 17.2188 7.95924 17.2188 8.125V11.875C17.2188 12.0408 17.2813 12.1997 17.3927 12.3169C17.504 12.4342 17.655 12.5 17.8125 12.5C17.97 12.5 18.121 12.4342 18.2323 12.3169C18.3437 12.1997 18.4062 12.0408 18.4062 11.875V8.125C18.4062 7.95924 18.3437 7.80027 18.2323 7.68306C18.121 7.56585 17.97 7.5 17.8125 7.5ZM3.5625 6.25C3.40503 6.25 3.25401 6.31585 3.14266 6.43306C3.03131 6.55027 2.96875 6.70924 2.96875 6.875V13.125C2.96875 13.2908 3.03131 13.4497 3.14266 13.5669C3.25401 13.6842 3.40503 13.75 3.5625 13.75C3.71997 13.75 3.87099 13.6842 3.98234 13.5669C4.09369 13.4497 4.15625 13.2908 4.15625 13.125V6.875C4.15625 6.70924 4.09369 6.55027 3.98234 6.43306C3.87099 6.31585 3.71997 6.25 3.5625 6.25ZM1.1875 7.5C1.03003 7.5 0.879005 7.56585 0.767655 7.68306C0.656306 7.80027 0.59375 7.95924 0.59375 8.125V11.875C0.59375 12.0408 0.656306 12.1997 0.767655 12.3169C0.879005 12.4342 1.03003 12.5 1.1875 12.5C1.34497 12.5 1.49599 12.4342 1.60734 12.3169C1.71869 12.1997 1.78125 12.0408 1.78125 11.875V8.125C1.78125 7.95924 1.71869 7.80027 1.60734 7.68306C1.49599 7.56585 1.34497 7.5 1.1875 7.5Z" fill="#3D3E40"/>
</svg>
