<svg width="24" height="24" viewBox="0 0 24 24" fill="none" xmlns="http://www.w3.org/2000/svg">
<g clip-path="url(#clip0_23_1390)">
<path d="M10.7443 23.2557C10.053 23.2557 9.42566 23.1255 8.86222 22.8651C8.29877 22.5999 7.85133 22.2188 7.51989 21.7216C7.18845 21.2197 7.02273 20.6136 7.02273 19.9034C7.02273 19.2784 7.14583 18.7718 7.39205 18.3835C7.63826 17.9905 7.96733 17.6828 8.37926 17.4602C8.79119 17.2377 9.24574 17.072 9.7429 16.9631C10.2448 16.8494 10.7491 16.7595 11.2557 16.6932C11.9186 16.608 12.456 16.544 12.8679 16.5014C13.2846 16.4541 13.5876 16.3759 13.777 16.267C13.9711 16.1581 14.0682 15.9687 14.0682 15.6989V15.642C14.0682 14.9413 13.8764 14.3968 13.4929 14.0085C13.1141 13.6203 12.5388 13.4261 11.767 13.4261C10.9669 13.4261 10.3395 13.6013 9.88494 13.9517C9.4304 14.3021 9.1108 14.6761 8.92614 15.0739L7.33523 14.5057C7.61932 13.8428 7.99811 13.3267 8.47159 12.9574C8.94981 12.5833 9.47064 12.3229 10.0341 12.1761C10.6023 12.0246 11.161 11.9489 11.7102 11.9489C12.0606 11.9489 12.4631 11.9915 12.9176 12.0767C13.3769 12.1572 13.8196 12.3253 14.2457 12.581C14.6766 12.8366 15.0341 13.2225 15.3182 13.7386C15.6023 14.2547 15.7443 14.946 15.7443 15.8125V23H14.0682V21.5227H13.983C13.8693 21.7595 13.6799 22.0128 13.4148 22.2827C13.1496 22.5526 12.7969 22.7822 12.3565 22.9716C11.9162 23.161 11.3788 23.2557 10.7443 23.2557ZM11 21.75C11.6629 21.75 12.2216 21.6198 12.6761 21.3594C13.1354 21.099 13.4811 20.7628 13.7131 20.3509C13.9498 19.9389 14.0682 19.5057 14.0682 19.0511V17.517C13.9972 17.6023 13.8409 17.6804 13.5994 17.7514C13.3627 17.8177 13.0881 17.8769 12.7756 17.929C12.4678 17.9763 12.1671 18.0189 11.8736 18.0568C11.5848 18.09 11.3504 18.1184 11.1705 18.142C10.7348 18.1989 10.3277 18.2912 9.94886 18.419C9.57481 18.5421 9.27178 18.7292 9.03977 18.9801C8.8125 19.2263 8.69886 19.5625 8.69886 19.9886C8.69886 20.571 8.9143 21.0114 9.34517 21.3097C9.78078 21.6032 10.3324 21.75 11 21.75Z" fill="#FF9900"/>
</g>
<defs>
<clipPath id="clip0_23_1390">
<rect width="24" height="24" fill="white"/>
</clipPath>
</defs>
</svg>
