<svg width="24" height="24" viewBox="0 0 24 24" fill="none" xmlns="http://www.w3.org/2000/svg">
<g clip-path="url(#clip0_23_1396)">
<path d="M12.108 21.5178C11.0568 21.5178 10.1501 21.2858 9.38778 20.8218C8.63021 20.353 8.04545 19.6996 7.63352 18.8616C7.22633 18.0187 7.02273 17.0386 7.02273 15.9212C7.02273 14.8038 7.22633 13.8189 7.63352 12.9667C8.04545 12.1097 8.61837 11.442 9.35227 10.9638C10.0909 10.4809 10.9527 10.2394 11.9375 10.2394C12.5057 10.2394 13.0668 10.3341 13.6207 10.5235C14.1747 10.7129 14.679 11.0206 15.1335 11.4468C15.5881 11.8682 15.9503 12.4269 16.2202 13.1229C16.4901 13.8189 16.625 14.6759 16.625 15.6939V16.4042H8.21591V14.9553H14.9205C14.9205 14.3398 14.7973 13.7905 14.5511 13.3076C14.3097 12.8246 13.964 12.4435 13.5142 12.1641C13.0691 11.8848 12.5436 11.7451 11.9375 11.7451C11.2699 11.7451 10.6922 11.9108 10.2045 12.2422C9.72159 12.5689 9.34991 12.9951 9.08949 13.5206C8.82907 14.0462 8.69886 14.6097 8.69886 15.211V16.1769C8.69886 17.0008 8.84091 17.6991 9.125 18.2721C9.41383 18.8402 9.81392 19.2735 10.3253 19.5718C10.8366 19.8653 11.4309 20.0121 12.108 20.0121C12.5483 20.0121 12.946 19.9506 13.3011 19.8275C13.661 19.6996 13.9711 19.5102 14.2315 19.2593C14.492 19.0036 14.6932 18.6864 14.8352 18.3076L16.4545 18.7621C16.2841 19.3114 15.9976 19.7943 15.5952 20.211C15.1927 20.6229 14.6955 20.9449 14.1037 21.1769C13.5118 21.4042 12.8466 21.5178 12.108 21.5178Z" fill="#E53238"/>
</g>
<defs>
<clipPath id="clip0_23_1396">
<rect width="24" height="24" fill="white"/>
</clipPath>
</defs>
</svg>
