<svg width="24" height="24" viewBox="0 0 24 24" fill="none" xmlns="http://www.w3.org/2000/svg">
<g clip-path="url(#clip0_23_1416)">
<path d="M13.7727 12.2727C13.7045 11.697 13.428 11.25 12.9432 10.9318C12.4583 10.6136 11.8636 10.4545 11.1591 10.4545C10.6439 10.4545 10.1932 10.5379 9.80682 10.7045C9.42424 10.8712 9.125 11.1004 8.90909 11.392C8.69697 11.6837 8.59091 12.0152 8.59091 12.3864C8.59091 12.697 8.66477 12.964 8.8125 13.1875C8.96402 13.4072 9.1572 13.5909 9.39205 13.7386C9.62689 13.8826 9.87311 14.0019 10.1307 14.0966C10.3883 14.1875 10.625 14.2614 10.8409 14.3182L12.0227 14.6364C12.3258 14.7159 12.6629 14.8258 13.0341 14.9659C13.4091 15.1061 13.767 15.2973 14.108 15.5398C14.4527 15.7784 14.7367 16.0852 14.9602 16.4602C15.1837 16.8352 15.2955 17.2955 15.2955 17.8409C15.2955 18.4697 15.1307 19.0379 14.8011 19.5455C14.4754 20.053 13.9981 20.4564 13.3693 20.7557C12.7443 21.0549 11.9848 21.2045 11.0909 21.2045C10.2576 21.2045 9.53598 21.0701 8.92614 20.8011C8.32008 20.5322 7.8428 20.1572 7.49432 19.6761C7.14962 19.1951 6.95455 18.6364 6.90909 18H8.36364C8.40152 18.4394 8.54924 18.803 8.80682 19.0909C9.06818 19.375 9.39773 19.5871 9.79545 19.7273C10.197 19.8636 10.6288 19.9318 11.0909 19.9318C11.6288 19.9318 12.1117 19.8447 12.5398 19.6705C12.9678 19.4924 13.3068 19.2462 13.5568 18.9318C13.8068 18.6136 13.9318 18.2424 13.9318 17.8182C13.9318 17.4318 13.8239 17.1174 13.608 16.875C13.392 16.6326 13.108 16.4356 12.7557 16.2841C12.4034 16.1326 12.0227 16 11.6136 15.8864L10.1818 15.4773C9.27273 15.2159 8.55303 14.8428 8.02273 14.358C7.49242 13.8731 7.22727 13.2386 7.22727 12.4545C7.22727 11.803 7.40341 11.2348 7.75568 10.75C8.11174 10.2614 8.58902 9.88258 9.1875 9.61364C9.78977 9.34091 10.4621 9.20455 11.2045 9.20455C11.9545 9.20455 12.6212 9.33901 13.2045 9.60795C13.7879 9.87311 14.25 10.2367 14.5909 10.6989C14.9356 11.161 15.1174 11.6856 15.1364 12.2727H13.7727Z" fill="white"/>
</g>
<defs>
<clipPath id="clip0_23_1416">
<rect width="24" height="24" fill="white"/>
</clipPath>
</defs>
</svg>
