<svg width="24" height="24" viewBox="0 0 24 24" fill="none" xmlns="http://www.w3.org/2000/svg">
<path d="M10.6799 9.09659V7.81818H11.2623V9.09659H10.6799ZM12.0435 9.09659V7.81818H12.6259V9.09659H12.0435ZM10.6799 16.9091V15.6307H11.2623V16.9091H10.6799ZM12.0435 16.9091V15.6307H12.6259V16.9091H12.0435ZM9.62873 16V8.72727H12.1713C12.678 8.72727 13.0958 8.81487 13.4249 8.99006C13.754 9.16288 13.999 9.39607 14.16 9.68963C14.321 9.98082 14.4015 10.304 14.4015 10.6591C14.4015 10.9716 14.3458 11.2296 14.2346 11.4332C14.1257 11.6368 13.9812 11.7978 13.8013 11.9162C13.6238 12.0346 13.4308 12.1222 13.2225 12.179V12.25C13.445 12.2642 13.6687 12.3423 13.8936 12.4844C14.1185 12.6264 14.3068 12.83 14.4583 13.0952C14.6098 13.3603 14.6855 13.6847 14.6855 14.0682C14.6855 14.4328 14.6027 14.7607 14.437 15.0518C14.2712 15.343 14.0096 15.5739 13.6522 15.7443C13.2947 15.9148 12.8295 16 12.2566 16H9.62873ZM10.5094 15.2188H12.2566C12.8319 15.2188 13.2402 15.1075 13.4817 14.8849C13.7256 14.66 13.8475 14.3878 13.8475 14.0682C13.8475 13.822 13.7847 13.5947 13.6593 13.3864C13.5338 13.1757 13.3551 13.0076 13.123 12.8821C12.891 12.7543 12.6164 12.6903 12.2992 12.6903H10.5094V15.2188ZM10.5094 11.9233H12.1429C12.4081 11.9233 12.6472 11.8712 12.8603 11.767C13.0757 11.6629 13.2462 11.5161 13.3716 11.3267C13.4995 11.1373 13.5634 10.9148 13.5634 10.6591C13.5634 10.3395 13.4521 10.0684 13.2296 9.84588C13.007 9.62098 12.6543 9.50852 12.1713 9.50852H10.5094V11.9233Z" fill="white"/>
<path d="M13.4418 2.81055C9.7703 6.48203 4.875 8.92968 4.875 15.0488C4.875 16.9963 5.64863 18.864 7.0257 20.2411C8.40277 21.6181 10.2705 22.3918 12.218 22.3918C14.1654 22.3918 16.0331 21.6181 17.4102 20.2411C18.7873 18.864 19.5609 16.9963 19.5609 15.0488C19.5609 11.3773 17.1133 7.70585 13.4418 2.81055Z" fill="#F5A623"/>
</svg>
