<svg width="24" height="24" viewBox="0 0 24 24" fill="none" xmlns="http://www.w3.org/2000/svg">
<path d="M12 22C17.5228 22 22 17.5228 22 12C22 6.47715 17.5228 2 12 2C6.47715 2 2 6.47715 2 12C2 17.5228 6.47715 22 12 22Z" fill="#F28C28"/>
<path d="M12 16C14.2091 16 16 14.2091 16 12C16 9.79086 14.2091 8 12 8C9.79086 8 8 9.79086 8 12C8 14.2091 9.79086 16 12 16Z" fill="white"/>
<path d="M11.8309 15.8492C13.9567 15.8492 15.68 14.1259 15.68 12C15.68 9.87421 13.9567 8.15088 11.8309 8.15088C9.70502 8.15088 7.98169 9.87421 7.98169 12C7.98169 14.1259 9.70502 15.8492 11.8309 15.8492Z" fill="#F4D03F"/>
</svg>
