<svg width="18" height="14" viewBox="0 0 18 14" fill="none" xmlns="http://www.w3.org/2000/svg">
<path d="M15 0H3C1.34315 0 0 1.34315 0 3V11C0 12.6569 1.34315 14 3 14H15C16.6569 14 18 12.6569 18 11V3C18 1.34315 16.6569 0 15 0Z" fill="#1677FF"/>
<path d="M7.132 7.016C7.548 7.8 8.188 8.424 9.052 8.888C9.916 9.352 10.9907 9.656 12.276 9.8C12.2067 9.87467 12.132 9.96533 12.052 10.072C11.9773 10.184 11.9053 10.2987 11.836 10.416C11.7667 10.5333 11.708 10.64 11.66 10.736C10.764 10.6027 9.972 10.392 9.284 10.104C8.60133 9.82133 8.00933 9.45067 7.508 8.992C7.00667 8.528 6.58 7.97333 6.228 7.328L7.132 7.016ZM5.444 6.144H10.572V7.08H5.444V6.144ZM5.052 4.256H11.916V5.208H5.052V4.256ZM7.972 3.2H8.972V6.568H7.972V3.2ZM10.268 6.144H10.468L10.636 6.104L11.316 6.488C11.076 7.13867 10.7533 7.704 10.348 8.184C9.948 8.664 9.484 9.072 8.956 9.408C8.428 9.73867 7.852 10.0107 7.228 10.224C6.604 10.4373 5.94533 10.6027 5.252 10.72C5.22533 10.6293 5.18 10.5253 5.116 10.408C5.05733 10.2907 4.99333 10.176 4.924 10.064C4.85467 9.952 4.788 9.86133 4.724 9.792C5.396 9.70133 6.028 9.57333 6.62 9.408C7.212 9.23733 7.748 9.016 8.228 8.744C8.71333 8.46667 9.12933 8.13067 9.476 7.736C9.82267 7.336 10.0867 6.86133 10.268 6.312V6.144Z" fill="white"/>
</svg>
