<svg width="18" height="18" viewBox="0 0 18 18" fill="none" xmlns="http://www.w3.org/2000/svg">
<g clip-path="url(#clip0_23_868)">
<path d="M12.4639 0C12.5058 0 12.5477 0 12.592 0C12.6947 1.2694 12.2102 2.21789 11.6213 2.90476C11.0435 3.58688 10.2523 4.24845 8.97267 4.14807C8.88731 2.89685 9.37262 2.01871 9.96069 1.33342C10.5061 0.69477 11.5059 0.126466 12.4639 0Z" fill="white"/>
<path d="M16.3377 13.2123C16.3377 13.2249 16.3377 13.236 16.3377 13.2479C15.9781 14.337 15.4651 15.2705 14.8391 16.1368C14.2676 16.9233 13.5673 17.9816 12.3169 17.9816C11.2364 17.9816 10.5187 17.2868 9.41135 17.2679C8.23996 17.2489 7.59578 17.8488 6.52477 17.9998C6.40226 17.9998 6.27975 17.9998 6.1596 17.9998C5.37315 17.886 4.73845 17.2631 4.27606 16.7019C2.9126 15.0437 1.85899 12.9017 1.66296 10.1605C1.66296 9.89178 1.66296 9.62383 1.66296 9.35509C1.74596 7.39329 2.69919 5.79824 3.96622 5.02522C4.6349 4.61421 5.55415 4.26406 6.57773 4.42056C7.01641 4.48854 7.46457 4.63871 7.8574 4.78731C8.22969 4.93037 8.69524 5.1841 9.13629 5.17066C9.43506 5.16196 9.73226 5.00625 10.0334 4.89639C10.9155 4.57785 11.7802 4.21268 12.92 4.3842C14.2898 4.59129 15.262 5.1999 15.8627 6.13891C14.7039 6.87636 13.7878 7.98768 13.9443 9.88545C14.0835 11.6093 15.0857 12.6179 16.3377 13.2123Z" fill="white"/>
</g>
<defs>
<clipPath id="clip0_23_868">
<rect width="18" height="18" fill="white"/>
</clipPath>
</defs>
</svg>
