<svg width="24" height="24" viewBox="0 0 24 24" fill="none" xmlns="http://www.w3.org/2000/svg">
<g clip-path="url(#clip0_23_1047)">
<path d="M18 0H6C2.68629 0 0 2.68629 0 6V18C0 21.3137 2.68629 24 6 24H18C21.3137 24 24 21.3137 24 18V6C24 2.68629 21.3137 0 18 0Z" fill="#007BFF"/>
<path d="M7.53658 15V9.18182H9.57067C9.97597 9.18182 10.3103 9.25189 10.5735 9.39205C10.8368 9.5303 11.0328 9.71686 11.1616 9.9517C11.2904 10.1847 11.3548 10.4432 11.3548 10.7273C11.3548 10.9773 11.3103 11.1837 11.2212 11.3466C11.1341 11.5095 11.0186 11.6383 10.8746 11.733C10.7326 11.8277 10.5782 11.8977 10.4116 11.9432V12C10.5896 12.0114 10.7686 12.0739 10.9485 12.1875C11.1284 12.3011 11.279 12.464 11.4002 12.6761C11.5214 12.8883 11.582 13.1477 11.582 13.4545C11.582 13.7462 11.5157 14.0085 11.3832 14.2415C11.2506 14.4744 11.0413 14.6591 10.7553 14.7955C10.4693 14.9318 10.0972 15 9.63885 15H7.53658ZM8.24112 14.375H9.63885C10.0991 14.375 10.4258 14.286 10.619 14.108C10.814 13.928 10.9116 13.7102 10.9116 13.4545C10.9116 13.2576 10.8614 13.0758 10.761 12.9091C10.6606 12.7405 10.5176 12.6061 10.332 12.5057C10.1464 12.4034 9.92673 12.3523 9.67294 12.3523H8.24112V14.375ZM8.24112 11.7386H9.54794C9.76006 11.7386 9.95135 11.697 10.1218 11.6136C10.2942 11.5303 10.4305 11.4129 10.5309 11.2614C10.6332 11.1098 10.6843 10.9318 10.6843 10.7273C10.6843 10.4716 10.5953 10.2547 10.4173 10.0767C10.2392 9.89678 9.95703 9.80682 9.57067 9.80682H8.24112V11.7386ZM13.0806 9.18182L14.5806 11.6023H14.6261L16.1261 9.18182H16.9556L15.1261 12.0909L16.9556 15H16.1261L14.6261 12.625H14.5806L13.0806 15H12.2511L14.1261 12.0909L12.2511 9.18182H13.0806Z" fill="white"/>
</g>
<defs>
<clipPath id="clip0_23_1047">
<rect width="24" height="24" fill="white"/>
</clipPath>
</defs>
</svg>
