<svg width="24" height="24" viewBox="0 0 24 24" fill="none" xmlns="http://www.w3.org/2000/svg">
<g clip-path="url(#clip0_23_1120)">
<path d="M18 0H6C2.68629 0 0 2.68629 0 6V18C0 21.3137 2.68629 24 6 24H18C21.3137 24 24 21.3137 24 18V6C24 2.68629 21.3137 0 18 0Z" fill="#00A3E0"/>
<path d="M8.06392 15V9.18182H10.098C10.5033 9.18182 10.8376 9.25189 11.1009 9.39205C11.3641 9.5303 11.5601 9.71686 11.6889 9.9517C11.8177 10.1847 11.8821 10.4432 11.8821 10.7273C11.8821 10.9773 11.8376 11.1837 11.7486 11.3466C11.6615 11.5095 11.5459 11.6383 11.402 11.733C11.2599 11.8277 11.1056 11.8977 10.9389 11.9432V12C11.117 12.0114 11.2959 12.0739 11.4759 12.1875C11.6558 12.3011 11.8063 12.464 11.9276 12.6761C12.0488 12.8883 12.1094 13.1477 12.1094 13.4545C12.1094 13.7462 12.0431 14.0085 11.9105 14.2415C11.7779 14.4744 11.5687 14.6591 11.2827 14.7955C10.9967 14.9318 10.6245 15 10.1662 15H8.06392ZM8.76847 14.375H10.1662C10.6264 14.375 10.9531 14.286 11.1463 14.108C11.3414 13.928 11.4389 13.7102 11.4389 13.4545C11.4389 13.2576 11.3887 13.0758 11.2884 12.9091C11.188 12.7405 11.045 12.6061 10.8594 12.5057C10.6738 12.4034 10.4541 12.3523 10.2003 12.3523H8.76847V14.375ZM8.76847 11.7386H10.0753C10.2874 11.7386 10.4787 11.697 10.6491 11.6136C10.8215 11.5303 10.9579 11.4129 11.0582 11.2614C11.1605 11.1098 11.2116 10.9318 11.2116 10.7273C11.2116 10.4716 11.1226 10.2547 10.9446 10.0767C10.7666 9.89678 10.4844 9.80682 10.098 9.80682H8.76847V11.7386ZM13.267 15V9.18182H15.233C15.6894 9.18182 16.0625 9.2642 16.3523 9.42898C16.6439 9.59186 16.8598 9.8125 17 10.0909C17.1402 10.3693 17.2102 10.6799 17.2102 11.0227C17.2102 11.3655 17.1402 11.6771 17 11.9574C16.8617 12.2377 16.6477 12.4612 16.358 12.6278C16.0682 12.7926 15.697 12.875 15.2443 12.875H13.8352V12.25H15.2216C15.5341 12.25 15.785 12.196 15.9744 12.0881C16.1638 11.9801 16.3011 11.8343 16.3864 11.6506C16.4735 11.465 16.517 11.2557 16.517 11.0227C16.517 10.7898 16.4735 10.5814 16.3864 10.3977C16.3011 10.214 16.1629 10.0701 15.9716 9.96591C15.7803 9.85985 15.5265 9.80682 15.2102 9.80682H13.9716V15H13.267Z" fill="white"/>
</g>
<defs>
<clipPath id="clip0_23_1120">
<rect width="24" height="24" fill="white"/>
</clipPath>
</defs>
</svg>
