<svg width="24" height="24" viewBox="0 0 24 24" fill="none" xmlns="http://www.w3.org/2000/svg">
<g clip-path="url(#clip0_23_1054)">
<path d="M18 0H6C2.68629 0 0 2.68629 0 6V18C0 21.3137 2.68629 24 6 24H18C21.3137 24 24 21.3137 24 18V6C24 2.68629 21.3137 0 18 0Z" fill="#00B14F"/>
<path d="M11.9529 12H11.4244C11.3932 11.848 11.3385 11.7145 11.2604 11.5994C11.1837 11.4844 11.0899 11.3878 10.9791 11.3097C10.8698 11.2301 10.7483 11.1705 10.6148 11.1307C10.4813 11.0909 10.3421 11.071 10.1972 11.071C9.93297 11.071 9.69363 11.1378 9.47914 11.2713C9.26607 11.4048 9.09632 11.6016 8.9699 11.8615C8.8449 12.1214 8.7824 12.4403 8.7824 12.8182C8.7824 13.196 8.8449 13.5149 8.9699 13.7749C9.09632 14.0348 9.26607 14.2315 9.47914 14.3651C9.69363 14.4986 9.93297 14.5653 10.1972 14.5653C10.3421 14.5653 10.4813 14.5455 10.6148 14.5057C10.7483 14.4659 10.8698 14.407 10.9791 14.3288C11.0899 14.2493 11.1837 14.152 11.2604 14.0369C11.3385 13.9205 11.3932 13.7869 11.4244 13.6364H11.9529C11.9131 13.8594 11.8406 14.0589 11.7355 14.2351C11.6304 14.4112 11.4997 14.5611 11.3435 14.6847C11.1872 14.8068 11.0118 14.8999 10.8172 14.9638C10.624 15.0277 10.4173 15.0597 10.1972 15.0597C9.82502 15.0597 9.49405 14.9688 9.20428 14.7869C8.91451 14.6051 8.68652 14.3466 8.52033 14.0114C8.35414 13.6761 8.27104 13.2784 8.27104 12.8182C8.27104 12.358 8.35414 11.9602 8.52033 11.625C8.68652 11.2898 8.91451 11.0312 9.20428 10.8494C9.49405 10.6676 9.82502 10.5767 10.1972 10.5767C10.4173 10.5767 10.624 10.6087 10.8172 10.6726C11.0118 10.7365 11.1872 10.8303 11.3435 10.9538C11.4997 11.076 11.6304 11.2251 11.7355 11.4013C11.8406 11.576 11.9131 11.7756 11.9529 12ZM12.8067 15V10.6364H14.2812C14.6235 10.6364 14.9033 10.6982 15.1206 10.8217C15.3394 10.9439 15.5013 11.1094 15.6064 11.3182C15.7116 11.527 15.7641 11.7599 15.7641 12.017C15.7641 12.2741 15.7116 12.5078 15.6064 12.718C15.5028 12.9283 15.3422 13.0959 15.1249 13.2209C14.9076 13.3445 14.6292 13.4062 14.2897 13.4062H13.2329V12.9375H14.2726C14.507 12.9375 14.6952 12.897 14.8373 12.8161C14.9793 12.7351 15.0823 12.6257 15.1462 12.4879C15.2116 12.3487 15.2442 12.1918 15.2442 12.017C15.2442 11.8423 15.2116 11.6861 15.1462 11.5483C15.0823 11.4105 14.9786 11.3026 14.8351 11.2244C14.6917 11.1449 14.5013 11.1051 14.2641 11.1051H13.3351V15H12.8067Z" fill="white"/>
</g>
<defs>
<clipPath id="clip0_23_1054">
<rect width="24" height="24" fill="white"/>
</clipPath>
</defs>
</svg>
