<svg width="24" height="24" viewBox="0 0 24 24" fill="none" xmlns="http://www.w3.org/2000/svg">
<g clip-path="url(#clip0_23_1031)">
<path d="M24 12C24 5.37258 18.6274 0 12 0C5.37258 0 0 5.37258 0 12C0 18.6274 5.37258 24 12 24C18.6274 24 24 18.6274 24 12Z" fill="#0066FF"/>
<path d="M14.9603 10.7461H13.5605C13.5349 10.565 13.4827 10.4041 13.4039 10.2635C13.325 10.1207 13.2238 9.99929 13.1002 9.89915C12.9767 9.79901 12.8339 9.7223 12.672 9.66903C12.5122 9.61577 12.3385 9.58913 12.151 9.58913C11.8122 9.58913 11.5171 9.6733 11.2657 9.84162C11.0143 10.0078 10.8193 10.2507 10.6808 10.5703C10.5423 10.8878 10.4731 11.2734 10.4731 11.7273C10.4731 12.1939 10.5423 12.5859 10.6808 12.9034C10.8215 13.2209 11.0175 13.4606 11.2689 13.6225C11.5203 13.7844 11.8112 13.8654 12.1414 13.8654C12.3268 13.8654 12.4983 13.8409 12.656 13.7919C12.8158 13.7429 12.9575 13.6715 13.0811 13.5778C13.2046 13.4819 13.3069 13.3658 13.3879 13.2294C13.471 13.093 13.5285 12.9375 13.5605 12.7628L14.9603 12.7692C14.9241 13.0696 14.8335 13.3594 14.6887 13.6385C14.5459 13.9155 14.3531 14.1637 14.1102 14.3832C13.8694 14.6005 13.5818 14.7731 13.2472 14.9009C12.9149 15.0266 12.5388 15.0895 12.1191 15.0895C11.5352 15.0895 11.0132 14.9574 10.553 14.6932C10.0949 14.429 9.73269 14.0465 9.46635 13.5458C9.20215 13.0451 9.07005 12.4389 9.07005 11.7273C9.07005 11.0135 9.20428 10.4062 9.47275 9.90554C9.74121 9.40483 10.1056 9.02344 10.5658 8.76136C11.026 8.49716 11.5438 8.36506 12.1191 8.36506C12.4983 8.36506 12.8499 8.41832 13.1737 8.52486C13.4997 8.63139 13.7884 8.78693 14.0399 8.99148C14.2913 9.19389 14.4958 9.44212 14.6535 9.73615C14.8133 10.0302 14.9156 10.3668 14.9603 10.7461Z" fill="white"/>
</g>
<defs>
<clipPath id="clip0_23_1031">
<rect width="24" height="24" fill="white"/>
</clipPath>
</defs>
</svg>
