<svg width="24" height="24" viewBox="0 0 24 24" fill="none" xmlns="http://www.w3.org/2000/svg">
<g clip-path="url(#clip0_23_1171)">
<path d="M18 0H6C2.68629 0 0 2.68629 0 6V18C0 21.3137 2.68629 24 6 24H18C21.3137 24 24 21.3137 24 18V6C24 2.68629 21.3137 0 18 0Z" fill="#E30613"/>
<path d="M8.85742 16H6.6131V8.72727H8.95685C9.66235 8.72727 10.266 8.87287 10.7679 9.16406C11.2698 9.45289 11.6545 9.86837 11.9221 10.4105C12.1896 10.9503 12.3233 11.5966 12.3233 12.3494C12.3233 13.107 12.1884 13.7592 11.9185 14.3061C11.6486 14.8506 11.2556 15.2696 10.7395 15.5632C10.2234 15.8544 9.59606 16 8.85742 16ZM7.49379 15.2188H8.8006C9.40193 15.2188 9.90027 15.1027 10.2956 14.8707C10.691 14.6387 10.9857 14.3085 11.1799 13.88C11.374 13.4515 11.4711 12.9413 11.4711 12.3494C11.4711 11.7623 11.3752 11.2569 11.1834 10.8331C10.9917 10.407 10.7052 10.0803 10.324 9.85298C9.94289 9.62334 9.46822 9.50852 8.90004 9.50852H7.49379V15.2188ZM13.8006 16V8.72727H16.258C16.8285 8.72727 17.2949 8.83026 17.6571 9.03622C18.0217 9.23982 18.2916 9.51562 18.4668 9.86364C18.642 10.2116 18.7296 10.5999 18.7296 11.0284C18.7296 11.4569 18.642 11.8464 18.4668 12.1967C18.294 12.5471 18.0265 12.8265 17.6642 13.0348C17.302 13.2408 16.838 13.3438 16.2722 13.3438H14.5108V12.5625H16.2438C16.6344 12.5625 16.9481 12.495 17.1848 12.3601C17.4216 12.2251 17.5932 12.0429 17.6998 11.8132C17.8087 11.5812 17.8631 11.3196 17.8631 11.0284C17.8631 10.7372 17.8087 10.4768 17.6998 10.2472C17.5932 10.0175 17.4204 9.83759 17.1813 9.70739C16.9422 9.57481 16.6249 9.50852 16.2296 9.50852H14.6813V16H13.8006Z" fill="white"/>
</g>
<defs>
<clipPath id="clip0_23_1171">
<rect width="24" height="24" fill="white"/>
</clipPath>
</defs>
</svg>
