<svg width="24" height="24" viewBox="0 0 24 24" fill="none" xmlns="http://www.w3.org/2000/svg">
<path d="M18 0H6C2.68629 0 0 2.68629 0 6V18C0 21.3137 2.68629 24 6 24H18C21.3137 24 24 21.3137 24 18V6C24 2.68629 21.3137 0 18 0Z" fill="black"/>
<path d="M7 14C8.10457 14 9 13.1046 9 12C9 10.8954 8.10457 10 7 10C5.89543 10 5 10.8954 5 12C5 13.1046 5.89543 14 7 14Z" fill="#FF3B30"/>
<path d="M14.7045 15V9.18182H16.7386C17.1439 9.18182 17.4782 9.25189 17.7415 9.39205C18.0047 9.5303 18.2008 9.71686 18.3295 9.9517C18.4583 10.1847 18.5227 10.4432 18.5227 10.7273C18.5227 10.9773 18.4782 11.1837 18.3892 11.3466C18.3021 11.5095 18.1866 11.6383 18.0426 11.733C17.9006 11.8277 17.7462 11.8977 17.5795 11.9432V12C17.7576 12.0114 17.9366 12.0739 18.1165 12.1875C18.2964 12.3011 18.447 12.464 18.5682 12.6761C18.6894 12.8883 18.75 13.1477 18.75 13.4545C18.75 13.7462 18.6837 14.0085 18.5511 14.2415C18.4186 14.4744 18.2093 14.6591 17.9233 14.7955C17.6373 14.9318 17.2652 15 16.8068 15H14.7045ZM15.4091 14.375H16.8068C17.267 14.375 17.5938 14.286 17.7869 14.108C17.982 13.928 18.0795 13.7102 18.0795 13.4545C18.0795 13.2576 18.0294 13.0758 17.929 12.9091C17.8286 12.7405 17.6856 12.6061 17.5 12.5057C17.3144 12.4034 17.0947 12.3523 16.8409 12.3523H15.4091V14.375ZM15.4091 11.7386H16.7159C16.928 11.7386 17.1193 11.697 17.2898 11.6136C17.4621 11.5303 17.5985 11.4129 17.6989 11.2614C17.8011 11.1098 17.8523 10.9318 17.8523 10.7273C17.8523 10.4716 17.7633 10.2547 17.5852 10.0767C17.4072 9.89678 17.125 9.80682 16.7386 9.80682H15.4091V11.7386Z" fill="white"/>
</svg>
