<svg width="18" height="18" viewBox="0 0 18 18" fill="none" xmlns="http://www.w3.org/2000/svg">
<g clip-path="url(#clip0_23_907)">
<path d="M13.8542 0H3.87918C1.73677 0 0 1.73677 0 3.87918V13.8542C0 15.9966 1.73677 17.7334 3.87918 17.7334H13.8542C15.9966 17.7334 17.7334 15.9966 17.7334 13.8542V3.87918C17.7334 1.73677 15.9966 0 13.8542 0Z" fill="#00A86B"/>
<path d="M6.49543 12.8667V5.59397H9.03804C9.54467 5.59397 9.96252 5.68157 10.2916 5.85676C10.6207 6.02958 10.8657 6.26277 11.0267 6.55633C11.1877 6.84752 11.2682 7.17068 11.2682 7.52579C11.2682 7.83829 11.2125 8.09634 11.1013 8.29994C10.9924 8.50354 10.8479 8.66452 10.668 8.78289C10.4905 8.90126 10.2975 8.98886 10.0892 9.04568V9.1167C10.3117 9.1309 10.5354 9.20903 10.7603 9.35107C10.9852 9.49312 11.1735 9.69672 11.325 9.96187C11.4765 10.227 11.5522 10.5514 11.5522 10.9349C11.5522 11.2995 11.4694 11.6274 11.3037 11.9185C11.1379 12.2097 10.8763 12.4406 10.5189 12.611C10.1614 12.7815 9.69619 12.8667 9.12327 12.8667H6.49543ZM7.37611 12.0854H9.12327C9.69855 12.0854 10.1069 11.9742 10.3484 11.7516C10.5923 11.5267 10.7142 11.2545 10.7142 10.9349C10.7142 10.6887 10.6514 10.4614 10.526 10.2531C10.4005 10.0424 10.2218 9.87427 9.98975 9.7488C9.75774 9.62096 9.48312 9.55704 9.16588 9.55704H7.37611V12.0854ZM7.37611 8.78999H9.00963C9.27478 8.78999 9.51389 8.73791 9.72696 8.63374C9.9424 8.52958 10.1129 8.3828 10.2383 8.1934C10.3662 8.00401 10.4301 7.78147 10.4301 7.52579C10.4301 7.20619 10.3188 6.93512 10.0963 6.71258C9.87374 6.48767 9.521 6.37522 9.03804 6.37522H7.37611V8.78999Z" fill="white"/>
</g>
<defs>
<clipPath id="clip0_23_907">
<rect width="17.7334" height="17.7334" fill="white"/>
</clipPath>
</defs>
</svg>
