<svg width="18" height="18" viewBox="0 0 18 18" fill="none" xmlns="http://www.w3.org/2000/svg">
<path d="M13 1H5C2.79086 1 1 2.79086 1 5V13C1 15.2091 2.79086 17 5 17H13C15.2091 17 17 15.2091 17 13V5C17 2.79086 15.2091 1 13 1Z" stroke="white" stroke-width="2"/>
<path d="M6.19074 12V8.18182H6.77739V12H6.19074ZM6.48904 7.54545C6.37469 7.54545 6.27609 7.50651 6.19323 7.42862C6.11202 7.35073 6.07142 7.2571 6.07142 7.14773C6.07142 7.03835 6.11202 6.94472 6.19323 6.86683C6.27609 6.78894 6.37469 6.75 6.48904 6.75C6.60338 6.75 6.70116 6.78894 6.78236 6.86683C6.86522 6.94472 6.90665 7.03835 6.90665 7.14773C6.90665 7.2571 6.86522 7.35073 6.78236 7.42862C6.70116 7.50651 6.60338 7.54545 6.48904 7.54545ZM9.50244 12H7.93142V6.90909H9.57204C10.0659 6.90909 10.4885 7.01101 10.8398 7.21484C11.1911 7.41702 11.4604 7.70786 11.6477 8.08736C11.8349 8.4652 11.9286 8.91761 11.9286 9.4446C11.9286 9.97491 11.8341 10.4315 11.6452 10.8143C11.4563 11.1954 11.1812 11.4888 10.8199 11.6942C10.4586 11.8981 10.0195 12 9.50244 12ZM8.5479 11.4531H9.46267C9.8836 11.4531 10.2324 11.3719 10.5092 11.2095C10.7859 11.0471 10.9923 10.8159 11.1282 10.516C11.264 10.216 11.332 9.8589 11.332 9.4446C11.332 9.03362 11.2649 8.67981 11.1306 8.38317C10.9964 8.08487 10.7959 7.85618 10.5291 7.69709C10.2623 7.53634 9.93 7.45597 9.53227 7.45597H8.5479V11.4531Z" fill="white"/>
</svg>
