<svg width="24" height="24" viewBox="0 0 24 24" fill="none" xmlns="http://www.w3.org/2000/svg">
<g clip-path="url(#clip0_23_995)">
<path d="M18 0H6C2.68629 0 0 2.68629 0 6V18C0 21.3137 2.68629 24 6 24H18C21.3137 24 24 21.3137 24 18V6C24 2.68629 21.3137 0 18 0Z" fill="#2D8CFF"/>
<path d="M9.43786 15V10.6364H10.1083V15H9.43786ZM9.77876 9.90909C9.64808 9.90909 9.53539 9.86458 9.4407 9.77557C9.34789 9.68655 9.30149 9.57955 9.30149 9.45455C9.30149 9.32955 9.34789 9.22254 9.4407 9.13352C9.53539 9.04451 9.64808 9 9.77876 9C9.90945 9 10.0212 9.04451 10.114 9.13352C10.2087 9.22254 10.256 9.32955 10.256 9.45455C10.256 9.57955 10.2087 9.68655 10.114 9.77557C10.0212 9.86458 9.90945 9.90909 9.77876 9.90909ZM11.7681 16.6364C11.6545 16.6364 11.5531 16.6269 11.4641 16.608C11.3751 16.5909 11.3136 16.5739 11.2795 16.5568L11.4499 15.9659C11.6128 16.0076 11.7567 16.0227 11.8817 16.0114C12.0067 16 12.1175 15.9441 12.2141 15.8438C12.3126 15.7453 12.4026 15.5852 12.484 15.3636L12.609 15.0227L10.9954 10.6364H11.7227L12.9272 14.1136H12.9727L14.1772 10.6364H14.9045L13.0522 15.6364C12.9689 15.8617 12.8656 16.0483 12.7425 16.196C12.6194 16.3456 12.4764 16.4564 12.3136 16.5284C12.1526 16.6004 11.9708 16.6364 11.7681 16.6364Z" fill="white"/>
</g>
<defs>
<clipPath id="clip0_23_995">
<rect width="24" height="24" fill="white"/>
</clipPath>
</defs>
</svg>
