<svg width="24" height="24" viewBox="0 0 24 24" fill="none" xmlns="http://www.w3.org/2000/svg">
<g clip-path="url(#clip0_23_1113)">
<path d="M18 0H6C2.68629 0 0 2.68629 0 6V18C0 21.3137 2.68629 24 6 24H18C21.3137 24 24 21.3137 24 18V6C24 2.68629 21.3137 0 18 0Z" fill="#F9B233"/>
<path d="M6.56001 15V9.18182H10.0487V9.80682H7.26456V11.7727H9.78729V12.3977H7.26456V15H6.56001ZM12.3121 15L10.7212 9.18182H11.4371L12.6531 13.9205H12.7099L13.9485 9.18182H14.744L15.9826 13.9205H16.0394L17.2553 9.18182H17.9712L16.3803 15H15.6531L14.369 10.3636H14.3235L13.0394 15H12.3121Z" fill="#003A8F"/>
</g>
<defs>
<clipPath id="clip0_23_1113">
<rect width="24" height="24" fill="white"/>
</clipPath>
</defs>
</svg>
