<svg width="24" height="24" viewBox="0 0 24 24" fill="none" xmlns="http://www.w3.org/2000/svg">
<g clip-path="url(#clip0_23_1024)">
<path d="M18 0H6C2.68629 0 0 2.68629 0 6V18C0 21.3137 2.68629 24 6 24H18C21.3137 24 24 21.3137 24 18V6C24 2.68629 21.3137 0 18 0Z" fill="#FFCC00"/>
<path d="M3.56783 9.18182H4.40874L6.38601 14.0114H6.45419L8.43146 9.18182H9.27237V15H8.61328V10.5795H8.55646L6.73828 15H6.10192L4.28374 10.5795H4.22692V15H3.56783V9.18182ZM10.3668 9.80682V9.18182H14.7305V9.80682H12.9009V15H12.1964V9.80682H10.3668ZM20.4315 9.18182V15H19.7496L16.5792 10.4318H16.5224V15H15.8178V9.18182H16.4996L19.6815 13.7614H19.7383V9.18182H20.4315Z" fill="black"/>
</g>
<defs>
<clipPath id="clip0_23_1024">
<rect width="24" height="24" fill="white"/>
</clipPath>
</defs>
</svg>
