<svg width="24" height="24" viewBox="0 0 24 24" fill="none" xmlns="http://www.w3.org/2000/svg">
<g clip-path="url(#clip0_23_1038)">
<path d="M18 0H6C2.68629 0 0 2.68629 0 6V18C0 21.3137 2.68629 24 6 24H18C21.3137 24 24 21.3137 24 18V6C24 2.68629 21.3137 0 18 0Z" fill="#FFCC00"/>
<path d="M12 17C16.9706 17 21 14.7614 21 12C21 9.23858 16.9706 7 12 7C7.02944 7 3 9.23858 3 12C3 14.7614 7.02944 17 12 17Z" fill="black"/>
<path d="M5.67587 9.63636H6.30655L7.78951 13.2585H7.84064L9.3236 9.63636H9.95428V14H9.45996V10.6847H9.41735L8.05371 14H7.57644L6.2128 10.6847H6.17019V14H5.67587V9.63636ZM10.7751 10.1051V9.63636H14.0479V10.1051H12.6757V14H12.1473V10.1051H10.7751ZM18.3236 9.63636V14H17.8122L15.4344 10.5739H15.3918V14H14.8634V9.63636H15.3747L17.7611 13.071H17.8037V9.63636H18.3236Z" fill="white"/>
</g>
<defs>
<clipPath id="clip0_23_1038">
<rect width="24" height="24" fill="white"/>
</clipPath>
</defs>
</svg>
