<svg width="24" height="24" viewBox="0 0 24 24" fill="none" xmlns="http://www.w3.org/2000/svg">
<g clip-path="url(#clip0_23_1002)">
<path d="M18 0H6C2.68629 0 0 2.68629 0 6V18C0 21.3137 2.68629 24 6 24H18C21.3137 24 24 21.3137 24 18V6C24 2.68629 21.3137 0 18 0Z" fill="#00A651"/>
<path d="M7.28103 9.90909H8.01682L9.74694 14.1349H9.8066L11.5367 9.90909H12.2725V15H11.6958V11.1321H11.6461L10.0552 15H9.49836L7.90745 11.1321H7.85773V15H7.28103V9.90909ZM13.5086 15V9.90909H15.2287C15.6281 9.90909 15.9546 9.98118 16.2081 10.1254C16.4633 10.2679 16.6523 10.4609 16.7749 10.7045C16.8975 10.9482 16.9589 11.2199 16.9589 11.5199C16.9589 11.8198 16.8975 12.0924 16.7749 12.3377C16.6539 12.583 16.4667 12.7785 16.2131 12.9244C15.9596 13.0685 15.6348 13.1406 15.2387 13.1406H14.0057V12.5938H15.2188C15.4922 12.5938 15.7118 12.5465 15.8775 12.4521C16.0432 12.3576 16.1634 12.23 16.238 12.0692C16.3142 11.9068 16.3523 11.7237 16.3523 11.5199C16.3523 11.3161 16.3142 11.1338 16.238 10.973C16.1634 10.8123 16.0424 10.6863 15.875 10.5952C15.7077 10.5024 15.4856 10.456 15.2089 10.456H14.125V15H13.5086Z" fill="white"/>
</g>
<defs>
<clipPath id="clip0_23_1002">
<rect width="24" height="24" fill="white"/>
</clipPath>
</defs>
</svg>
