<svg width="24" height="24" viewBox="0 0 24 24" fill="none" xmlns="http://www.w3.org/2000/svg">
<g clip-path="url(#clip0_23_1069)">
<path d="M18 0H6C2.68629 0 0 2.68629 0 6V18C0 21.3137 2.68629 24 6 24H18C21.3137 24 24 21.3137 24 18V6C24 2.68629 21.3137 0 18 0Z" fill="#F5A623"/>
<path d="M10.8822 10.6364V15H10.3708L7.99299 11.5739H7.95037V15H7.42196V10.6364H7.93333L10.3197 14.071H10.3623V10.6364H10.8822ZM12.7322 15L11.539 10.6364H12.0759L12.9878 14.1903H13.0305L13.9594 10.6364H14.556L15.485 14.1903H15.5276L16.4395 10.6364H16.9765L15.7833 15H15.2378L14.2748 11.5227H14.2407L13.2776 15H12.7322Z" fill="white"/>
</g>
<defs>
<clipPath id="clip0_23_1069">
<rect width="24" height="24" fill="white"/>
</clipPath>
</defs>
</svg>
