<svg width="24" height="24" viewBox="0 0 24 24" fill="none" xmlns="http://www.w3.org/2000/svg">
<g clip-path="url(#clip0_23_1142)">
<path d="M18 0H6C2.68629 0 0 2.68629 0 6V18C0 21.3137 2.68629 24 6 24H18C21.3137 24 24 21.3137 24 18V6C24 2.68629 21.3137 0 18 0Z" fill="#8A05BE"/>
<path d="M11.3416 9.18182V15H10.6598L7.48935 10.4318H7.43253V15H6.72798V9.18182H7.4098L10.5916 13.7614H10.6484V9.18182H11.3416ZM16.5696 9.18182H17.2741V13.0341C17.2741 13.4318 17.1804 13.7869 16.9929 14.0994C16.8073 14.41 16.545 14.6553 16.206 14.8352C15.867 15.0133 15.4692 15.1023 15.0128 15.1023C14.5563 15.1023 14.1586 15.0133 13.8196 14.8352C13.4806 14.6553 13.2173 14.41 13.0298 14.0994C12.8442 13.7869 12.7514 13.4318 12.7514 13.0341V9.18182H13.456V12.9773C13.456 13.2614 13.5185 13.5142 13.6435 13.7358C13.7685 13.9555 13.9465 14.1288 14.1776 14.2557C14.4105 14.3807 14.6889 14.4432 15.0128 14.4432C15.3366 14.4432 15.6151 14.3807 15.848 14.2557C16.081 14.1288 16.259 13.9555 16.3821 13.7358C16.5071 13.5142 16.5696 13.2614 16.5696 12.9773V9.18182Z" fill="white"/>
</g>
<defs>
<clipPath id="clip0_23_1142">
<rect width="24" height="24" fill="white"/>
</clipPath>
</defs>
</svg>
