<svg width="24" height="24" viewBox="0 0 24 24" fill="none" xmlns="http://www.w3.org/2000/svg">
<g clip-path="url(#clip0_23_1009)">
<path d="M24 12C24 5.37258 18.6274 0 12 0C5.37258 0 0 5.37258 0 12C0 18.6274 5.37258 24 12 24C18.6274 24 24 18.6274 24 12Z" fill="#1DC45A"/>
<path d="M14.7234 12.0909C14.7234 12.7254 14.6031 13.2652 14.3626 13.7102C14.1239 14.1553 13.7982 14.4953 13.3853 14.7301C12.9743 14.9631 12.5122 15.0795 11.9989 15.0795C11.4819 15.0795 11.0179 14.9621 10.6069 14.7273C10.1959 14.4924 9.87109 14.1525 9.63246 13.7074C9.39382 13.2623 9.2745 12.7235 9.2745 12.0909C9.2745 11.4564 9.39382 10.9167 9.63246 10.4716C9.87109 10.0265 10.1959 9.6875 10.6069 9.45455C11.0179 9.2197 11.4819 9.10227 11.9989 9.10227C12.5122 9.10227 12.9743 9.2197 13.3853 9.45455C13.7982 9.6875 14.1239 10.0265 14.3626 10.4716C14.6031 10.9167 14.7234 11.4564 14.7234 12.0909ZM13.4762 12.0909C13.4762 11.6799 13.4147 11.3333 13.2915 11.0511C13.1703 10.7689 12.9989 10.5549 12.7773 10.4091C12.5558 10.2633 12.2963 10.1903 11.9989 10.1903C11.7016 10.1903 11.4421 10.2633 11.2205 10.4091C10.9989 10.5549 10.8266 10.7689 10.7035 11.0511C10.5823 11.3333 10.5217 11.6799 10.5217 12.0909C10.5217 12.5019 10.5823 12.8485 10.7035 13.1307C10.8266 13.4129 10.9989 13.6269 11.2205 13.7727C11.4421 13.9186 11.7016 13.9915 11.9989 13.9915C12.2963 13.9915 12.5558 13.9186 12.7773 13.7727C12.9989 13.6269 13.1703 13.4129 13.2915 13.1307C13.4147 12.8485 13.4762 12.5019 13.4762 12.0909Z" fill="white"/>
</g>
<defs>
<clipPath id="clip0_23_1009">
<rect width="24" height="24" fill="white"/>
</clipPath>
</defs>
</svg>
