<svg width="24" height="24" viewBox="0 0 24 24" fill="none" xmlns="http://www.w3.org/2000/svg">
<g clip-path="url(#clip0_23_1207)">
<path d="M18 0H6C2.68629 0 0 2.68629 0 6V18C0 21.3137 2.68629 24 6 24H18C21.3137 24 24 21.3137 24 18V6C24 2.68629 21.3137 0 18 0Z" fill="#00AEEF"/>
<path d="M6.49885 16V8.72727H8.95623C9.52678 8.72727 9.99316 8.83026 10.3554 9.03622C10.72 9.23982 10.9898 9.51562 11.165 9.86364C11.3402 10.2116 11.4278 10.5999 11.4278 11.0284C11.4278 11.4569 11.3402 11.8464 11.165 12.1967C10.9922 12.5471 10.7247 12.8265 10.3625 13.0348C10.0003 13.2408 9.53625 13.3438 8.97044 13.3438H7.20907V12.5625H8.94203C9.33265 12.5625 9.64634 12.495 9.88308 12.3601C10.1198 12.2251 10.2915 12.0429 10.398 11.8132C10.5069 11.5812 10.5613 11.3196 10.5613 11.0284C10.5613 10.7372 10.5069 10.4768 10.398 10.2472C10.2915 10.0175 10.1186 9.83759 9.87953 9.70739C9.64042 9.57481 9.32318 9.50852 8.92782 9.50852H7.37953V16H6.49885ZM13.2726 8.72727L15.1476 11.7528H15.2045L17.0795 8.72727H18.1164L15.8295 12.3636L18.1164 16H17.0795L15.2045 13.0312H15.1476L13.2726 16H12.2357L14.5795 12.3636L12.2357 8.72727H13.2726Z" fill="white"/>
</g>
<defs>
<clipPath id="clip0_23_1207">
<rect width="24" height="24" fill="white"/>
</clipPath>
</defs>
</svg>
