<svg width="24" height="24" viewBox="0 0 24 24" fill="none" xmlns="http://www.w3.org/2000/svg">
<g clip-path="url(#clip0_23_1149)">
<path d="M18 0H6C2.68629 0 0 2.68629 0 6V18C0 21.3137 2.68629 24 6 24H18C21.3137 24 24 21.3137 24 18V6C24 2.68629 21.3137 0 18 0Z" fill="#21C25E"/>
<path d="M10.1655 15V9.18182H12.1314C12.5878 9.18182 12.9609 9.2642 13.2507 9.42898C13.5424 9.59186 13.7583 9.8125 13.8984 10.0909C14.0386 10.3693 14.1087 10.6799 14.1087 11.0227C14.1087 11.3655 14.0386 11.6771 13.8984 11.9574C13.7602 12.2377 13.5462 12.4612 13.2564 12.6278C12.9666 12.7926 12.5954 12.875 12.1428 12.875H10.7337V12.25H12.12C12.4325 12.25 12.6835 12.196 12.8729 12.0881C13.0623 11.9801 13.1996 11.8343 13.2848 11.6506C13.3719 11.465 13.4155 11.2557 13.4155 11.0227C13.4155 10.7898 13.3719 10.5814 13.2848 10.3977C13.1996 10.214 13.0613 10.0701 12.87 9.96591C12.6787 9.85985 12.425 9.80682 12.1087 9.80682H10.87V15H10.1655Z" fill="white"/>
</g>
<defs>
<clipPath id="clip0_23_1149">
<rect width="24" height="24" fill="white"/>
</clipPath>
</defs>
</svg>
