<svg width="24" height="24" viewBox="0 0 24 24" fill="none" xmlns="http://www.w3.org/2000/svg">
<g clip-path="url(#clip0_23_1185)">
<path d="M18 0H6C2.68629 0 0 2.68629 0 6V18C0 21.3137 2.68629 24 6 24H18C21.3137 24 24 21.3137 24 18V6C24 2.68629 21.3137 0 18 0Z" fill="#00AEEF"/>
<path d="M9.70685 15V7.72727H12.1642C12.7348 7.72727 13.2012 7.83026 13.5634 8.03622C13.928 8.23982 14.1979 8.51562 14.373 8.86364C14.5482 9.21165 14.6358 9.59991 14.6358 10.0284C14.6358 10.4569 14.5482 10.8464 14.373 11.1967C14.2002 11.5471 13.9327 11.8265 13.5705 12.0348C13.2083 12.2408 12.7443 12.3438 12.1784 12.3438H10.4171V11.5625H12.15C12.5407 11.5625 12.8543 11.495 13.0911 11.3601C13.3278 11.2251 13.4995 11.0429 13.606 10.8132C13.7149 10.5812 13.7694 10.3196 13.7694 10.0284C13.7694 9.73722 13.7149 9.4768 13.606 9.24716C13.4995 9.01752 13.3266 8.83759 13.0875 8.70739C12.8484 8.57481 12.5312 8.50852 12.1358 8.50852H10.5875V15H9.70685Z" fill="white"/>
</g>
<defs>
<clipPath id="clip0_23_1185">
<rect width="24" height="24" fill="white"/>
</clipPath>
</defs>
</svg>
