<svg width="20" height="20" viewBox="0 0 20 20" fill="none" xmlns="http://www.w3.org/2000/svg">
<path d="M10 20C15.5228 20 20 15.5228 20 10C20 4.47715 15.5228 0 10 0C4.47715 0 0 4.47715 0 10C0 15.5228 4.47715 20 10 20Z" fill="#F7931A"/>
<path d="M8 5H12C12.5304 5 13.0391 5.21071 13.4142 5.58579C13.7893 5.96086 14 6.46957 14 7C14 7.53043 13.7893 8.03914 13.4142 8.41421C13.0391 8.78929 12.5304 9 12 9H8V5ZM8 9H13C13.5304 9 14.0391 9.21071 14.4142 9.58579C14.7893 9.96086 15 10.4696 15 11C15 11.5304 14.7893 12.0391 14.4142 12.4142C14.0391 12.7893 13.5304 13 13 13H8V9Z" fill="white"/>
</svg>
