<svg width="24" height="24" viewBox="0 0 24 24" fill="none" xmlns="http://www.w3.org/2000/svg">
<g clip-path="url(#clip0_23_1017)">
<path d="M22 0H2C0.89543 0 0 0.89543 0 2V22C0 23.1046 0.89543 24 2 24H22C23.1046 24 24 23.1046 24 22V2C24 0.89543 23.1046 0 22 0Z" fill="#FF7900"/>
<path d="M11.0082 12.0909C11.0082 12.7045 10.8974 13.2348 10.6758 13.6818C10.4542 14.1288 10.1502 14.4735 9.76385 14.7159C9.37749 14.9583 8.9362 15.0795 8.43999 15.0795C7.94377 15.0795 7.50249 14.9583 7.11612 14.7159C6.72976 14.4735 6.42578 14.1288 6.20419 13.6818C5.9826 13.2348 5.8718 12.7045 5.8718 12.0909C5.8718 11.4773 5.9826 10.947 6.20419 10.5C6.42578 10.053 6.72976 9.70833 7.11612 9.46591C7.50249 9.22348 7.94377 9.10227 8.43999 9.10227C8.9362 9.10227 9.37749 9.22348 9.76385 9.46591C10.1502 9.70833 10.4542 10.053 10.6758 10.5C10.8974 10.947 11.0082 11.4773 11.0082 12.0909ZM10.3263 12.0909C10.3263 11.5871 10.2421 11.1619 10.0735 10.8153C9.90684 10.4688 9.68052 10.2064 9.39453 10.0284C9.11044 9.85038 8.79226 9.76136 8.43999 9.76136C8.08771 9.76136 7.76858 9.85038 7.4826 10.0284C7.19851 10.2064 6.97218 10.4688 6.80362 10.8153C6.63696 11.1619 6.55362 11.5871 6.55362 12.0909C6.55362 12.5947 6.63696 13.0199 6.80362 13.3665C6.97218 13.7131 7.19851 13.9754 7.4826 14.1534C7.76858 14.3314 8.08771 14.4205 8.43999 14.4205C8.79226 14.4205 9.11044 14.3314 9.39453 14.1534C9.68052 13.9754 9.90684 13.7131 10.0735 13.3665C10.2421 13.0199 10.3263 12.5947 10.3263 12.0909ZM12.1928 9.18182H13.0337L15.011 14.0114H15.0792L17.0565 9.18182H17.8974V15H17.2383V10.5795H17.1815L15.3633 15H14.7269L12.9087 10.5795H12.8519V15H12.1928V9.18182Z" fill="black"/>
</g>
<defs>
<clipPath id="clip0_23_1017">
<rect width="24" height="24" fill="white"/>
</clipPath>
</defs>
</svg>
