<svg width="24" height="24" viewBox="0 0 24 24" fill="none" xmlns="http://www.w3.org/2000/svg">
<g clip-path="url(#clip0_23_1214)">
<path d="M24 12C24 5.37258 18.6274 0 12 0C5.37258 0 0 5.37258 0 12C0 18.6274 5.37258 24 12 24C18.6274 24 24 18.6274 24 12Z" fill="#6C2BD9"/>
<path d="M8.84437 9.72727V17H7.96369V9.72727H8.84437ZM12.8545 17H10.6102V9.72727H12.9539C13.6594 9.72727 14.2631 9.87287 14.765 10.1641C15.2669 10.4529 15.6516 10.8684 15.9191 11.4105C16.1866 11.9503 16.3204 12.5966 16.3204 13.3494C16.3204 14.107 16.1855 14.7592 15.9156 15.3061C15.6457 15.8506 15.2527 16.2696 14.7366 16.5632C14.2205 16.8544 13.5931 17 12.8545 17ZM11.4909 16.2188H12.7977C13.399 16.2188 13.8973 16.1027 14.2927 15.8707C14.6881 15.6387 14.9828 15.3085 15.1769 14.88C15.3711 14.4515 15.4681 13.9413 15.4681 13.3494C15.4681 12.7623 15.3722 12.2569 15.1805 11.8331C14.9887 11.407 14.7023 11.0803 14.3211 10.853C13.94 10.6233 13.4653 10.5085 12.8971 10.5085H11.4909V16.2188Z" fill="white"/>
</g>
<defs>
<clipPath id="clip0_23_1214">
<rect width="24" height="24" fill="white"/>
</clipPath>
</defs>
</svg>
