<svg width="24" height="24" viewBox="0 0 24 24" fill="none" xmlns="http://www.w3.org/2000/svg">
<g clip-path="url(#clip0_23_988)">
<path d="M18 0H6C2.68629 0 0 2.68629 0 6V18C0 21.3137 2.68629 24 6 24H18C21.3137 24 24 21.3137 24 18V6C24 2.68629 21.3137 0 18 0Z" fill="#FF5A3C"/>
<path d="M13.3356 10.6364C13.3015 10.3485 13.1632 10.125 12.9208 9.96591C12.6784 9.80682 12.381 9.72727 12.0288 9.72727C11.7712 9.72727 11.5458 9.76894 11.3526 9.85227C11.1613 9.93561 11.0117 10.0502 10.9038 10.196C10.7977 10.3419 10.7447 10.5076 10.7447 10.6932C10.7447 10.8485 10.7816 10.982 10.8555 11.0938C10.9312 11.2036 11.0278 11.2955 11.1452 11.3693C11.2627 11.4413 11.3858 11.5009 11.5146 11.5483C11.6433 11.5937 11.7617 11.6307 11.8697 11.6591L12.4606 11.8182C12.6121 11.858 12.7807 11.9129 12.9663 11.983C13.1538 12.053 13.3327 12.1487 13.5032 12.2699C13.6755 12.3892 13.8176 12.5426 13.9293 12.7301C14.0411 12.9176 14.0969 13.1477 14.0969 13.4205C14.0969 13.7348 14.0146 14.0189 13.8498 14.2727C13.6869 14.5265 13.4483 14.7282 13.1339 14.8778C12.8214 15.0275 12.4416 15.1023 11.9947 15.1023C11.578 15.1023 11.2172 15.035 10.9123 14.9006C10.6093 14.7661 10.3706 14.5786 10.1964 14.3381C10.024 14.0975 9.92649 13.8182 9.90376 13.5H10.631C10.65 13.7197 10.7238 13.9015 10.8526 14.0455C10.9833 14.1875 11.1481 14.2936 11.3469 14.3636C11.5477 14.4318 11.7636 14.4659 11.9947 14.4659C12.2636 14.4659 12.5051 14.4223 12.7191 14.3352C12.9331 14.2462 13.1026 14.1231 13.2276 13.9659C13.3526 13.8068 13.4151 13.6212 13.4151 13.4091C13.4151 13.2159 13.3612 13.0587 13.2532 12.9375C13.1452 12.8163 13.0032 12.7178 12.8271 12.642C12.6509 12.5663 12.4606 12.5 12.256 12.4432L11.5401 12.2386C11.0856 12.108 10.7257 11.9214 10.4606 11.679C10.1954 11.4366 10.0629 11.1193 10.0629 10.7273C10.0629 10.4015 10.1509 10.1174 10.3271 9.875C10.5051 9.63068 10.7437 9.44129 11.043 9.30682C11.3441 9.17045 11.6803 9.10227 12.0515 9.10227C12.4265 9.10227 12.7598 9.16951 13.0515 9.30398C13.3432 9.43655 13.5742 9.61837 13.7447 9.84943C13.917 10.0805 14.0079 10.3428 14.0174 10.6364H13.3356Z" fill="white"/>
</g>
<defs>
<clipPath id="clip0_23_988">
<rect width="24" height="24" fill="white"/>
</clipPath>
</defs>
</svg>
