<svg width="24" height="24" viewBox="0 0 24 24" fill="none" xmlns="http://www.w3.org/2000/svg">
<g clip-path="url(#clip0_23_1084)">
<path d="M18 0H6C2.68629 0 0 2.68629 0 6V18C0 21.3137 2.68629 24 6 24H18C21.3137 24 24 21.3137 24 18V6C24 2.68629 21.3137 0 18 0Z" fill="#6A1B9A"/>
<path d="M8.4826 11.1818C8.45277 10.9299 8.33179 10.7344 8.11967 10.5952C7.90755 10.456 7.64737 10.3864 7.33913 10.3864C7.11375 10.3864 6.91655 10.4228 6.74751 10.4957C6.58014 10.5687 6.44922 10.6689 6.35476 10.7965C6.26196 10.9241 6.21555 11.0691 6.21555 11.2315C6.21555 11.3674 6.24787 11.4843 6.3125 11.582C6.37879 11.6781 6.4633 11.7585 6.56605 11.8232C6.6688 11.8861 6.77652 11.9383 6.8892 11.9798C7.00189 12.0195 7.10547 12.0518 7.19993 12.0767L7.71697 12.2159C7.84955 12.2507 7.99704 12.2988 8.15945 12.3601C8.32351 12.4214 8.48011 12.5051 8.62926 12.6112C8.78007 12.7156 8.90436 12.8498 9.00213 13.0138C9.09991 13.1779 9.14879 13.3793 9.14879 13.6179C9.14879 13.893 9.0767 14.1416 8.93253 14.3636C8.79001 14.5857 8.5812 14.7622 8.30611 14.8931C8.03267 15.024 7.7004 15.0895 7.3093 15.0895C6.94472 15.0895 6.62902 15.0307 6.36222 14.913C6.09706 14.7953 5.88826 14.6313 5.7358 14.4208C5.58499 14.2103 5.49964 13.9659 5.47976 13.6875H6.11612C6.13269 13.8797 6.19732 14.0388 6.31001 14.1648C6.42436 14.2891 6.56854 14.3819 6.74254 14.4432C6.91821 14.5028 7.10713 14.5327 7.3093 14.5327C7.54463 14.5327 7.75592 14.4946 7.94318 14.4183C8.13045 14.3404 8.27876 14.2327 8.38814 14.0952C8.49751 13.956 8.5522 13.7936 8.5522 13.608C8.5522 13.4389 8.50497 13.3014 8.41051 13.1953C8.31605 13.0893 8.19176 13.0031 8.03764 12.9368C7.88352 12.8705 7.71697 12.8125 7.538 12.7628L6.91158 12.5838C6.51385 12.4695 6.19898 12.3062 5.96697 12.0941C5.73497 11.882 5.61896 11.6044 5.61896 11.2614C5.61896 10.9763 5.69602 10.7277 5.85014 10.5156C6.00592 10.3018 6.21473 10.1361 6.47656 10.0185C6.74006 9.89915 7.03421 9.83949 7.35902 9.83949C7.68714 9.83949 7.97881 9.89832 8.23402 10.016C8.48923 10.132 8.69141 10.2911 8.84055 10.4933C8.99136 10.6954 9.0709 10.925 9.07919 11.1818H8.4826ZM9.88397 10.456V9.90909H13.7021V10.456H12.1013V15H11.4848V10.456H9.88397ZM18.5383 11.5H17.9218C17.8853 11.3227 17.8215 11.1669 17.7304 11.0327C17.6409 10.8984 17.5315 10.7857 17.4023 10.6946C17.2747 10.6018 17.133 10.5322 16.9772 10.4858C16.8214 10.4394 16.659 10.4162 16.49 10.4162C16.1817 10.4162 15.9025 10.4941 15.6523 10.6499C15.4037 10.8056 15.2056 11.0352 15.0581 11.3384C14.9123 11.6417 14.8394 12.0137 14.8394 12.4545C14.8394 12.8954 14.9123 13.2674 15.0581 13.5707C15.2056 13.8739 15.4037 14.1035 15.6523 14.2592C15.9025 14.415 16.1817 14.4929 16.49 14.4929C16.659 14.4929 16.8214 14.4697 16.9772 14.4233C17.133 14.3769 17.2747 14.3081 17.4023 14.217C17.5315 14.1242 17.6409 14.0107 17.7304 13.8764C17.8215 13.7405 17.8853 13.5848 17.9218 13.4091H18.5383C18.4919 13.6693 18.4073 13.9021 18.2847 14.1076C18.1621 14.3131 18.0096 14.4879 17.8273 14.6321C17.645 14.7746 17.4404 14.8832 17.2133 14.9577C16.988 15.0323 16.7468 15.0696 16.49 15.0696C16.0558 15.0696 15.6697 14.9635 15.3316 14.7514C14.9935 14.5393 14.7275 14.2377 14.5336 13.8466C14.3398 13.4555 14.2428 12.9915 14.2428 12.4545C14.2428 11.9176 14.3398 11.4536 14.5336 11.0625C14.7275 10.6714 14.9935 10.3698 15.3316 10.1577C15.6697 9.94555 16.0558 9.83949 16.49 9.83949C16.7468 9.83949 16.988 9.87678 17.2133 9.95135C17.4404 10.0259 17.645 10.1353 17.8273 10.2795C18.0096 10.422 18.1621 10.596 18.2847 10.8015C18.4073 11.0053 18.4919 11.2382 18.5383 11.5Z" fill="white"/>
</g>
<defs>
<clipPath id="clip0_23_1084">
<rect width="24" height="24" fill="white"/>
</clipPath>
</defs>
</svg>
