<svg width="24" height="24" viewBox="0 0 24 24" fill="none" xmlns="http://www.w3.org/2000/svg">
<g clip-path="url(#clip0_23_980)">
<path d="M18 0H6C2.68629 0 0 2.68629 0 6V18C0 21.3137 2.68629 24 6 24H18C21.3137 24 24 21.3137 24 18V6C24 2.68629 21.3137 0 18 0Z" fill="#6F2C91"/>
<path d="M6.28422 10.7965V9.90909H10.4653V10.7965H8.90674V15H7.84282V10.7965H6.28422ZM12.2998 15L10.8432 9.90909H12.019L12.8616 13.4464H12.9039L13.8336 9.90909H14.8403L15.7675 13.4538H15.8123L16.655 9.90909H17.8307L16.3741 15H15.3251L14.3556 11.6715H14.3158L13.3489 15H12.2998Z" fill="white"/>
</g>
<defs>
<clipPath id="clip0_23_980">
<rect width="24" height="24" fill="white"/>
</clipPath>
</defs>
</svg>
