<svg width="32" height="32" viewBox="0 0 32 32" fill="none" xmlns="http://www.w3.org/2000/svg">
<path d="M18.6667 14.6667H8M18.6667 14.6667H19.3333M18.6667 14.6667H19.3333M8 14.6667V8H13.3333M8 14.6667V24H13.3333M13.3333 8V4M13.3333 8H17.3333M17.3333 8H19.3333C21.1743 8 22.6667 9.49238 22.6667 11.3333C22.6667 13.1743 21.1743 14.6667 19.3333 14.6667M17.3333 8V4M13.3333 24H17.3333M13.3333 24V28M17.3333 24H19.3333C21.9107 24 24 21.9107 24 19.3333C24 16.756 21.9107 14.6667 19.3333 14.6667M17.3333 24V28" stroke="black" stroke-width="2"/>
</svg>
