<svg width="24" height="24" viewBox="0 0 24 24" fill="none" xmlns="http://www.w3.org/2000/svg">
<g clip-path="url(#clip0_36_8284)">
<path d="M23.9996 13.031C23.8777 13.3954 23.7938 13.6926 23.5346 13.9419C23.4507 14.0282 23.0695 14.2679 22.9933 14.2679H20.5308C20.5384 14.5364 20.4545 14.7953 20.4317 15.0638C20.2868 17.5184 20.546 20.184 20.4317 22.6674C20.3707 23.2715 20.0123 23.6838 19.5702 23.8852C18.1826 23.8468 16.4825 24.1249 15.1178 23.9427C14.4774 23.8564 14.0733 23.214 14.02 22.4373C13.9056 20.8936 14.3173 17.8924 13.6845 16.6746C12.8383 15.0542 10.8256 15.2459 10.1699 17.0102C9.75822 18.1225 10.086 20.9894 9.98693 22.3798C9.92594 23.2044 9.53712 23.8756 8.84335 23.9523C7.49392 24.1057 5.9539 23.8372 4.5816 23.9523C4.0403 23.866 3.52187 23.1468 3.52187 22.4565V14.2967H1.01362C0.678164 14.2967 0.182612 13.6926 0.0758772 13.2899C-0.244326 12.0913 0.487567 11.5448 1.1051 10.8736C4.391 7.32584 7.81412 4.00822 11.0924 0.479652C11.5498 -0.0381267 12.2131 -0.191543 12.7239 0.316648L16.0632 3.77809C16.1775 3.80686 16.1242 3.71097 16.1318 3.63427C16.1928 3.01101 16.452 2.49324 16.9475 2.30147C17.4126 2.11928 19.2195 2.12887 19.6921 2.30147C20.2258 2.49324 20.5003 3.17402 20.546 3.82604C20.6451 5.31225 20.4545 6.9423 20.5689 8.44769L23.5422 11.5448C23.8014 11.8037 23.9082 12.1297 24.0073 12.5228V13.0502L23.9996 13.031Z" fill="#606161"/>
</g>
<defs>
<clipPath id="clip0_36_8284">
<rect width="24" height="24" fill="white"/>
</clipPath>
</defs>
</svg>
