<svg width="20" height="20" viewBox="0 0 20 20" fill="none" xmlns="http://www.w3.org/2000/svg">
<path d="M10 20C15.5228 20 20 15.5228 20 10C20 4.47715 15.5228 0 10 0C4.47715 0 0 4.47715 0 10C0 15.5228 4.47715 20 10 20Z" fill="#8DC351"/>
<path d="M8.67987 6.09659V4.81818H9.26225V6.09659H8.67987ZM10.0435 6.09659V4.81818H10.6259V6.09659H10.0435ZM8.67987 13.9091V12.6307H9.26225V13.9091H8.67987ZM10.0435 13.9091V12.6307H10.6259V13.9091H10.0435ZM7.62873 13V5.72727H10.1713C10.678 5.72727 11.0958 5.81487 11.4249 5.99006C11.754 6.16288 11.999 6.39607 12.16 6.68963C12.321 6.98082 12.4015 7.30398 12.4015 7.65909C12.4015 7.97159 12.3458 8.22964 12.2346 8.43324C12.1257 8.63684 11.9812 8.79782 11.8013 8.91619C11.6238 9.03456 11.4308 9.12216 11.2225 9.17898V9.25C11.445 9.2642 11.6687 9.34233 11.8936 9.48438C12.1185 9.62642 12.3068 9.83002 12.4583 10.0952C12.6098 10.3603 12.6855 10.6847 12.6855 11.0682C12.6855 11.4328 12.6027 11.7607 12.437 12.0518C12.2712 12.343 12.0096 12.5739 11.6522 12.7443C11.2947 12.9148 10.8295 13 10.2566 13H7.62873ZM8.50941 12.2188H10.2566C10.8319 12.2188 11.2402 12.1075 11.4817 11.8849C11.7256 11.66 11.8475 11.3878 11.8475 11.0682C11.8475 10.822 11.7847 10.5947 11.6593 10.3864C11.5338 10.1757 11.3551 10.0076 11.123 9.8821C10.891 9.75426 10.6164 9.69034 10.2992 9.69034H8.50941V12.2188ZM8.50941 8.9233H10.1429C10.4081 8.9233 10.6472 8.87121 10.8603 8.76705C11.0757 8.66288 11.2462 8.5161 11.3716 8.3267C11.4995 8.13731 11.5634 7.91477 11.5634 7.65909C11.5634 7.33949 11.4521 7.06842 11.2296 6.84588C11.007 6.62098 10.6543 6.50852 10.1713 6.50852H8.50941V8.9233Z" fill="white"/>
</svg>
