<svg width="20" height="20" viewBox="0 0 20 20" fill="none" xmlns="http://www.w3.org/2000/svg">
<path d="M10 20C15.5228 20 20 15.5228 20 10C20 4.47715 15.5228 0 10 0C4.47715 0 0 4.47715 0 10C0 15.5228 4.47715 20 10 20Z" fill="#F7931A"/>
<path d="M8.67987 7.09659V5.81818H9.26225V7.09659H8.67987ZM10.0435 7.09659V5.81818H10.6259V7.09659H10.0435ZM8.67987 14.9091V13.6307H9.26225V14.9091H8.67987ZM10.0435 14.9091V13.6307H10.6259V14.9091H10.0435ZM7.62873 14V6.72727H10.1713C10.678 6.72727 11.0958 6.81487 11.4249 6.99006C11.754 7.16288 11.999 7.39607 12.16 7.68963C12.321 7.98082 12.4015 8.30398 12.4015 8.65909C12.4015 8.97159 12.3458 9.22964 12.2346 9.43324C12.1257 9.63684 11.9812 9.79782 11.8013 9.91619C11.6238 10.0346 11.4308 10.1222 11.2225 10.179V10.25C11.445 10.2642 11.6687 10.3423 11.8936 10.4844C12.1185 10.6264 12.3068 10.83 12.4583 11.0952C12.6098 11.3603 12.6855 11.6847 12.6855 12.0682C12.6855 12.4328 12.6027 12.7607 12.437 13.0518C12.2712 13.343 12.0096 13.5739 11.6522 13.7443C11.2947 13.9148 10.8295 14 10.2566 14H7.62873ZM8.50941 13.2188H10.2566C10.8319 13.2188 11.2402 13.1075 11.4817 12.8849C11.7256 12.66 11.8475 12.3878 11.8475 12.0682C11.8475 11.822 11.7847 11.5947 11.6593 11.3864C11.5338 11.1757 11.3551 11.0076 11.123 10.8821C10.891 10.7543 10.6164 10.6903 10.2992 10.6903H8.50941V13.2188ZM8.50941 9.9233H10.1429C10.4081 9.9233 10.6472 9.87121 10.8603 9.76705C11.0757 9.66288 11.2462 9.5161 11.3716 9.3267C11.4995 9.13731 11.5634 8.91477 11.5634 8.65909C11.5634 8.33949 11.4521 8.06842 11.2296 7.84588C11.007 7.62098 10.6543 7.50852 10.1713 7.50852H8.50941V9.9233Z" fill="white"/>
</svg>
