<svg width="20" height="20" viewBox="0 0 20 20" fill="none" xmlns="http://www.w3.org/2000/svg">
<path d="M10 20C15.5228 20 20 15.5228 20 10C20 4.47715 15.5228 0 10 0C4.47715 0 0 4.47715 0 10C0 15.5228 4.47715 20 10 20Z" fill="#C2A633"/>
<path d="M9.53125 13H7.78409V12.2188H9.47443C10.0758 12.2188 10.5741 12.1027 10.9695 11.8707C11.3648 11.6387 11.6596 11.3085 11.8537 10.88C12.0478 10.4515 12.1449 9.94129 12.1449 9.34943C12.1449 8.76231 12.049 8.25687 11.8572 7.8331C11.6655 7.40696 11.379 7.08026 10.9979 6.85298C10.6167 6.62334 10.142 6.50852 9.57386 6.50852H7.74148V5.72727H9.63068C10.3362 5.72727 10.9399 5.87287 11.4418 6.16406C11.9437 6.45289 12.3284 6.86837 12.5959 7.41051C12.8634 7.95028 12.9972 8.59659 12.9972 9.34943C12.9972 10.107 12.8622 10.7592 12.5923 11.3061C12.3224 11.8506 11.9295 12.2696 11.4134 12.5632C10.8973 12.8544 10.2699 13 9.53125 13ZM8.16761 5.72727V13H7.28693V5.72727H8.16761ZM6.16477 9.5767V8.9233H9.28977V9.5767H6.16477Z" fill="white"/>
</svg>
