<svg width="20" height="20" viewBox="0 0 20 20" fill="none" xmlns="http://www.w3.org/2000/svg">
<path d="M10 20C15.5228 20 20 15.5228 20 10C20 4.47715 15.5228 0 10 0C4.47715 0 0 4.47715 0 10C0 15.5228 4.47715 20 10 20Z" fill="#2775CA"/>
<path d="M9.73833 13.8182V5.63636H10.2625V13.8182H9.73833ZM11.5025 8.09091C11.4642 7.76705 11.3086 7.51562 11.0359 7.33665C10.7632 7.15767 10.4287 7.06818 10.0324 7.06818C9.74259 7.06818 9.48904 7.11506 9.27171 7.20881C9.05651 7.30256 8.88818 7.43146 8.76673 7.59553C8.64742 7.75959 8.58776 7.94602 8.58776 8.15483C8.58776 8.32955 8.62931 8.47976 8.7124 8.60547C8.79763 8.72905 8.90629 8.83239 9.0384 8.91548C9.1705 8.99645 9.30899 9.06357 9.45388 9.11683C9.59877 9.16797 9.73193 9.20952 9.85338 9.24148L10.5182 9.42045C10.6886 9.4652 10.8782 9.52699 11.087 9.60582C11.298 9.68466 11.4993 9.79226 11.6911 9.92862C11.885 10.0629 12.0448 10.2354 12.1705 10.4464C12.2962 10.6573 12.3591 10.9162 12.3591 11.223C12.3591 11.5767 12.2664 11.8963 12.081 12.1818C11.8978 12.4673 11.6293 12.6942 11.2756 12.8626C10.9241 13.0309 10.4968 13.1151 9.99401 13.1151C9.52526 13.1151 9.11936 13.0394 8.77632 12.8881C8.43541 12.7369 8.16695 12.5259 7.97093 12.2553C7.77703 11.9847 7.6673 11.6705 7.64173 11.3125H8.45992C8.48122 11.5597 8.56432 11.7642 8.70921 11.9261C8.85622 12.0859 9.04159 12.2053 9.26531 12.2841C9.49117 12.3608 9.73406 12.3991 9.99401 12.3991C10.2966 12.3991 10.5682 12.3501 10.809 12.2521C11.0498 12.152 11.2405 12.0135 11.3811 11.8366C11.5217 11.6577 11.592 11.4489 11.592 11.2102C11.592 10.9929 11.5313 10.8161 11.4098 10.6797C11.2884 10.5433 11.1286 10.4325 10.9304 10.3473C10.7323 10.2621 10.5182 10.1875 10.288 10.1236L9.48264 9.89347C8.97128 9.74645 8.56645 9.53658 8.26816 9.26385C7.96986 8.99112 7.82071 8.63423 7.82071 8.19318C7.82071 7.8267 7.91979 7.5071 8.11794 7.23438C8.31823 6.95952 8.58669 6.74645 8.92334 6.59517C9.26212 6.44176 9.64031 6.36506 10.0579 6.36506C10.4798 6.36506 10.8548 6.4407 11.1829 6.59197C11.5111 6.74112 11.771 6.94567 11.9628 7.20561C12.1566 7.46555 12.2589 7.76065 12.2696 8.09091H11.5025Z" fill="white"/>
</svg>
