<svg width="32" height="32" viewBox="0 0 32 32" fill="none" xmlns="http://www.w3.org/2000/svg">
<path d="M28.9614 17.0027C29.1422 14.7066 28.7072 12.4039 27.7014 10.332C26.0366 11.9139 24.0686 13.1421 21.9161 13.9427C22.0891 16.0671 21.9933 18.2049 21.6308 20.3053C24.2501 19.6457 26.7319 18.5275 28.9614 17.0027ZM19.5121 20.7333C19.9379 18.6974 20.0868 16.6132 19.9548 14.5373C18.6854 14.84 17.3614 15 16.0001 15C14.6388 15 13.3148 14.84 12.0454 14.5373C11.9164 16.6132 12.0653 18.6969 12.4881 20.7333C14.8158 21.0901 17.1843 21.0901 19.5121 20.7333ZM13.0294 22.8253C15.003 23.0588 16.9972 23.0588 18.9708 22.8253C18.2925 25.0088 17.2911 27.0784 16.0001 28.9653C14.709 27.0784 13.7077 25.0088 13.0294 22.8253ZM10.3694 20.3067C10.0049 18.2056 9.90906 16.0666 10.0841 13.9413C7.93113 13.141 5.96264 11.9127 4.29742 10.3307C3.29184 12.4031 2.85735 14.7063 3.03875 17.0027C5.26827 18.5275 7.75012 19.647 10.3694 20.3067ZM28.4748 19.6693C27.8016 21.9506 26.5163 24.0038 24.7586 25.6062C23.0008 27.2086 20.8377 28.2989 18.5041 28.7587C19.6728 26.7937 20.5647 24.6768 21.1548 22.468C23.7274 21.9288 26.1982 20.9846 28.4748 19.6707V19.6693ZM3.52542 19.6693C5.76809 20.964 8.23209 21.92 10.8454 22.468C11.4354 24.6768 12.3274 26.7937 13.4961 28.7587C11.1626 28.299 8.99961 27.2089 7.24188 25.6068C5.48414 24.0047 4.19882 21.9517 3.52542 19.6707V19.6693ZM18.5041 3.24C21.8077 3.88935 24.7308 5.79444 26.6588 8.55467C25.2356 9.99251 23.5368 11.1281 21.6641 11.8933C21.1595 8.83709 20.0878 5.90218 18.5041 3.24ZM16.0001 3.03467C17.946 5.87747 19.2245 9.12315 19.7401 12.5293C18.5441 12.836 17.2908 13 16.0001 13C14.7094 13 13.4561 12.8373 12.2601 12.5293C12.7757 9.12314 14.0542 5.87744 16.0001 3.03467ZM13.4961 3.24C11.9124 5.90217 10.8406 8.83708 10.3361 11.8933C8.46336 11.1281 6.7645 9.99254 5.34142 8.55467C7.26947 5.79484 10.1926 3.88888 13.4961 3.24Z" fill="#14CF93"/>
</svg>
