<svg width="20" height="19" viewBox="0 0 20 19" fill="none" xmlns="http://www.w3.org/2000/svg">
<path d="M16.25 14.875C14.1825 14.875 12.5 13.1084 12.5 10.9375C12.5 8.76663 14.1825 7 16.25 7H18.3333V5.25C18.3333 4.28487 17.5858 3.5 16.6667 3.5H15.8333V1.75C15.8333 0.784875 15.0858 0 14.1667 0H2.5C1.26417 0 0.2425 0.9485 0.0425 2.18663C0.0241667 2.25838 0 2.32838 0 2.40625V15.75C0 17.1973 1.12167 18.375 2.5 18.375H16.6667C17.5858 18.375 18.3333 17.5901 18.3333 16.625V14.875H16.25ZM1.66667 2.625C1.66667 2.14287 2.04 1.75 2.5 1.75H14.1667V3.5H2.5C2.04 3.5 1.66667 3.10713 1.66667 2.625Z" fill="white"/>
<path d="M19.375 8.3125H16.25C14.8717 8.3125 13.75 9.49025 13.75 10.9375C13.75 12.3847 14.8717 13.5625 16.25 13.5625H19.375C19.72 13.5625 20 13.2685 20 12.9062V8.96875C20 8.6065 19.72 8.3125 19.375 8.3125ZM16.25 11.8125C15.79 11.8125 15.4167 11.4205 15.4167 10.9375C15.4167 10.4545 15.79 10.0625 16.25 10.0625C16.71 10.0625 17.0833 10.4545 17.0833 10.9375C17.0833 11.4205 16.71 11.8125 16.25 11.8125Z" fill="white"/>
</svg>
