<svg width="28" height="28" viewBox="0 0 28 28" fill="none" xmlns="http://www.w3.org/2000/svg">
<path d="M19.0083 5.63041C17.6481 4.19704 16.1175 2.93567 14.4506 1.87447C14.3145 1.79271 14.1588 1.74951 14 1.74951C13.8412 1.74951 13.6855 1.79271 13.5494 1.87447C11.8825 2.93567 10.3519 4.19704 8.99172 5.63041C5.97078 8.80228 4.375 12.3012 4.375 15.7498C4.375 18.3025 5.38906 20.7506 7.1941 22.5557C8.99913 24.3607 11.4473 25.3748 14 25.3748C16.5527 25.3748 19.0009 24.3607 20.8059 22.5557C22.6109 20.7506 23.625 18.3025 23.625 15.7498C23.625 12.3012 22.0292 8.80228 19.0083 5.63041ZM10.5 20.1248C10.5 17.0984 12.9642 14.9535 14 14.1857C15.0369 14.9513 17.5 17.0984 17.5 20.1248C17.5 21.053 17.1313 21.9433 16.4749 22.5997C15.8185 23.256 14.9283 23.6248 14 23.6248C13.0717 23.6248 12.1815 23.256 11.5251 22.5997C10.8687 21.9433 10.5 21.053 10.5 20.1248Z" fill="url(#paint0_linear_14_5056)"/>
<defs>
<linearGradient id="paint0_linear_14_5056" x1="4.375" y1="13.5621" x2="23.625" y2="13.5621" gradientUnits="userSpaceOnUse">
<stop stop-color="#8868FF"/>
<stop offset="1" stop-color="#6C3BF6"/>
</linearGradient>
</defs>
</svg>
