<svg width="32" height="25" viewBox="0 0 32 25" fill="none" xmlns="http://www.w3.org/2000/svg">
<g clip-path="url(#clip0_14_4979)">
<path d="M8.72344 4.37142L23.0896 4.35205C24.0527 4.43051 25.3491 5.47851 26.065 6.12649C29.8946 9.5911 32.8975 16.2491 31.754 21.3903C30.0927 28.862 24.1184 22.6195 20.4614 20.6523C15.8639 18.1795 13.6426 19.2963 9.55409 21.8669C6.87582 23.5503 2.37934 27.5766 0.59056 22.5865C-1.13742 17.7649 1.18388 11.7597 4.26423 7.94161C5.09978 6.90523 7.40441 4.53802 8.72442 4.37142H8.72344ZM23.6162 12.1569C24.8039 10.9297 23.2691 8.89469 21.6823 9.84777C19.7994 10.9791 22.0481 13.7763 23.6162 12.1569ZM7.93202 10.9849C7.83101 11.5515 8.00656 12.3806 7.93202 12.9782H5.84021C5.52344 12.9782 5.35869 13.7899 5.70781 13.9972C5.74116 14.0165 6.11088 14.1386 6.13343 14.1386H7.93202V16.0602C7.93202 16.2588 8.28115 16.5203 8.48808 16.531C8.67147 16.5407 9.10591 16.2917 9.10591 16.1329V14.1395H10.9045C10.9271 14.1395 11.2987 14.0117 11.337 13.9875C11.6881 13.7647 11.5233 12.9802 11.1977 12.9802H9.10591V10.9142C9.10591 10.8977 8.93625 10.6817 8.90487 10.6585C8.54986 10.397 8.00656 10.5684 7.93202 10.9868V10.9849ZM21.1204 14.6209C22.7366 13.0944 20.0014 10.8822 18.8089 12.6644C17.7831 14.1977 19.8416 15.8297 21.1204 14.6209ZM24.5763 12.0532C23.0818 12.3574 23.0818 14.6887 24.5763 14.9929C27.0595 15.4975 27.0595 11.5486 24.5763 12.0532ZM22.2276 14.4466C20.4604 14.7401 20.6663 17.5267 22.5581 17.455C24.6852 17.3746 24.3469 14.095 22.2276 14.4466Z" fill="#FF5858"/>
<path d="M20.1914 3.19028H11.8232C11.6682 1.84008 12.3155 0.235141 13.8414 0.0724197C14.8623 -0.0370297 16.9836 -0.0108781 18.029 0.069514C19.6932 0.198335 20.3199 1.7006 20.1914 3.19028Z" fill="#FF5858"/>
</g>
<defs>
<clipPath id="clip0_14_4979">
<rect width="32" height="25" fill="white"/>
</clipPath>
</defs>
</svg>
