<svg width="32" height="32" viewBox="0 0 32 32" fill="none" xmlns="http://www.w3.org/2000/svg">
<g clip-path="url(#clip0_14_4937)">
<path d="M25.6036 1.57991L30.4966 1.58894C32.5672 1.79659 32 4.54112 31.6804 5.94047C30.8837 9.44788 28.7005 12.0434 25.6441 13.7949C25.3785 13.9484 24.7304 14.1831 24.5503 14.3456C24.4018 14.4855 24.0236 15.3477 23.8526 15.6231C23.0288 16.9412 21.71 18.2457 20.4001 19.0853C19.6799 19.5458 18.8246 19.8256 18.2664 20.5073C17.2401 21.7712 17.4112 23.5181 18.5995 24.5925C20.5036 25.9738 22.8398 26.9759 24.7394 28.3256C26.0312 29.2419 25.9862 31.4628 24.4063 32H7.59826C6.01829 31.4628 5.97328 29.2419 7.26516 28.3256C9.04319 27.0616 11.2759 26.1047 13.0674 24.8453C14.1342 24.0959 14.6339 22.9313 14.3188 21.6358C13.9181 19.9972 12.4282 19.6631 11.2128 18.819C10.0785 18.0291 8.89015 16.8012 8.15193 15.6231C7.98088 15.3477 7.60276 14.4855 7.45422 14.3456C7.22915 14.138 6.22085 13.7227 5.86075 13.506C2.86736 11.7094 0.742727 8.69855 0.175559 5.22274C-0.049508 3.84596 -0.373604 1.90944 1.44494 1.59345L6.40091 1.58443C6.40991 0.7719 7.06711 0.0631965 7.87735 0H24.1857C25.0094 0.130907 25.5181 0.767386 25.6036 1.57991ZM6.40091 4.81648H3.37601C3.70461 6.82522 4.81644 8.70306 6.40091 9.95796V4.81648ZM28.624 4.81648H25.5991V9.85865C25.5991 9.88574 25.4281 9.97602 25.6306 9.95796C27.1566 8.60375 28.2774 6.85682 28.624 4.81648Z" fill="#5072FF"/>
</g>
<defs>
<clipPath id="clip0_14_4937">
<rect width="32" height="32" fill="white"/>
</clipPath>
</defs>
</svg>
