<svg width="39" height="39" viewBox="0 0 39 39" fill="none" xmlns="http://www.w3.org/2000/svg">
<path d="M16.7696 14.8642C17.9711 19.3537 22.5175 22.7493 27.2853 22.7936C32.053 22.8378 36.6311 19.5687 38.0918 15.1487C39.5525 10.735 37.8262 5.52466 34.0385 2.71079C25.2049 -3.85278 14.1202 4.96188 16.7696 14.8642Z" fill="#1E1D26"/>
<path d="M27.3791 23.1792H27.2842C22.3268 23.1349 17.6476 19.6065 16.4082 14.9716C15.0993 10.09 17.0532 4.89223 21.2645 2.02778C25.2924 -0.710205 30.2752 -0.56477 34.2652 2.40085C38.1919 5.31589 39.9561 10.7286 38.4512 15.2687C36.9336 19.8658 32.286 23.1792 27.3791 23.1792ZM17.1417 14.7692C18.2989 19.088 22.6619 22.3761 27.2906 22.4141H27.3728C31.8939 22.4141 36.3329 19.2524 37.7303 15.0348C39.1341 10.7982 37.4837 5.74587 33.8099 3.01421C30.0286 0.206671 25.5011 0.0738822 21.6881 2.66011C17.7487 5.34118 15.915 10.2038 17.1417 14.7692Z" fill="#1E1D26"/>
<path d="M16.1753 14.864C17.3767 19.3535 21.9231 22.7491 26.6909 22.7934C31.4587 22.8377 36.0367 19.5685 37.4974 15.1485C38.9581 10.7349 37.2318 5.51818 33.4442 2.70431C24.6105 -3.85294 13.5195 4.96173 16.1753 14.864Z" fill="#02CC7A"/>
<path d="M35.2073 14.3896C34.0628 17.8548 30.4711 20.4157 26.7341 20.3841C22.997 20.3525 19.4307 17.6841 18.4885 14.1683C18.3494 13.6561 18.2609 13.1439 18.2166 12.6381C17.5906 5.9354 24.6917 0.478398 30.9264 3.91827C31.2995 4.12061 31.6662 4.3609 32.033 4.6328C34.9986 6.83963 36.3518 10.9308 35.2073 14.3896Z" fill="white"/>
<path d="M35.3593 14.3901C34.2148 17.8552 30.6232 20.4162 26.8861 20.3845C23.1491 20.3529 19.5827 17.6845 18.6406 14.1688C18.5014 13.6566 18.4129 13.1444 18.3687 12.6385C18.9694 13.1507 19.5258 13.7198 20.1139 14.2573C21.0055 15.073 22.0298 15.8318 23.2186 16.0404C24.4137 16.2554 25.7985 15.7685 26.2981 14.6683C26.5257 14.1624 26.5763 13.5491 26.9873 13.176C27.7461 12.4804 29.1562 13.1381 29.915 12.4488C30.4904 11.924 30.3197 10.9692 29.9466 10.2736C29.5798 9.58437 29.055 8.92042 29.055 8.13633C29.055 6.96653 30.2058 6.16979 30.7433 5.12645C30.9394 4.74705 31.0468 4.33604 31.0785 3.9187C31.4515 4.12105 31.8183 4.36133 32.185 4.63323C35.1443 6.84006 36.4975 10.9312 35.3593 14.3901Z" fill="#1E1D26" fill-opacity="0.0627451"/>
<path d="M26.8039 20.8396H26.7281C22.7697 20.8017 19.0389 17.9878 18.0462 14.2824C17.0028 10.3935 18.5584 6.24546 21.9224 3.96908C25.1409 1.78122 29.1183 1.89504 32.3052 4.26627C35.4416 6.59324 36.8453 10.912 35.6439 14.5353C34.4298 18.1965 30.7181 20.8396 26.8039 20.8396ZM26.8798 3.29881C25.3496 3.29881 23.8257 3.77305 22.4282 4.72155C19.8989 6.44148 17.8375 9.98885 18.9251 14.0484C19.8167 17.3681 23.1744 19.8974 26.7344 19.9291C30.2438 19.967 33.69 17.5199 34.7713 14.2507C35.8463 10.9943 34.5816 7.0991 31.7551 4.99977C30.2375 3.8679 28.5555 3.29881 26.8798 3.29881Z" fill="#1E1D26"/>
<path d="M26.7793 23.2551H26.6844C21.689 23.2109 16.9845 19.6572 15.7325 14.9906C14.4172 10.0837 16.3838 4.85435 20.6204 1.97093C24.6736 -0.786022 29.6943 -0.640586 33.7096 2.34401C37.6617 5.27801 39.4322 10.7287 37.9209 15.2941C36.397 19.9164 31.7241 23.2551 26.7793 23.2551ZM16.6114 14.7503C17.7623 19.0375 22.0937 22.3003 26.6908 22.3382H26.773C31.2625 22.3382 35.6698 19.2019 37.0546 15.0096C38.4457 10.8046 36.808 5.78387 33.1595 3.07751C29.4034 0.288937 24.9076 0.156148 21.1263 2.7234C17.2185 5.38551 15.3974 10.2165 16.6114 14.7503Z" fill="#1E1D26"/>
<path d="M26.7914 13.1125H26.7788C26.235 13.1061 25.7355 12.7268 25.5963 12.2146C25.4572 11.6961 25.6659 11.1396 26.1149 10.8298C26.5575 10.5326 27.1013 10.5452 27.5313 10.8677C27.9613 11.1839 28.1446 11.7593 27.9802 12.2588C27.8158 12.7584 27.3163 13.1125 26.7914 13.1125ZM26.4816 11.9806C26.5132 12.1007 26.6587 12.2019 26.7914 12.2019C26.9306 12.2019 27.076 12.1007 27.1203 11.9743C27.1645 11.8478 27.1076 11.6834 26.9938 11.6012C26.842 11.4874 26.7156 11.5316 26.6334 11.5886C26.5322 11.6518 26.431 11.7972 26.4816 11.9806Z" fill="#1E1D26"/>
<path d="M26.0386 12.0947C26.1208 12.4109 26.4433 12.6512 26.7848 12.6575C27.1199 12.6575 27.4487 12.4299 27.5499 12.1137C27.6511 11.8039 27.5309 11.4308 27.2653 11.2348C26.633 10.7732 25.8489 11.3928 26.0386 12.0947Z" fill="#1E1D26"/>
<path d="M26.7919 13.0367H26.7793C26.2671 13.0303 25.7991 12.6762 25.6727 12.1957C25.5399 11.7088 25.7359 11.1839 26.1596 10.8994C26.5706 10.6212 27.0828 10.6338 27.4875 10.9373C27.8922 11.2345 28.0629 11.772 27.9111 12.2399C27.753 12.7015 27.2851 13.0367 26.7919 13.0367ZM26.4062 11.9996C26.4441 12.1514 26.6148 12.2779 26.7856 12.2779C26.9563 12.2779 27.1334 12.1514 27.1839 11.9996C27.2345 11.8479 27.165 11.6455 27.0322 11.5444C26.8362 11.3989 26.6654 11.4685 26.5832 11.5254C26.4694 11.6076 26.3493 11.7783 26.4062 11.9996ZM26.7982 5.35387C26.5453 5.35387 26.3429 5.15152 26.3429 4.89859V4.38008C26.3429 4.12715 26.5453 3.9248 26.7982 3.9248C27.0512 3.9248 27.2535 4.12715 27.2535 4.38008V4.89859C27.2535 5.15152 27.0512 5.35387 26.7982 5.35387ZM26.7982 19.1892C26.5453 19.1892 26.3429 18.9869 26.3429 18.7339V18.2154C26.3429 17.9625 26.5453 17.7602 26.7982 17.7602C27.0512 17.7602 27.2535 17.9625 27.2535 18.2154V18.7339C27.2535 18.9869 27.0512 19.1892 26.7982 19.1892ZM31.5091 7.30776C31.3953 7.30776 31.2751 7.2635 31.1866 7.17498C31.1015 7.08922 31.0537 6.9733 31.0537 6.85249C31.0537 6.73167 31.1015 6.61575 31.1866 6.53L31.5533 6.16325C31.7304 5.9862 32.0213 5.9862 32.1983 6.16325C32.3754 6.3403 32.3754 6.63117 32.1983 6.80822L31.8316 7.17498C31.7367 7.2635 31.6229 7.30776 31.5091 7.30776ZM21.7206 17.0899C21.6068 17.0899 21.4867 17.0456 21.3981 16.9571C21.313 16.8713 21.2653 16.7554 21.2653 16.6346C21.2653 16.5138 21.313 16.3979 21.3981 16.3121L21.7649 15.9454C21.9419 15.7683 22.2328 15.7683 22.4099 15.9454C22.5869 16.1224 22.5869 16.4133 22.4099 16.5904L22.0431 16.9571C22.0009 16.9996 21.9507 17.0333 21.8953 17.0561C21.8399 17.0789 21.7805 17.0904 21.7206 17.0899ZM33.9752 12.0123H33.4566C33.2037 12.0123 33.0014 11.8099 33.0014 11.557C33.0014 11.3041 33.2037 11.1017 33.4566 11.1017H33.9752C34.2281 11.1017 34.4304 11.3041 34.4304 11.557C34.4304 11.8099 34.2281 12.0123 33.9752 12.0123ZM20.1398 12.0123H19.6213C19.3684 12.0123 19.166 11.8099 19.166 11.557C19.166 11.3041 19.3684 11.1017 19.6213 11.1017H20.1398C20.3927 11.1017 20.5951 11.3041 20.5951 11.557C20.5951 11.8099 20.3927 12.0123 20.1398 12.0123ZM31.8758 17.0899C31.762 17.0899 31.6419 17.0456 31.5533 16.9571L31.1866 16.5904C31.0095 16.4133 31.0095 16.1224 31.1866 15.9454C31.3636 15.7683 31.6545 15.7683 31.8316 15.9454L32.1983 16.3121C32.3754 16.4892 32.3754 16.7801 32.1983 16.9571C32.1098 17.0456 31.9896 17.0899 31.8758 17.0899ZM22.0874 7.30776C21.9736 7.30776 21.8534 7.2635 21.7649 7.17498L21.3981 6.80822C21.2211 6.63117 21.2211 6.3403 21.3981 6.16325C21.5752 5.9862 21.8661 5.9862 22.0431 6.16325L22.4099 6.53C22.5869 6.70705 22.5869 6.99792 22.4099 7.17498C22.3677 7.2175 22.3174 7.25116 22.262 7.27396C22.2067 7.29677 22.1473 7.30826 22.0874 7.30776Z" fill="#1E1D26"/>
<path d="M29.3458 14.6682C29.2383 14.6682 29.1308 14.6303 29.0486 14.5544C28.625 14.1877 28.1887 13.8209 27.7524 13.4542C27.3097 13.0874 26.8734 12.7143 26.4434 12.3476C26.3919 12.3031 26.351 12.2476 26.3236 12.1852C26.2963 12.1229 26.2832 12.0552 26.2854 11.9872L26.4498 6.6503C26.4561 6.39737 26.6648 6.20135 26.9177 6.20767C27.1706 6.21399 27.3666 6.42898 27.3603 6.67559L27.2022 11.7911C27.5753 12.1073 27.9547 12.4298 28.3341 12.7459C28.7767 13.1127 29.213 13.4858 29.643 13.8525C29.8327 14.0169 29.8517 14.3078 29.6873 14.4975C29.6051 14.6113 29.4723 14.6682 29.3458 14.6682ZM9.47806 11.1778C9.31998 12.7839 9.40218 14.4343 9.91437 15.9582C10.4266 17.4821 11.4003 18.8922 12.7662 19.7522C14.132 20.6121 15.9025 20.8714 17.3948 20.2707C18.8871 19.6636 19.9621 18.2851 20.5501 16.7865C21.1382 15.2879 21.3026 13.2581 21.448 11.652" fill="#1E1D26"/>
<path d="M15.65 20.9787C14.5877 20.9787 13.5001 20.6689 12.5579 20.0745C11.1921 19.2145 10.1234 17.7981 9.54802 16.0782C9.06745 14.6428 8.91569 12.9797 9.09274 11.1333C9.11171 10.9247 9.30141 10.7729 9.51008 10.7919C9.71875 10.8109 9.87051 11.0006 9.85154 11.2092C9.68081 12.9418 9.81992 14.4973 10.2689 15.8315C10.7874 17.3808 11.7485 18.6581 12.9626 19.4232C14.2842 20.2578 15.9282 20.4412 17.2498 19.9101C18.5018 19.4042 19.5768 18.2091 20.1964 16.6409C20.7466 15.2372 20.9173 13.3086 21.0564 11.7593L21.0691 11.6076C21.088 11.3989 21.2714 11.2408 21.4801 11.2598C21.6887 11.2788 21.8468 11.4622 21.8278 11.6708L21.8152 11.8226C21.6761 13.4224 21.499 15.4079 20.9046 16.9128C20.2091 18.677 18.9824 20.0239 17.5407 20.6119C16.9463 20.8649 16.3076 20.9787 15.65 20.9787Z" fill="#1E1D26"/>
<path d="M21.9602 10.2607C22.2322 10.1342 22.6368 10.229 22.8582 10.4314C23.0795 10.6337 23.1933 10.9246 23.2439 11.2218C23.3514 11.8415 23.1743 12.4991 22.7823 12.986C22.3902 13.4729 21.7769 13.7764 21.1509 13.7954M9.105 10.286C8.8331 10.1595 8.2071 10.1405 7.92887 10.4314C7.72653 10.6464 7.59374 10.9246 7.54315 11.2218C7.43565 11.8415 7.61271 12.4991 8.00475 12.986C8.39679 13.4729 9.01015 13.7764 9.63616 13.7954" fill="white"/>
<path d="M21.1508 14.2508C21.0322 14.2509 20.9183 14.2047 20.8333 14.122C20.7483 14.0393 20.6989 13.9267 20.6956 13.8082C20.6892 13.5553 20.8853 13.3466 21.1382 13.334C21.6377 13.315 22.1183 13.0747 22.4345 12.689C22.7506 12.3033 22.8834 11.7784 22.8012 11.2915C22.7759 11.1271 22.7064 10.8995 22.5546 10.7667C22.4534 10.6719 22.2384 10.6339 22.1562 10.6719C22.1015 10.6972 22.0423 10.7114 21.982 10.7137C21.9217 10.7159 21.8616 10.7062 21.8051 10.685C21.7486 10.6638 21.6969 10.6316 21.653 10.5903C21.6091 10.5489 21.5738 10.4993 21.5492 10.4442C21.5239 10.3895 21.5097 10.3302 21.5074 10.27C21.5051 10.2097 21.5149 10.1496 21.5361 10.0931C21.5572 10.0366 21.5894 9.9849 21.6308 9.94097C21.6721 9.89704 21.7218 9.86176 21.7768 9.83718C22.2005 9.64115 22.8012 9.74865 23.168 10.0901C23.4399 10.3367 23.6232 10.7035 23.6991 11.1398C23.7601 11.5141 23.7421 11.8971 23.6463 12.2641C23.5505 12.6311 23.3789 12.974 23.1427 13.2707C22.6621 13.8588 21.9286 14.2255 21.1698 14.2508H21.1508ZM9.63613 14.2508H9.61716C8.85836 14.2255 8.12486 13.8588 7.64429 13.2707C7.16372 12.6827 6.95505 11.8859 7.08784 11.1398C7.1574 10.7477 7.32813 10.3936 7.5937 10.1154C8.03001 9.6538 8.87733 9.6791 9.29467 9.86879C9.52231 9.97629 9.62348 10.2419 9.52231 10.4758C9.41481 10.7035 9.14923 10.8046 8.91527 10.7035C8.75719 10.6276 8.35882 10.6466 8.25765 10.7477C8.11854 10.8932 8.02369 11.0892 7.98575 11.2979C7.90355 11.7848 8.03633 12.3096 8.3525 12.6953C8.66866 13.081 9.14923 13.3213 9.64877 13.3403C9.9017 13.3466 10.0977 13.5616 10.0914 13.8145C10.0881 13.9325 10.0385 14.0444 9.95326 14.1261C9.86806 14.2077 9.75413 14.2525 9.63613 14.2508Z" fill="#1E1D26"/>
<path d="M21.4486 11.1649C21.3032 12.771 21.1388 14.8008 20.5507 16.2994C19.9626 17.7981 18.8877 19.1829 17.3954 19.7836C15.9031 20.3843 14.1262 20.125 12.7667 19.2651C11.4009 18.4051 10.4334 17.0013 9.91493 15.4711C9.7442 14.9652 9.62405 14.4467 9.54185 13.9219C9.37112 12.8596 9.37112 11.7593 9.47862 10.6907L20.4938 11.127L21.4486 11.1649Z" fill="white"/>
<path d="M9.30781 10.3241C9.13076 11.437 9.94014 12.5689 11.0404 12.7017C11.8561 12.8028 12.6592 12.4171 13.4622 12.1895C14.5814 11.867 15.7639 11.848 16.8894 12.1263C17.7368 12.3349 18.5778 12.7206 19.4504 12.6827C20.7403 12.6195 21.8153 11.5066 21.8722 10.2229C17.6419 8.73065 13.5381 8.76227 9.30781 10.3241Z" fill="#1E1D26"/>
<path d="M11.3181 13.0935C11.2106 13.0935 11.1095 13.0871 11.002 13.0745C10.3823 12.9986 9.8195 12.6698 9.42113 12.1386C9.21882 11.8739 9.07151 11.5714 8.98789 11.2488C8.90427 10.9263 8.88603 10.5903 8.93424 10.2606C8.95321 10.1215 9.04806 10.0077 9.18085 9.96342C13.4933 8.37628 17.6857 8.33834 21.9982 9.86225C22.1562 9.91916 22.2574 10.0709 22.2511 10.2353C22.1879 11.7213 20.9422 12.986 19.4688 13.0555C18.7859 13.0871 18.1346 12.8911 17.5086 12.6951C17.262 12.6192 17.0344 12.5496 16.8004 12.4927C15.7393 12.2269 14.6266 12.2465 13.5755 12.5496C13.3922 12.6002 13.2025 12.6635 13.0191 12.7267C12.4626 12.9101 11.8999 13.0935 11.3181 13.0935ZM9.66774 10.5958C9.66142 10.9751 9.78789 11.3609 10.0282 11.6834C10.3001 12.0438 10.6795 12.2714 11.0905 12.322C11.628 12.3852 12.1844 12.2019 12.7725 12.0058C12.9685 11.9426 13.1645 11.8731 13.3605 11.8161C14.543 11.4747 15.795 11.4557 16.9838 11.7529C17.2367 11.8161 17.4897 11.892 17.7299 11.9679C18.318 12.1513 18.8808 12.322 19.4309 12.2967C20.43 12.2461 21.2836 11.4557 21.4607 10.4819C17.496 9.14772 13.6324 9.18566 9.66774 10.5958Z" fill="#1E1D26"/>
<path d="M15.6503 20.5677C14.5753 20.5677 13.4751 20.2579 12.5139 19.6572C11.1354 18.7909 10.0542 17.3555 9.47242 15.6229C8.98553 14.1749 8.83377 12.4992 9.01715 10.6465C9.04244 10.3936 9.26376 10.2102 9.51669 10.2355C9.76962 10.2608 9.95299 10.4821 9.9277 10.735C9.75697 12.455 9.89608 14.0042 10.3387 15.3257C10.8572 16.8623 11.7994 18.1206 13.0008 18.8794C14.3034 19.7014 15.9222 19.8848 17.2185 19.36C18.4515 18.8604 19.5075 17.6843 20.1208 16.1351C20.6646 14.744 20.8354 12.8217 20.9745 11.2788L20.9871 11.1271C20.9925 11.0677 21.0096 11.01 21.0373 10.9572C21.065 10.9044 21.1028 10.8576 21.1486 10.8194C21.1944 10.7812 21.2473 10.7525 21.3042 10.7347C21.3611 10.717 21.421 10.7107 21.4803 10.7161C21.5397 10.7215 21.5975 10.7385 21.6502 10.7662C21.703 10.7939 21.7498 10.8317 21.788 10.8775C21.8262 10.9233 21.8549 10.9762 21.8727 11.0331C21.8904 11.09 21.8968 11.1499 21.8914 11.2093L21.8787 11.361C21.7333 12.9608 21.5562 14.959 20.9618 16.4702C20.26 18.2534 19.0206 19.6192 17.5536 20.2073C16.9655 20.4539 16.3142 20.5677 15.6503 20.5677Z" fill="#1E1D26"/>
<path d="M9.21899 9.84969C9.06091 8.82531 8.90915 7.78829 8.92812 6.75128C8.94709 5.71426 9.15576 4.65827 9.67427 3.76036C10.4457 2.43247 11.8621 1.55986 13.3607 1.23104C14.8594 0.902233 16.4275 1.06664 17.9135 1.45868C19.0011 1.74323 20.0824 2.17321 20.8791 2.96995C21.7201 3.81095 22.1501 4.9934 22.2956 6.17586C22.441 7.35831 22.1944 8.58503 22.0742 9.77381" fill="#FFC94D"/>
<path d="M14.404 6.01134C14.8656 6.61206 15.8141 6.76381 16.4338 6.33383C17.0535 5.90385 17.2495 4.96168 16.8512 4.32302C16.4654 3.6907 15.3652 3.36189 14.7139 3.77922C14.0373 4.20921 13.9488 5.41695 14.404 6.01134Z" fill="white"/>
<path d="M9.1114 9.87508C9.02919 10.988 9.93342 12.0882 11.04 12.2147C11.862 12.3095 12.6524 11.9428 13.4492 11.7215C14.5684 11.4116 15.7698 11.3927 16.8954 11.6646C17.7427 11.8669 18.5774 12.24 19.45 12.1957C20.7399 12.1388 21.9161 11.0575 22.0741 9.77391C17.7553 8.2247 13.4302 8.25632 9.1114 9.87508Z" fill="#3D68F8"/>
<path d="M11.3125 12.6888C11.205 12.6888 11.0975 12.6825 10.99 12.6698C9.64311 12.5117 8.55551 11.1902 8.65668 9.84331C8.66932 9.66625 8.78314 9.5145 8.95387 9.45126C13.3549 7.80721 17.8254 7.76927 22.2328 9.34377C22.4351 9.41332 22.5616 9.61567 22.53 9.83066C22.3403 11.3419 20.9934 12.5813 19.4758 12.6508C18.7739 12.6825 18.129 12.4864 17.503 12.3031C17.269 12.2335 17.035 12.164 16.8011 12.107C15.7451 11.8541 14.6322 11.8731 13.5825 12.164C13.3991 12.2145 13.2158 12.2778 13.0324 12.3347C12.4759 12.5054 11.9132 12.6888 11.3125 12.6888ZM9.57355 10.1911C9.66208 10.9625 10.326 11.6707 11.0975 11.7593C11.6223 11.8225 12.1661 11.6454 12.7415 11.4621C12.9375 11.3988 13.1336 11.3356 13.3296 11.2787C14.5247 10.9436 15.802 10.9246 17.0097 11.2155C17.2627 11.2787 17.5156 11.3546 17.7622 11.4241C18.344 11.5949 18.8878 11.7593 19.4379 11.734C20.3927 11.6897 21.2716 10.9689 21.5562 10.0646C17.5662 8.73673 13.5446 8.77467 9.57355 10.1911Z" fill="#1E1D26"/>
<path d="M9.21938 10.3051C9.11086 10.3049 9.00598 10.2659 8.92367 10.1952C8.84135 10.1244 8.78701 10.0266 8.77043 9.91938C8.61235 8.88869 8.45426 7.82637 8.47323 6.74509C8.49853 5.49308 8.77043 4.41812 9.28261 3.53286C10.073 2.17335 11.5274 1.17427 13.2663 0.788554C14.6764 0.478713 16.2762 0.554592 18.034 1.02252C18.9383 1.2628 20.2472 1.69278 21.202 2.65392C22.258 3.70991 22.6248 5.12633 22.7449 6.12541C22.8587 7.08023 22.7386 8.04137 22.6248 8.97721C22.5868 9.26176 22.5552 9.53999 22.5236 9.82453C22.4983 10.0775 22.277 10.2545 22.024 10.2355C21.9641 10.23 21.9059 10.2127 21.8528 10.1845C21.7996 10.1563 21.7526 10.1179 21.7144 10.0715C21.6762 10.025 21.6475 9.97146 21.6301 9.91388C21.6127 9.8563 21.6069 9.79585 21.613 9.73601C21.6446 9.45146 21.6763 9.16059 21.7142 8.86972C21.8217 7.99078 21.9355 7.08655 21.8343 6.23923C21.7268 5.37926 21.4233 4.17784 20.5507 3.30522C19.9374 2.69186 19.0647 2.24923 17.7938 1.9141C16.1813 1.48412 14.7206 1.41456 13.456 1.69278C11.9637 2.0216 10.7243 2.86259 10.0604 4.00711C9.62407 4.75326 9.39643 5.68278 9.37746 6.77671C9.35849 7.77579 9.51025 8.80648 9.66201 9.79924C9.69995 10.0458 9.52922 10.2798 9.27629 10.3177C9.26364 10.3051 9.23835 10.3051 9.21938 10.3051Z" fill="#1E1D26"/>
<path d="M15.6055 7.04217C15.0111 7.04217 14.4104 6.78292 14.0373 6.2897C13.7211 5.87236 13.5883 5.24003 13.6958 4.63932C13.7907 4.08919 14.0689 3.64656 14.4673 3.39363C14.8593 3.1407 15.3715 3.07114 15.909 3.19761C16.4781 3.3304 16.9776 3.65921 17.2369 4.08287C17.768 4.93652 17.5151 6.14426 16.6931 6.71336C16.3706 6.93467 15.9912 7.04217 15.6055 7.04217ZM14.7645 5.73325C15.0806 6.14426 15.7509 6.25176 16.1745 5.95456C16.5982 5.66369 16.7373 4.99342 16.4654 4.55712C16.3326 4.34213 16.0354 4.15875 15.7066 4.08287C15.4158 4.01331 15.1439 4.04493 14.9605 4.15875C14.7834 4.27257 14.6506 4.50021 14.6 4.79108C14.5368 5.14518 14.6064 5.52458 14.7645 5.73325ZM2.71227 38.6207C1.30217 38.646 0.195597 37.4066 0.404265 36.0155C0.884835 32.8538 2.10523 29.7681 4.43852 27.2514C7.42312 24.0328 12.4501 21.9335 17.2811 22.6544C21.2774 23.2551 24.6288 25.6643 26.7028 28.554C28.1888 30.6217 29.0994 32.9171 29.7507 35.263C30.149 36.6857 29.0741 38.1022 27.5944 38.1338L2.71227 38.6207Z" fill="#1E1D26"/>
<path d="M2.66827 39.0001C1.89683 39.0001 1.16965 38.6713 0.657467 38.0895C0.402101 37.8014 0.213564 37.4604 0.105344 37.0909C-0.00287615 36.7215 -0.0281051 36.3326 0.0314619 35.9523C0.575265 32.3733 1.96639 29.3571 4.16057 26.9858C7.41706 23.4764 12.7097 21.5794 17.3383 22.275C21.1323 22.8441 24.6543 25.0509 27.0066 28.3264C28.3535 30.1981 29.3399 32.367 30.1113 35.1555C30.3327 35.9396 30.1746 36.768 29.6814 37.4319C29.4394 37.7608 29.1245 38.0291 28.7613 38.2156C28.3981 38.4021 27.9966 38.5018 27.5884 38.5069L2.72518 39.0001H2.66827ZM15.3907 22.8947C11.4956 22.8947 7.38545 24.6273 4.72334 27.5043C2.63033 29.7618 1.30877 32.6452 0.783933 36.0661C0.701731 36.6099 0.866136 37.1663 1.23289 37.5837C1.60596 38.0073 2.14344 38.2476 2.70621 38.235L27.582 37.7418C28.1764 37.7291 28.7202 37.4509 29.0743 36.9703C29.4221 36.5024 29.5359 35.9143 29.3778 35.3516C28.6254 32.6515 27.6769 30.5585 26.3869 28.7627C24.1485 25.6516 20.8098 23.5586 17.2182 23.0211C16.6238 22.9389 16.0104 22.8947 15.3907 22.8947Z" fill="#1E1D26"/>
<path d="M28.5555 37.514L3.67965 38.0072C2.26956 38.0325 1.15666 36.7931 1.37165 35.3957C1.49179 34.6052 1.6562 33.8148 1.87119 33.0434C2.52881 30.7227 3.65436 28.5159 5.40591 26.6316C8.38418 23.413 13.4175 21.3137 18.2485 22.0345C19.8609 22.2748 21.3659 22.8123 22.7317 23.5585C24.6824 24.6322 26.3694 26.127 27.6702 27.9342C29.1562 30.0019 30.0667 32.2909 30.7244 34.6432C31.1101 36.0722 30.0351 37.4823 28.5555 37.514Z" fill="#FFC94D"/>
<path d="M3.6357 38.4625C2.84529 38.4625 2.09282 38.121 1.56798 37.5266C1.30668 37.2302 1.11352 36.8802 1.00208 36.5011C0.890652 36.122 0.863659 35.7231 0.923007 35.3324C1.46681 31.7408 2.86426 28.7119 5.07108 26.3281C8.39081 22.7428 13.5886 20.8837 18.3184 21.5919C22.1313 22.161 25.6724 24.3805 28.0373 27.6749C29.3905 29.5529 30.3769 31.7345 31.1547 34.5294C31.3823 35.3388 31.2179 36.1924 30.712 36.869C30.4626 37.2061 30.139 37.4812 29.7662 37.6731C29.3933 37.865 28.9814 37.9685 28.5621 37.9756L3.68628 38.4625H3.6357ZM16.3518 22.357C12.4757 22.357 8.39081 24.0833 5.74135 26.9478C3.66099 29.1925 2.33942 32.0633 1.82724 35.4715C1.74503 35.9964 1.90312 36.5275 2.25722 36.9322C2.43308 37.1339 2.65109 37.2945 2.89584 37.4027C3.14059 37.5108 3.40611 37.564 3.67364 37.5582L28.5495 37.065C29.1186 37.0524 29.6434 36.7868 29.9848 36.3252C30.32 35.8762 30.4275 35.3071 30.2757 34.776C29.5296 32.0886 28.5811 30.0019 27.2974 28.2124C25.0716 25.114 21.7519 23.0336 18.1793 22.5025C17.5786 22.4013 16.9715 22.357 16.3518 22.357Z" fill="#1E1D26"/>
<path d="M5.5584 33.891C5.53943 33.891 5.52046 33.891 5.50149 33.8846C5.45203 33.8769 5.40459 33.8594 5.36189 33.8333C5.3192 33.8071 5.2821 33.7728 5.25272 33.7322C5.22334 33.6917 5.20226 33.6457 5.1907 33.597C5.17913 33.5483 5.17731 33.4978 5.18533 33.4483C5.65325 30.3689 7.63244 27.5044 10.3451 25.9742C10.5285 25.873 10.7625 25.9363 10.8636 26.1196C10.9648 26.303 10.9016 26.537 10.7182 26.6382C8.20154 28.0546 6.36778 30.704 5.9378 33.5622C5.92422 33.6532 5.8785 33.7364 5.80892 33.7967C5.73934 33.857 5.65048 33.8905 5.5584 33.891ZM12.4761 25.9679C12.318 25.9679 12.1662 25.8667 12.1157 25.7023C12.0524 25.5 12.1599 25.285 12.3623 25.2217L12.5203 25.1712C12.7227 25.1079 12.9377 25.2154 13.0009 25.4178C13.0641 25.6201 12.9566 25.8351 12.7543 25.8983L12.5962 25.9489C12.5573 25.9609 12.5168 25.9673 12.4761 25.9679Z" fill="white"/>
<path d="M28.7073 37.5141L3.82519 38.0073C2.42142 38.0326 1.30852 36.7932 1.52351 35.3958C1.64365 34.6054 1.80806 33.815 2.02305 33.0435C7.63813 33.2395 13.3544 31.9117 17.9198 28.6615C19.8547 27.283 21.5494 25.5315 22.8773 23.5586C24.8279 24.6323 26.5149 26.1271 27.8157 27.9343C29.3017 30.002 30.2123 32.2911 30.8699 34.6433C31.2619 36.0724 30.187 37.4825 28.7073 37.5141Z" fill="#1E1D26" fill-opacity="0.0627451"/>
</svg>
