<svg width="17" height="17" viewBox="0 0 17 17" fill="none" xmlns="http://www.w3.org/2000/svg">
<path d="M5.7502 1.75H3.9502C2.83009 1.75 2.26962 1.75 1.8418 1.96799C1.46547 2.15973 1.15973 2.46547 0.967987 2.8418C0.75 3.26962 0.75 3.83009 0.75 4.9502V12.5502C0.75 13.6703 0.75 14.2301 0.967987 14.6579C1.15973 15.0342 1.46547 15.3405 1.8418 15.5322C2.2692 15.75 2.82899 15.75 3.94691 15.75H11.5531C12.671 15.75 13.23 15.75 13.6574 15.5322C14.0337 15.3405 14.3405 15.0339 14.5322 14.6576C14.75 14.2302 14.75 13.671 14.75 12.5531V10.75M15.75 5.75V0.75M15.75 0.75H10.75M15.75 0.75L8.75 7.75" stroke="white" stroke-width="1.5" stroke-linecap="round" stroke-linejoin="round"/>
</svg>
