<svg width="32" height="32" viewBox="0 0 32 32" fill="none" xmlns="http://www.w3.org/2000/svg">
<path fill-rule="evenodd" clip-rule="evenodd" d="M8.42667 2.43618C13.4587 1.852 18.5413 1.852 23.5733 2.43618C25.5693 2.66818 27 4.38285 27 6.34285V26.0002C27 27.061 26.5786 28.0785 25.8284 28.8286C25.0783 29.5788 24.0609 30.0002 23 30.0002H9C7.93913 30.0002 6.92172 29.5788 6.17157 28.8286C5.42143 28.0785 5 27.061 5 26.0002V6.34285C5 4.38285 6.43067 2.66818 8.42667 2.43618ZM10 15.0002C10 14.735 10.1054 14.4806 10.2929 14.2931C10.4804 14.1055 10.7348 14.0002 11 14.0002H11.0107C11.2759 14.0002 11.5302 14.1055 11.7178 14.2931C11.9053 14.4806 12.0107 14.735 12.0107 15.0002V15.0108C12.0107 15.2761 11.9053 15.5304 11.7178 15.718C11.5302 15.9055 11.2759 16.0108 11.0107 16.0108H11C10.7348 16.0108 10.4804 15.9055 10.2929 15.718C10.1054 15.5304 10 15.2761 10 15.0108V15.0002ZM11 17.0002C10.7348 17.0002 10.4804 17.1055 10.2929 17.2931C10.1054 17.4806 10 17.735 10 18.0002V18.0108C10 18.5628 10.448 19.0108 11 19.0108H11.0107C11.2759 19.0108 11.5302 18.9055 11.7178 18.718C11.9053 18.5304 12.0107 18.2761 12.0107 18.0108V18.0002C12.0107 17.735 11.9053 17.4806 11.7178 17.2931C11.5302 17.1055 11.2759 17.0002 11.0107 17.0002H11ZM10 21.0002C10 20.735 10.1054 20.4806 10.2929 20.2931C10.4804 20.1055 10.7348 20.0002 11 20.0002H11.0107C11.2759 20.0002 11.5302 20.1055 11.7178 20.2931C11.9053 20.4806 12.0107 20.735 12.0107 21.0002V21.0108C12.0107 21.2761 11.9053 21.5304 11.7178 21.718C11.5302 21.9055 11.2759 22.0108 11.0107 22.0108H11C10.7348 22.0108 10.4804 21.9055 10.2929 21.718C10.1054 21.5304 10 21.2761 10 21.0108V21.0002ZM11 23.0002C10.7348 23.0002 10.4804 23.1055 10.2929 23.2931C10.1054 23.4806 10 23.735 10 24.0002V24.0108C10 24.5628 10.448 25.0108 11 25.0108H11.0107C11.2759 25.0108 11.5302 24.9055 11.7178 24.718C11.9053 24.5304 12.0107 24.2761 12.0107 24.0108V24.0002C12.0107 23.735 11.9053 23.4806 11.7178 23.2931C11.5302 23.1055 11.2759 23.0002 11.0107 23.0002H11ZM13.3307 15.0002C13.3307 14.735 13.436 14.4806 13.6236 14.2931C13.8111 14.1055 14.0655 14.0002 14.3307 14.0002H14.34C14.6052 14.0002 14.8596 14.1055 15.0471 14.2931C15.2346 14.4806 15.34 14.735 15.34 15.0002V15.0108C15.34 15.2761 15.2346 15.5304 15.0471 15.718C14.8596 15.9055 14.6052 16.0108 14.34 16.0108H14.3307C14.0655 16.0108 13.8111 15.9055 13.6236 15.718C13.436 15.5304 13.3307 15.2761 13.3307 15.0108V15.0002ZM14.3307 17.0002C14.0655 17.0002 13.8111 17.1055 13.6236 17.2931C13.436 17.4806 13.3307 17.735 13.3307 18.0002V18.0108C13.3307 18.5628 13.7773 19.0108 14.3307 19.0108H14.34C14.6052 19.0108 14.8596 18.9055 15.0471 18.718C15.2346 18.5304 15.34 18.2761 15.34 18.0108V18.0002C15.34 17.735 15.2346 17.4806 15.0471 17.2931C14.8596 17.1055 14.6052 17.0002 14.34 17.0002H14.3307ZM13.3307 21.0002C13.3307 20.735 13.436 20.4806 13.6236 20.2931C13.8111 20.1055 14.0655 20.0002 14.3307 20.0002H14.34C14.6052 20.0002 14.8596 20.1055 15.0471 20.2931C15.2346 20.4806 15.34 20.735 15.34 21.0002V21.0108C15.34 21.2761 15.2346 21.5304 15.0471 21.718C14.8596 21.9055 14.6052 22.0108 14.34 22.0108H14.3307C14.0655 22.0108 13.8111 21.9055 13.6236 21.718C13.436 21.5304 13.3307 21.2761 13.3307 21.0108V21.0002ZM14.3307 23.0002C14.0655 23.0002 13.8111 23.1055 13.6236 23.2931C13.436 23.4806 13.3307 23.735 13.3307 24.0002V24.0108C13.3307 24.5628 13.7773 25.0108 14.3307 25.0108H14.34C14.6052 25.0108 14.8596 24.9055 15.0471 24.718C15.2346 24.5304 15.34 24.2761 15.34 24.0108V24.0002C15.34 23.735 15.2346 23.4806 15.0471 23.2931C14.8596 23.1055 14.6052 23.0002 14.34 23.0002H14.3307ZM16.6693 15.0002C16.6693 14.735 16.7747 14.4806 16.9622 14.2931C17.1498 14.1055 17.4041 14.0002 17.6693 14.0002H17.68C17.9452 14.0002 18.1996 14.1055 18.3871 14.2931C18.5746 14.4806 18.68 14.735 18.68 15.0002V15.0108C18.68 15.2761 18.5746 15.5304 18.3871 15.718C18.1996 15.9055 17.9452 16.0108 17.68 16.0108H17.6693C17.4041 16.0108 17.1498 15.9055 16.9622 15.718C16.7747 15.5304 16.6693 15.2761 16.6693 15.0108V15.0002ZM17.6693 17.0002C17.4041 17.0002 17.1498 17.1055 16.9622 17.2931C16.7747 17.4806 16.6693 17.735 16.6693 18.0002V18.0108C16.6693 18.5628 17.1173 19.0108 17.6693 19.0108H17.68C17.9452 19.0108 18.1996 18.9055 18.3871 18.718C18.5746 18.5304 18.68 18.2761 18.68 18.0108V18.0002C18.68 17.735 18.5746 17.4806 18.3871 17.2931C18.1996 17.1055 17.9452 17.0002 17.68 17.0002H17.6693ZM16.6693 21.0002C16.6693 20.735 16.7747 20.4806 16.9622 20.2931C17.1498 20.1055 17.4041 20.0002 17.6693 20.0002H17.68C17.9452 20.0002 18.1996 20.1055 18.3871 20.2931C18.5746 20.4806 18.68 20.735 18.68 21.0002V21.0108C18.68 21.2761 18.5746 21.5304 18.3871 21.718C18.1996 21.9055 17.9452 22.0108 17.68 22.0108H17.6693C17.4041 22.0108 17.1498 21.9055 16.9622 21.718C16.7747 21.5304 16.6693 21.2761 16.6693 21.0108V21.0002ZM17.6693 23.0002C17.4041 23.0002 17.1498 23.1055 16.9622 23.2931C16.7747 23.4806 16.6693 23.735 16.6693 24.0002V24.0108C16.6693 24.5628 17.1173 25.0108 17.6693 25.0108H17.68C17.9452 25.0108 18.1996 24.9055 18.3871 24.718C18.5746 24.5304 18.68 24.2761 18.68 24.0108V24.0002C18.68 23.735 18.5746 23.4806 18.3871 23.2931C18.1996 23.1055 17.9452 23.0002 17.68 23.0002H17.6693ZM20 15.0002C20 14.735 20.1054 14.4806 20.2929 14.2931C20.4804 14.1055 20.7348 14.0002 21 14.0002H21.0107C21.2759 14.0002 21.5302 14.1055 21.7178 14.2931C21.9053 14.4806 22.0107 14.735 22.0107 15.0002V15.0108C22.0107 15.2761 21.9053 15.5304 21.7178 15.718C21.5302 15.9055 21.2759 16.0108 21.0107 16.0108H21C20.7348 16.0108 20.4804 15.9055 20.2929 15.718C20.1054 15.5304 20 15.2761 20 15.0108V15.0002ZM21 17.0002C20.7348 17.0002 20.4804 17.1055 20.2929 17.2931C20.1054 17.4806 20 17.735 20 18.0002V18.0108C20 18.5628 20.448 19.0108 21 19.0108H21.0107C21.2759 19.0108 21.5302 18.9055 21.7178 18.718C21.9053 18.5304 22.0107 18.2761 22.0107 18.0108V18.0002C22.0107 17.735 21.9053 17.4806 21.7178 17.2931C21.5302 17.1055 21.2759 17.0002 21.0107 17.0002H21ZM10 9.00018C10 8.86886 10.0259 8.73882 10.0761 8.6175C10.1264 8.49617 10.2 8.38593 10.2929 8.29307C10.3858 8.20021 10.496 8.12655 10.6173 8.0763C10.7386 8.02605 10.8687 8.00018 11 8.00018H21C21.2652 8.00018 21.5196 8.10554 21.7071 8.29307C21.8946 8.48061 22 8.73496 22 9.00018V10.0002C22 10.2654 21.8946 10.5197 21.7071 10.7073C21.5196 10.8948 21.2652 11.0002 21 11.0002H11C10.7348 11.0002 10.4804 10.8948 10.2929 10.7073C10.1054 10.5197 10 10.2654 10 10.0002V9.00018ZM22 21.0002C22 20.735 21.8946 20.4806 21.7071 20.2931C21.5196 20.1055 21.2652 20.0002 21 20.0002C20.7348 20.0002 20.4804 20.1055 20.2929 20.2931C20.1054 20.4806 20 20.735 20 21.0002V24.0002C20 24.2654 20.1054 24.5198 20.2929 24.7073C20.4804 24.8948 20.7348 25.0002 21 25.0002C21.2652 25.0002 21.5196 24.8948 21.7071 24.7073C21.8946 24.5198 22 24.2654 22 24.0002V21.0002Z" fill="#FE9860"/>
</svg>
