<svg width="29" height="29" viewBox="0 0 29 29" fill="none" xmlns="http://www.w3.org/2000/svg">
<path d="M13.6493 5.38192C13.7761 5.50821 13.8766 5.65827 13.9452 5.82351C14.0138 5.98874 14.0492 6.1659 14.0492 6.34481C14.0492 6.52372 14.0138 6.70088 13.9452 6.86611C13.8766 7.03134 13.7761 7.18141 13.6493 7.3077L7.81648 13.1406L24.4688 13.1406C24.8294 13.1406 25.1751 13.2838 25.4301 13.5387C25.685 13.7936 25.8282 14.1394 25.8282 14.4999C25.8282 14.8605 25.685 15.2062 25.4301 15.4612C25.1751 15.7161 24.8294 15.8593 24.4688 15.8593L7.81648 15.8593L13.6493 21.6944C13.9047 21.9498 14.0482 22.2962 14.0482 22.6573C14.0482 23.0185 13.9047 23.3648 13.6493 23.6202C13.394 23.8756 13.0476 24.019 12.6864 24.019C12.3253 24.019 11.9789 23.8756 11.7236 23.6202L3.5673 15.464C3.44057 15.3377 3.34002 15.1876 3.27141 15.0224C3.2028 14.8571 3.16748 14.68 3.16748 14.5011C3.16748 14.3221 3.2028 14.145 3.27141 13.9798C3.34002 13.8145 3.44057 13.6645 3.5673 13.5382L11.7236 5.38192C11.8498 5.25519 11.9999 5.15464 12.1651 5.08603C12.3304 5.01742 12.5075 4.9821 12.6864 4.9821C12.8654 4.9821 13.0425 5.01742 13.2077 5.08603C13.373 5.15464 13.523 5.25519 13.6493 5.38192Z" fill="black"/>
</svg>
