<svg width="32" height="36" viewBox="0 0 32 36" fill="none" xmlns="http://www.w3.org/2000/svg">
<g clip-path="url(#clip0_14_4943)">
<path d="M13.2611 7.29334C3.75759 9.17964 -0.351798 20.7146 5.8067 28.2922C11.2933 35.0439 21.7411 34.6421 26.744 27.5515C32.1351 19.9109 27.8529 9.08223 18.7376 7.29334L19.4217 4.44106C30.0006 6.71497 35.3338 18.8151 29.7556 28.204C23.9508 37.9754 10.0259 38.6917 3.18535 29.6174C-3.25267 21.0748 0.510128 8.65707 10.5026 5.03363C11.023 4.8449 11.9164 4.51107 12.4409 4.45729C12.5049 4.4512 12.5466 4.37612 12.6157 4.47962L13.2601 7.29334H13.2611Z" fill="#7F59FF"/>
<path d="M28.5535 19.7498H19.424C19.4169 19.0527 19.0703 18.4226 18.6729 17.8747L25.0814 11.4761C25.3416 11.5217 26.5643 13.2782 26.7595 13.6039C27.8847 15.4821 28.4396 17.5632 28.5535 19.7498Z" fill="#7F59FF"/>
<path d="M12.5753 19.7498H3.4458C3.55964 17.5632 4.11461 15.4821 5.23978 13.6039C5.43494 13.2782 6.65769 11.5217 6.9179 11.4761L13.3305 17.8777C12.9138 18.3912 12.5926 19.072 12.5753 19.7498Z" fill="#7F59FF"/>
<path d="M12.5753 20.3574C12.6353 21.0413 12.9107 21.6927 13.3264 22.2326L6.97278 28.6312C5.93705 27.7078 5.05073 26.3197 4.4978 25.0422C3.85237 23.5506 3.54846 21.9748 3.4458 20.3574H12.5753Z" fill="#7F59FF"/>
<path d="M28.5535 20.3574C28.4255 20.7146 28.5058 21.0839 28.4671 21.4492C28.276 23.2584 27.6083 25.0869 26.6528 26.6251C26.4709 26.9184 25.2593 28.6717 25.0255 28.6312L18.6719 22.2326C19.0906 21.6877 19.3742 21.0494 19.423 20.3574H28.5525H28.5535Z" fill="#7F59FF"/>
<path d="M16.3032 32.5095V23.4707C16.6458 23.424 16.9903 23.353 17.3115 23.2241C17.5504 23.1287 18.1338 22.6721 18.2791 22.7452L24.5901 29.0636C24.6135 29.1986 23.5859 30.0073 23.4039 30.1412C21.3863 31.6257 18.8209 32.5156 16.3032 32.5085V32.5095Z" fill="#7F59FF"/>
<path d="M15.6944 23.4715V32.5103C13.5426 32.5276 11.339 31.8579 9.50841 30.7489C9.20247 30.5632 7.36478 29.305 7.40747 29.0645L13.817 22.7217C14.3598 23.1489 15.0083 23.3944 15.6954 23.4715H15.6944Z" fill="#7F59FF"/>
<path d="M16.3042 16.6345L16.3154 13.3429L16.7169 13.0598C17.47 11.3896 17.9843 9.58954 18.5159 7.83008C20.7612 8.18319 22.9485 9.35008 24.5636 10.9391L18.2822 17.361L18.1795 17.3884C17.6652 16.9724 16.9832 16.6538 16.3052 16.6345H16.3042Z" fill="#7F59FF"/>
<path d="M13.4829 7.83154L15.0269 12.632C15.095 13.0754 15.6591 13.1485 15.6987 13.4803C15.8156 14.4442 15.6032 15.6446 15.6936 16.636C15.0136 16.6613 14.3286 16.9556 13.8193 17.3899L7.40674 11.043C8.93239 9.36372 11.2468 8.19987 13.4819 7.83154H13.4829Z" fill="#7F59FF"/>
<path d="M15.4486 1.31308C16.8553 1.10913 18.2488 1.81129 18.6981 3.1943C19.0986 4.42613 18.3647 6.41694 17.9978 7.65587C17.6054 8.97699 16.9925 11.2925 16.4183 12.4594C16.1794 12.9454 15.7759 12.8764 15.5604 12.4046C14.9048 10.9719 13.2694 5.84162 13.182 4.37337C13.0996 2.98426 13.9971 1.52413 15.4496 1.31409L15.4486 1.31308ZM15.598 2.37342C14.1903 2.66464 14.1954 4.97305 15.7505 5.22367C17.9531 5.57983 18.0456 1.8671 15.598 2.37342Z" fill="#7F59FF"/>
<path d="M15.6784 17.1889C19.2999 16.7942 20.0866 22.1121 16.6267 22.8447C12.681 23.6798 11.755 17.6161 15.6784 17.1889Z" fill="#7F59FF"/>
<path d="M21.0967 4.25559L19.4409 3.85783C18.8504 -0.336875 13.1482 -0.338905 12.5567 3.85783L10.8247 4.25559V1.33127C10.8247 1.30387 10.9477 0.857409 10.9731 0.795513C11.1489 0.35514 11.5474 0.0872629 12.0027 0L20.065 0.00608811C20.4228 0.0375433 21.0967 0.608811 21.0967 0.95076V4.25457V4.25559Z" fill="#7F59FF"/>
<path d="M15.8279 2.90401C16.9409 2.68788 17.2835 4.40676 16.2487 4.6168C14.9335 4.88467 14.7637 3.10999 15.8279 2.90401Z" fill="#7F59FF"/>
</g>
<defs>
<clipPath id="clip0_14_4943">
<rect width="32" height="36" fill="white"/>
</clipPath>
</defs>
</svg>
