<svg width="34" height="22" viewBox="0 0 34 22" fill="none" xmlns="http://www.w3.org/2000/svg">
<g clip-path="url(#clip0_14_4961)">
<path d="M33.1408 0.851204C33.6274 1.34338 33.9462 2.09633 34 2.78317V19.215C33.8832 20.6952 32.7617 21.8687 31.2593 21.9991H2.74065C1.2744 21.8705 0.148294 20.7282 0 19.2839V2.71522C0.148294 1.27084 1.2744 0.128553 2.74065 0H31.2593C31.9072 0.0505029 32.6885 0.394841 33.1399 0.851204H33.1408ZM13.4484 2.42322C11.1804 2.54535 11.3769 6.00893 13.7051 5.7757C15.8257 5.56359 15.5727 2.30844 13.4484 2.42322ZM7.13199 4.144C5.95769 4.28724 6.09579 5.80692 5.34135 6.28808C4.5869 6.76923 3.05577 6.34409 2.80831 7.49005C2.52748 8.79119 3.81763 8.91607 4.20041 9.76176C4.59988 10.646 3.63041 12.0427 4.62769 12.7065C5.75472 13.4577 6.49062 12.0702 7.46102 12.0932C8.41102 12.1161 9.52971 13.6229 10.4788 12.3392C11.0414 11.578 10.2842 10.6166 10.5112 9.75992C10.7494 8.86189 12.2861 8.53224 11.8477 7.27151C11.4557 6.14391 10.007 6.67373 9.30264 6.21921C8.46015 5.67561 8.53337 3.97229 7.13292 4.144H7.13199ZM16.9815 7.03001C15.113 7.34772 15.2251 10.2613 17.2753 10.3485C19.7054 10.4523 19.4913 6.60303 16.9815 7.03001ZM13.4484 11.634C11.3964 11.7442 11.274 14.757 13.2954 14.9783C15.7534 15.2482 15.7766 11.5082 13.4484 11.634Z" fill="#EFC51E"/>
</g>
<defs>
<clipPath id="clip0_14_4961">
<rect width="34" height="22" fill="white"/>
</clipPath>
</defs>
</svg>
