<svg width="42" height="37" viewBox="0 0 42 37" fill="none" xmlns="http://www.w3.org/2000/svg">
<path d="M17.5012 9.78809V25.1875H8.40159C6.35951 25.1875 4.40106 24.3762 2.95709 22.9323C1.51312 21.4883 0.701904 19.5299 0.701904 17.4878C0.701904 15.4457 1.51312 13.4872 2.95709 12.0433C4.40106 10.5993 6.35951 9.78809 8.40159 9.78809H17.5012Z" fill="#02CC7A"/>
<path d="M15.4014 9.78809H17.5013V25.1875H15.4014V9.78809Z" fill="#13A23E"/>
<path d="M21.0011 7.37988V27.5951L18.9012 26.1531L17.5012 25.1872V9.78778L21.0011 7.37988Z" fill="#9E9E9E"/>
<path d="M28.6999 2.08813V32.8869L21.0002 27.5951V7.37992L28.6999 2.08813Z" fill="#F5F5F5"/>
<path d="M26.6006 3.53148V31.4435L28.7005 32.8869V2.08813L26.6006 3.53148Z" fill="#CFD8DC"/>
<path d="M31.5003 2.08818C31.5003 1.31501 30.8735 0.688232 30.1004 0.688232C29.3272 0.688232 28.7004 1.31501 28.7004 2.08818V32.8869C28.7004 33.6601 29.3272 34.2869 30.1004 34.2869C30.8735 34.2869 31.5003 33.6601 31.5003 32.8869V2.08818Z" fill="#02CC7A"/>
<path d="M15.0926 35.6868H13.3707C12.5616 35.6875 11.7773 35.4074 11.1518 34.8942C10.5262 34.381 10.0982 33.6666 9.94082 32.8729L8.40088 25.1873H14.7006L15.4006 28.6871L16.4646 34.0139C16.5049 34.2168 16.4998 34.4262 16.4495 34.6269C16.3993 34.8276 16.3052 35.0146 16.174 35.1746C16.0428 35.3346 15.8777 35.4635 15.6908 35.5521C15.5038 35.6406 15.2995 35.6867 15.0926 35.6868Z" fill="#F5F5F5"/>
<path d="M16.4644 34.0139L15.4005 28.6871L14.7005 25.1873H12.6006L13.3006 28.6871L14.3645 34.0139C14.4022 34.2024 14.4003 34.3967 14.3591 34.5844C14.3179 34.7722 14.2382 34.9494 14.1251 35.1048C14.012 35.2602 13.8679 35.3905 13.7018 35.4874C13.5358 35.5844 13.3515 35.6458 13.1606 35.6679C13.2306 35.6728 13.3006 35.6868 13.3706 35.6868H15.0925C15.2994 35.6867 15.5037 35.6406 15.6906 35.5521C15.8776 35.4635 16.0427 35.3346 16.1738 35.1746C16.305 35.0146 16.3991 34.8276 16.4494 34.6269C16.4996 34.4262 16.5048 34.2168 16.4644 34.0139Z" fill="#CFD8DC"/>
<path d="M18.9005 26.1532V27.2872C18.8994 27.6581 18.7516 28.0136 18.4893 28.2759C18.227 28.5382 17.8715 28.686 17.5006 28.6871H15.4007L14.7007 25.1873H17.5006L18.9005 26.1532Z" fill="#7F8E94"/>
<path d="M31.5 13.5264C32.3199 13.8152 33.0299 14.3514 33.5322 15.0609C34.0344 15.7704 34.3041 16.6182 34.3041 17.4875C34.3041 18.3568 34.0344 19.2046 33.5322 19.9141C33.0299 20.6236 32.3199 21.1598 31.5 21.4486V13.5264Z" fill="#13A23E"/>
<path d="M7.82149 25.8578L9.25224 33.0101C9.44428 33.9615 9.95914 34.8172 10.7097 35.4326C11.4602 36.0479 12.4003 36.385 13.3709 36.3868H15.0942C15.4046 36.3864 15.7111 36.3172 15.9916 36.1841C16.2721 36.051 16.5196 35.8574 16.7162 35.6172C16.9129 35.3771 17.0539 35.0962 17.129 34.795C17.2042 34.4938 17.2116 34.1797 17.1507 33.8753L16.2547 29.3871H17.5007C18.0248 29.3854 18.5294 29.1874 18.9147 28.8321C19.3001 28.4768 19.5383 27.99 19.5824 27.4677L28.0402 33.2824C28.1411 33.793 28.4281 34.248 28.8454 34.559C29.2628 34.87 29.7808 35.0149 30.299 34.9657C30.8171 34.9164 31.2985 34.6764 31.6498 34.2924C32.0011 33.9083 32.1972 33.4074 32.2001 32.8869V21.9009C33.0364 21.5062 33.7433 20.8819 34.2384 20.1009C34.7335 19.3198 34.9964 18.4141 34.9964 17.4893C34.9964 16.5645 34.7335 15.6588 34.2384 14.8777C33.7433 14.0966 33.0364 13.4724 32.2001 13.0777V2.08817C32.1972 1.56768 32.0011 1.06682 31.6498 0.682727C31.2985 0.298636 30.8171 0.0586921 30.299 0.00943042C29.7808 -0.0398312 29.2628 0.105101 28.8454 0.416117C28.4281 0.727134 28.1411 1.18207 28.0402 1.69269L17.283 9.08788H8.40107C6.22376 9.08625 4.13098 9.93063 2.56446 11.4428C0.997931 12.955 0.0802182 15.0167 0.00501404 17.1927C-0.0701901 19.3687 0.702999 21.4888 2.16139 23.1055C3.61978 24.7223 5.64926 25.7091 7.82149 25.8578ZM15.6346 34.7306C15.5689 34.8107 15.4864 34.8752 15.3928 34.9195C15.2992 34.9638 15.197 34.9868 15.0935 34.9868H13.3709C12.7239 34.9856 12.0973 34.7608 11.597 34.3506C11.0967 33.9404 10.7536 33.3699 10.6256 32.7357L9.25504 25.8872H14.1275L15.7795 34.1504C15.7997 34.2518 15.7972 34.3564 15.7721 34.4568C15.7471 34.5571 15.7001 34.6506 15.6346 34.7306ZM18.2007 27.2871C18.2007 27.4728 18.1269 27.6508 17.9957 27.7821C17.8644 27.9134 17.6863 27.9871 17.5007 27.9871H15.9748L15.5548 25.8872H17.283L18.2007 26.5172V27.2871ZM18.2007 10.156L20.3006 8.712V26.2631L18.2007 24.819V10.156ZM33.6 17.4875C33.5995 18.0308 33.4728 18.5665 33.2298 19.0524C32.9869 19.5382 32.6344 19.9611 32.2001 20.2874V14.6877C32.6344 15.014 32.9869 15.4368 33.2298 15.9227C33.4728 16.4086 33.5995 16.9443 33.6 17.4875ZM30.1002 1.3882C30.2858 1.3882 30.4639 1.46194 30.5951 1.59321C30.7264 1.72449 30.8002 1.90253 30.8002 2.08817V32.8869C30.8002 33.0726 30.7264 33.2506 30.5951 33.3819C30.4639 33.5131 30.2858 33.5869 30.1002 33.5869C29.9145 33.5869 29.7365 33.5131 29.6052 33.3819C29.474 33.2506 29.4002 33.0726 29.4002 32.8869V2.08817C29.4002 1.90253 29.474 1.72449 29.6052 1.59321C29.7365 1.46194 29.9145 1.3882 30.1002 1.3882ZM28.0003 31.557L21.7005 27.2262V7.74954L28.0003 3.41811V31.557ZM8.40107 10.4878H16.8007V24.4873H8.40107C6.54463 24.4873 4.76423 23.7498 3.45152 22.4371C2.13882 21.1244 1.40136 19.344 1.40136 17.4875C1.40136 15.6311 2.13882 13.8507 3.45152 12.538C4.76423 11.2253 6.54463 10.4878 8.40107 10.4878Z" fill="black"/>
<path d="M4.20144 18.1876H6.30135C6.48699 18.1876 6.66504 18.1139 6.79631 17.9826C6.92758 17.8513 7.00132 17.6733 7.00132 17.4877C7.00132 17.302 6.92758 17.124 6.79631 16.9927C6.66504 16.8614 6.48699 16.7877 6.30135 16.7877H4.20144C4.01579 16.7877 3.83775 16.8614 3.70648 16.9927C3.57521 17.124 3.50146 17.302 3.50146 17.4877C3.50146 17.6733 3.57521 17.8513 3.70648 17.9826C3.83775 18.1139 4.01579 18.1876 4.20144 18.1876ZM4.20144 15.3877H6.30135C6.48699 15.3877 6.66504 15.314 6.79631 15.1827C6.92758 15.0515 7.00132 14.8734 7.00132 14.6878C7.00132 14.5021 6.92758 14.3241 6.79631 14.1928C6.66504 14.0615 6.48699 13.9878 6.30135 13.9878H4.20144C4.01579 13.9878 3.83775 14.0615 3.70648 14.1928C3.57521 14.3241 3.50146 14.5021 3.50146 14.6878C3.50146 14.8734 3.57521 15.0515 3.70648 15.1827C3.83775 15.314 4.01579 15.3877 4.20144 15.3877ZM4.20144 20.9875H6.30135C6.48699 20.9875 6.66504 20.9138 6.79631 20.7825C6.92758 20.6512 7.00132 20.4732 7.00132 20.2875C7.00132 20.1019 6.92758 19.9239 6.79631 19.7926C6.66504 19.6613 6.48699 19.5876 6.30135 19.5876H4.20144C4.01579 19.5876 3.83775 19.6613 3.70648 19.7926C3.57521 19.9239 3.50146 20.1019 3.50146 20.2875C3.50146 20.4732 3.57521 20.6512 3.70648 20.7825C3.83775 20.9138 4.01579 20.9875 4.20144 20.9875ZM34.3002 12.5879C34.4382 12.5877 34.5732 12.5468 34.688 12.4703L38.8878 9.67037C38.9643 9.61936 39.03 9.55378 39.0811 9.47738C39.1323 9.40098 39.1678 9.31525 39.1858 9.2251C39.2038 9.13495 39.2039 9.04213 39.1861 8.95195C39.1682 8.86177 39.1327 8.77599 39.0817 8.69951C39.0307 8.62303 38.9651 8.55735 38.8887 8.50622C38.8123 8.45509 38.7266 8.4195 38.6364 8.4015C38.5463 8.38349 38.4535 8.38342 38.3633 8.40129C38.2731 8.41915 38.1873 8.4546 38.1109 8.50562L33.911 11.3055C33.786 11.3889 33.6911 11.5103 33.6404 11.6518C33.5897 11.7933 33.5859 11.9473 33.6295 12.0912C33.6732 12.235 33.762 12.3609 33.8828 12.4504C34.0035 12.5398 34.1499 12.588 34.3002 12.5879ZM35.7365 14.909C35.7952 15.085 35.9213 15.2306 36.0872 15.3136C36.2531 15.3967 36.4452 15.4105 36.6213 15.352L40.8211 13.9521C40.9975 13.8934 41.1433 13.7671 41.2266 13.6009C41.3098 13.4347 41.3236 13.2423 41.2649 13.0659C41.2063 12.8896 41.0799 12.7437 40.9138 12.6605C40.7476 12.5773 40.5551 12.5635 40.3788 12.6222L36.1789 14.0221C36.0916 14.0512 36.0108 14.0972 35.9413 14.1576C35.8718 14.2179 35.8149 14.2914 35.7738 14.3738C35.7327 14.4561 35.7082 14.5458 35.7018 14.6377C35.6955 14.7295 35.7073 14.8217 35.7365 14.909ZM33.7178 22.6989C33.6668 22.7754 33.6313 22.8612 33.6135 22.9514C33.5956 23.0416 33.5957 23.1344 33.6137 23.2245C33.6317 23.3147 33.6673 23.4004 33.7184 23.4768C33.7695 23.5532 33.8352 23.6188 33.9117 23.6698L38.1116 26.4697C38.188 26.5207 38.2738 26.5562 38.364 26.574C38.4542 26.5919 38.547 26.5918 38.6371 26.5738C38.7273 26.5558 38.813 26.5202 38.8894 26.4691C38.9658 26.418 39.0314 26.3523 39.0824 26.2758C39.1334 26.1993 39.1689 26.1135 39.1867 26.0234C39.2046 25.9332 39.2045 25.8404 39.1865 25.7502C39.1685 25.6601 39.133 25.5743 39.0818 25.4979C39.0307 25.4215 38.965 25.356 38.8885 25.3049L34.6887 22.5051C34.6122 22.454 34.5264 22.4186 34.4363 22.4007C34.3461 22.3828 34.2533 22.3829 34.1631 22.4009C34.0729 22.4189 33.9872 22.4545 33.9108 22.5056C33.8344 22.5568 33.7688 22.6225 33.7178 22.6989ZM40.6 22.3875C40.7663 22.3876 40.9272 22.3285 41.0539 22.2207C41.1806 22.113 41.2648 21.9637 41.2914 21.7995C41.318 21.6353 41.2853 21.4671 41.1992 21.3248C41.113 21.1826 40.979 21.0756 40.8211 21.0232L36.6213 19.6233C36.445 19.5646 36.2525 19.5784 36.0863 19.6616C35.9201 19.7449 35.7938 19.8907 35.7352 20.0671C35.6765 20.2434 35.6903 20.4359 35.7735 20.602C35.8567 20.7682 36.0026 20.8946 36.1789 20.9532L40.3788 22.3532C40.4502 22.3764 40.5249 22.388 40.6 22.3875ZM36.4001 17.4877C36.4001 17.6733 36.4739 17.8513 36.6051 17.9826C36.7364 18.1139 36.9145 18.1876 37.1001 18.1876H41.2999C41.4856 18.1876 41.6636 18.1139 41.7949 17.9826C41.9262 17.8513 41.9999 17.6733 41.9999 17.4877C41.9999 17.302 41.9262 17.124 41.7949 16.9927C41.6636 16.8614 41.4856 16.7877 41.2999 16.7877H37.1001C36.9145 16.7877 36.7364 16.8614 36.6051 16.9927C36.4739 17.124 36.4001 17.302 36.4001 17.4877Z" fill="#FFB900"/>
</svg>
