<svg width="37" height="38" viewBox="0 0 37 38" fill="none" xmlns="http://www.w3.org/2000/svg">
<path d="M9.08043 36.4911C12.3256 36.4911 14.9563 35.419 14.9563 34.0966C14.9563 32.7742 12.3256 31.7021 9.08043 31.7021C5.83529 31.7021 3.20459 32.7742 3.20459 34.0966C3.20459 35.419 5.83529 36.4911 9.08043 36.4911Z" fill="#FFDB56"/>
<path d="M14.4439 33.1187C13.5261 33.9536 11.4706 34.5357 9.08028 34.5357C6.68995 34.5357 4.63444 33.9536 3.7167 33.1187C3.38853 33.4172 3.20459 33.7478 3.20459 34.0961C3.20459 35.4186 5.83521 36.4907 9.08035 36.4907C12.3254 36.4907 14.9561 35.4186 14.9561 34.0961C14.956 33.7478 14.7719 33.4172 14.4439 33.1187Z" fill="#FFBB24"/>
<path d="M9.08026 11.675C4.36542 11.675 0.543213 15.4972 0.543213 20.2121C0.543213 27.3919 9.08026 33.9981 9.08026 33.9981C9.08026 33.9981 17.6173 27.3919 17.6173 20.2121C17.6173 15.4972 13.7952 11.675 9.08026 11.675ZM9.08026 23.617C7.19979 23.617 5.67534 22.0926 5.67534 20.2121C5.67534 18.3316 7.19979 16.8071 9.08026 16.8071C10.9607 16.8071 12.4853 18.3316 12.4853 20.2121C12.4853 22.0926 10.9608 23.617 9.08026 23.617Z" fill="#FF4A4A"/>
<path d="M9.07929 11.675C8.74867 11.675 8.42267 11.6944 8.10181 11.7311C12.3562 12.2162 15.6614 15.8279 15.6614 20.2121C15.6614 25.8798 10.3426 31.189 8.10181 33.1745C8.6997 33.7042 9.07929 33.9982 9.07929 33.9982C9.07929 33.9982 17.6163 27.3921 17.6163 20.2122C17.6163 15.4972 13.7942 11.675 9.07929 11.675Z" fill="#E7343F"/>
<path d="M29.8952 19.6155C32.3893 19.6155 34.4112 18.7915 34.4112 17.7751C34.4112 16.7588 32.3893 15.9348 29.8952 15.9348C27.401 15.9348 25.3792 16.7588 25.3792 17.7751C25.3792 18.7915 27.401 19.6155 29.8952 19.6155Z" fill="#FFDB56"/>
<path d="M33.722 16.7976C32.923 17.3158 31.5089 17.6604 29.8963 17.6604C28.2838 17.6604 26.8695 17.3158 26.0706 16.7976C25.6339 17.0809 25.3804 17.4158 25.3804 17.7751C25.3804 18.7916 27.4022 19.6154 29.8963 19.6154C32.3904 19.6154 34.4122 18.7914 34.4122 17.7751C34.4122 17.4158 34.1587 17.0809 33.722 16.7976Z" fill="#FFBB24"/>
<path d="M29.896 0.542969C26.2722 0.542969 23.3347 3.48056 23.3347 7.10429C23.3347 12.6225 29.896 17.6998 29.896 17.6998C29.896 17.6998 36.4573 12.6225 36.4573 7.10429C36.4573 3.48056 33.5197 0.542969 29.896 0.542969ZM29.896 9.72124C28.4506 9.72124 27.279 8.54961 27.279 7.10429C27.279 5.65896 28.4506 4.48734 29.896 4.48734C31.3413 4.48734 32.513 5.65896 32.513 7.10429C32.513 8.54961 31.3413 9.72124 29.896 9.72124Z" fill="#02CC7A"/>
<path d="M29.895 0.542969C29.5678 0.542926 29.2411 0.567175 28.9175 0.615517C32.0775 1.08755 34.5012 3.81278 34.5012 7.10422C34.5012 11.2793 30.7458 15.2014 28.9175 16.8635C29.5056 17.3983 29.895 17.6997 29.895 17.6997C29.895 17.6997 36.4562 12.6224 36.4562 7.10422C36.4562 3.48056 33.5187 0.542969 29.895 0.542969Z" fill="#138F5C"/>
<path d="M9.08011 11.1321C4.07334 11.1321 0 15.2054 0 20.2122C0 23.3208 1.47874 26.6631 4.39521 30.1463C4.80702 30.6374 5.23374 31.1158 5.67475 31.5809C3.79168 32.0949 2.66114 33.0183 2.66114 34.0961C2.66114 36.0042 5.96828 37.0337 9.0799 37.0337C12.1915 37.0337 15.4987 36.0041 15.4987 34.0961C15.4987 33.0192 14.3684 32.0955 12.4866 31.5813C13.2384 30.7876 14.0473 29.8538 14.8149 28.8122C14.8572 28.7548 14.8878 28.6897 14.9049 28.6204C14.922 28.5512 14.9253 28.4793 14.9146 28.4088C14.904 28.3383 14.8795 28.2706 14.8426 28.2095C14.8058 28.1484 14.7573 28.0953 14.6999 28.0529C14.6425 28.0106 14.5773 27.9801 14.508 27.963C14.4388 27.9458 14.3669 27.9425 14.2964 27.9532C14.2259 27.9639 14.1582 27.9884 14.0971 28.0252C14.0361 28.0621 13.9829 28.1106 13.9406 28.168C13.0139 29.4256 12.0108 30.5308 11.1355 31.4087C11.0338 31.4603 10.951 31.5425 10.8987 31.6437C10.1146 32.4143 9.45479 32.9859 9.08048 33.2982C8.71021 32.9889 8.06046 32.4251 7.28644 31.6646C7.23163 31.5443 7.13486 31.4482 7.01426 31.3941C4.55449 28.92 1.0862 24.6455 1.0862 20.2123C1.0862 15.8045 4.67232 12.2184 9.08019 12.2184C13.4881 12.2184 17.0742 15.8045 17.0742 20.2123C17.0742 22.1373 16.4183 24.2161 15.1247 26.391C15.0882 26.4523 15.0642 26.5202 15.054 26.5908C15.0438 26.6614 15.0475 26.7333 15.0651 26.8024C15.0827 26.8715 15.1137 26.9365 15.1564 26.9936C15.199 27.0508 15.2526 27.0989 15.3138 27.1354C15.3751 27.1718 15.443 27.1959 15.5136 27.2061C15.5842 27.2163 15.6561 27.2125 15.7252 27.195C15.7943 27.1774 15.8593 27.1464 15.9164 27.1037C15.9736 27.0611 16.0218 27.0075 16.0582 26.9462C17.453 24.601 18.1603 22.3354 18.1603 20.2123C18.1602 15.2054 14.0869 11.1321 9.08011 11.1321ZM9.08011 34.5413C9.20043 34.5413 9.31736 34.5014 9.41248 34.4277C9.47917 34.3761 10.3866 33.6684 11.5962 32.4857C13.4277 32.8593 14.4126 33.5784 14.4126 34.0961C14.4126 34.4827 13.8827 34.9389 13.0297 35.2864C11.9835 35.7128 10.5808 35.9477 9.0799 35.9477C5.82463 35.9477 3.7472 34.851 3.7472 34.0961C3.7472 33.5777 4.73235 32.8589 6.56494 32.4854C7.78133 33.6751 8.6901 34.383 8.74775 34.4277C8.84286 34.5014 8.95979 34.5413 9.08011 34.5413Z" fill="black"/>
<path d="M5.95666 18.7491C5.81822 18.7094 5.66971 18.7264 5.54375 18.7961C5.41779 18.8659 5.32467 18.9828 5.28484 19.1212C5.18327 19.4759 5.13185 19.8431 5.13208 20.2121C5.13208 22.389 6.90311 24.1601 9.08007 24.1601C11.257 24.1601 13.0281 22.3891 13.0281 20.2121C13.0281 18.0352 11.257 16.2641 9.08007 16.2641C8.22114 16.2641 7.40437 16.5352 6.71809 17.0483C6.60276 17.1345 6.52641 17.2631 6.50582 17.4056C6.48523 17.5482 6.52209 17.693 6.60829 17.8084C6.69455 17.9237 6.82308 18.0001 6.96562 18.0207C7.10817 18.0413 7.25305 18.0044 7.36842 17.9182C7.86541 17.5466 8.4573 17.3502 9.08 17.3502C10.6581 17.3502 11.9419 18.634 11.9419 20.2121C11.9419 21.7902 10.6581 23.074 9.08 23.074C7.50195 23.074 6.21814 21.7902 6.21814 20.2121C6.21814 19.9428 6.25539 19.6766 6.3288 19.421C6.34849 19.3524 6.35448 19.2807 6.34643 19.2098C6.33838 19.1389 6.31645 19.0703 6.2819 19.0079C6.24734 18.9456 6.20083 18.8906 6.14503 18.8462C6.08922 18.8017 6.02521 18.7688 5.95666 18.7491ZM34.9544 17.7752C34.9544 16.9148 34.1456 16.1981 32.7462 15.777C33.0368 15.4656 33.319 15.1465 33.5926 14.8201C35.8535 12.1198 36.9999 9.52387 36.9999 7.10431C36.9998 3.18706 33.8128 0 29.8955 0C27.0339 0 24.4644 1.70311 23.3497 4.33887C23.322 4.40454 23.3074 4.47505 23.3068 4.54635C23.3063 4.61766 23.3198 4.68838 23.3466 4.75446C23.3734 4.82055 23.4129 4.88071 23.463 4.93151C23.513 4.98231 23.5726 5.02275 23.6383 5.05054C23.7709 5.10661 23.9204 5.10772 24.0538 5.05361C24.1873 4.99951 24.2938 4.89462 24.3499 4.76201C25.2944 2.52899 27.4712 1.08606 29.8955 1.08606C33.214 1.08606 35.9138 3.78589 35.9138 7.10438C35.9138 11.5921 31.2022 15.8915 29.8953 16.9975C29.6073 16.754 29.1539 16.3557 28.6223 15.8346C28.5697 15.7308 28.485 15.6466 28.3808 15.5946C26.5058 13.7067 23.8773 10.4614 23.8773 7.10438C23.8773 7.03307 23.8632 6.96244 23.8359 6.89655C23.8086 6.83066 23.7686 6.77079 23.7182 6.72036C23.6678 6.66993 23.6079 6.62993 23.542 6.60264C23.4761 6.57535 23.4055 6.56131 23.3342 6.56132C23.2629 6.56131 23.1922 6.57535 23.1264 6.60264C23.0605 6.62993 23.0006 6.66993 22.9502 6.72036C22.8997 6.77079 22.8597 6.83066 22.8324 6.89655C22.8052 6.96244 22.7911 7.03307 22.7911 7.10438C22.7911 9.52387 23.9376 12.1198 26.1985 14.8202C26.472 15.1464 26.7541 15.4653 27.0444 15.7766C25.6445 16.1972 24.8364 16.9132 24.8364 17.7753C24.8364 18.5023 25.4262 19.1431 26.4972 19.5795C27.4137 19.953 28.6205 20.1587 29.8954 20.1587C31.1703 20.1587 32.3771 19.953 33.2936 19.5795C34.3645 19.1431 34.9544 18.5022 34.9544 17.7752ZM29.8954 19.0725C27.3248 19.0725 25.9225 18.2155 25.9225 17.7751C25.9225 17.4883 26.5604 16.9633 27.9225 16.6737C28.839 17.5655 29.5193 18.0954 29.5632 18.1294C29.6583 18.2031 29.7753 18.2431 29.8956 18.243C30.0159 18.243 30.1328 18.2031 30.2279 18.1294C30.2719 18.0955 30.952 17.5655 31.8685 16.6738C32.4754 16.8032 33.0011 16.9928 33.3689 17.2168C33.6816 17.4073 33.8683 17.6161 33.8683 17.7752C33.8682 18.2155 32.466 19.0725 29.8954 19.0725Z" fill="black"/>
<path d="M33.0557 7.10459C33.0557 5.3622 31.6382 3.94458 29.8957 3.94458C28.1533 3.94458 26.7356 5.36213 26.7356 7.10459C26.7356 8.84698 28.1532 10.2645 29.8957 10.2645C31.6383 10.2645 33.0557 8.84705 33.0557 7.10459ZM27.8218 7.10459C27.8218 5.96103 28.7522 5.03063 29.8958 5.03063C31.0393 5.03063 31.9697 5.96096 31.9697 7.10459C31.9697 8.24808 31.0394 9.17848 29.8958 9.17848C28.7522 9.17848 27.8218 8.24815 27.8218 7.10459ZM22.8514 18.3185C23.1513 18.3185 23.3945 18.0754 23.3945 17.7754C23.3945 17.4754 23.1513 17.2324 22.8514 17.2324H22.6035C22.423 17.2324 22.2415 17.2443 22.064 17.2679C21.9224 17.2882 21.7945 17.3636 21.7081 17.4777C21.6217 17.5918 21.5839 17.7354 21.6027 17.8772C21.6216 18.0191 21.6957 18.1477 21.8089 18.2353C21.9221 18.3228 22.0653 18.3621 22.2073 18.3447C22.3387 18.3273 22.4711 18.3186 22.6036 18.3186L22.8514 18.3185ZM21.0561 33.5255H21.0536L20.3363 33.5287C20.1923 33.5291 20.0543 33.5866 19.9527 33.6887C19.8511 33.7907 19.7941 33.929 19.7945 34.073C19.7948 34.217 19.8523 34.355 19.9544 34.4567C20.0564 34.5583 20.1947 34.6152 20.3387 34.6149H20.3413L21.0585 34.6116C21.2025 34.6109 21.3404 34.5531 21.4417 34.4508C21.5431 34.3485 21.5997 34.2101 21.5991 34.0661C21.5985 33.9225 21.541 33.785 21.4392 33.6837C21.3375 33.5824 21.1997 33.5255 21.0561 33.5255ZM23.4958 25.3527C23.5672 25.3527 23.6378 25.3387 23.7037 25.3114C23.7696 25.2841 23.8294 25.2441 23.8799 25.1937C23.9303 25.1432 23.9703 25.0834 23.9976 25.0175C24.0249 24.9516 24.0389 24.881 24.0389 24.8096C24.0389 24.7383 24.0249 24.6677 23.9976 24.6018C23.9703 24.5359 23.9303 24.476 23.8799 24.4256C23.8294 24.3752 23.7696 24.3352 23.7037 24.3079C23.6378 24.2806 23.5672 24.2666 23.4958 24.2666H22.7786C22.7073 24.2666 22.6367 24.2806 22.5708 24.3079C22.5049 24.3352 22.445 24.3752 22.3946 24.4256C22.3441 24.476 22.3041 24.5359 22.2769 24.6018C22.2496 24.6677 22.2355 24.7383 22.2355 24.8096C22.2355 24.881 22.2496 24.9516 22.2769 25.0175C22.3041 25.0834 22.3441 25.1432 22.3946 25.1937C22.445 25.2441 22.5049 25.2841 22.5708 25.3114C22.6367 25.3387 22.7073 25.3527 22.7786 25.3527H23.4958ZM19.4279 19.6843C19.5201 19.7507 19.6308 19.7864 19.7443 19.7863C19.8306 19.7864 19.9157 19.7659 19.9924 19.7266C20.0692 19.6872 20.1355 19.6301 20.1858 19.56C20.304 19.3955 20.4385 19.2435 20.5873 19.1061C20.692 19.0081 20.7536 18.8728 20.7589 18.7295C20.7641 18.5863 20.7126 18.4468 20.6154 18.3414C20.5182 18.2361 20.3833 18.1734 20.2401 18.1671C20.0969 18.1608 19.957 18.2114 19.8509 18.3078C19.648 18.4949 19.4647 18.7022 19.3036 18.9264C19.2196 19.0434 19.1855 19.1889 19.2088 19.3311C19.2321 19.4732 19.3109 19.6003 19.4279 19.6843ZM23.9251 33.5123H23.9226L23.2054 33.5156C23.1341 33.5157 23.0635 33.5299 22.9977 33.5574C22.9319 33.5848 22.8721 33.6249 22.8218 33.6755C22.7715 33.726 22.7316 33.786 22.7044 33.8519C22.6773 33.9179 22.6634 33.9885 22.6636 34.0598C22.6637 34.1312 22.6779 34.2017 22.7054 34.2676C22.7328 34.3334 22.7729 34.3932 22.8235 34.4435C22.874 34.4938 22.934 34.5337 22.9999 34.5608C23.0659 34.588 23.1365 34.6019 23.2078 34.6017H23.2103L23.9275 34.5985C24.07 34.5958 24.2058 34.5373 24.3055 34.4355C24.4053 34.3337 24.461 34.1967 24.4607 34.0542C24.4604 33.9117 24.404 33.775 24.3038 33.6736C24.2037 33.5722 24.0676 33.5143 23.9251 33.5123ZM18.187 33.5384H18.1845L17.4672 33.5417C17.3247 33.5443 17.189 33.6028 17.0892 33.7047C16.9895 33.8065 16.9338 33.9434 16.9341 34.0859C16.9344 34.2285 16.9907 34.3652 17.0909 34.4665C17.1911 34.5679 17.3271 34.6258 17.4696 34.6278H17.4722L18.1894 34.6246C18.3334 34.6239 18.4713 34.566 18.5726 34.4637C18.674 34.3614 18.7306 34.2231 18.73 34.079C18.7294 33.9354 18.6719 33.7979 18.5701 33.6966C18.4684 33.5953 18.3306 33.5384 18.187 33.5384ZM20.7292 24.8125C20.847 24.8126 20.9616 24.7745 21.0558 24.7037C21.15 24.633 21.2186 24.5336 21.2514 24.4205C21.2841 24.3073 21.2792 24.1866 21.2374 24.0765C21.1955 23.9664 21.1191 23.8729 21.0194 23.81C20.8483 23.7019 20.6885 23.5768 20.5426 23.4366C20.4912 23.3871 20.4305 23.3483 20.3641 23.3223C20.2977 23.2963 20.2269 23.2836 20.1556 23.285C20.0843 23.2864 20.0139 23.3018 19.9486 23.3304C19.8833 23.3589 19.8242 23.4001 19.7748 23.4515C19.7253 23.5029 19.6865 23.5635 19.6605 23.6299C19.6345 23.6963 19.6218 23.7672 19.6232 23.8385C19.6246 23.9098 19.64 23.9801 19.6685 24.0454C19.6971 24.1108 19.7383 24.1698 19.7897 24.2193C19.9887 24.4106 20.2066 24.5813 20.4401 24.7286C20.5265 24.7835 20.6268 24.8126 20.7292 24.8125ZM19.6844 21.865C19.6478 21.6764 19.6294 21.4847 19.6294 21.2926L19.6296 21.2624C19.6304 21.1911 19.6172 21.1204 19.5907 21.0541C19.5642 20.9879 19.5249 20.9276 19.475 20.8766C19.4252 20.8256 19.3658 20.7849 19.3002 20.7569C19.2347 20.7288 19.1642 20.714 19.0929 20.7132L19.0865 20.7131C18.9435 20.7131 18.8064 20.7695 18.7047 20.87C18.6031 20.9704 18.5452 21.1069 18.5435 21.2499L18.5433 21.2927C18.5433 21.5549 18.5686 21.8174 18.6183 22.0728C18.632 22.1428 18.6593 22.2095 18.6987 22.2689C18.7381 22.3284 18.7888 22.3795 18.8479 22.4193C18.9071 22.4592 18.9735 22.487 19.0434 22.5012C19.1133 22.5153 19.1853 22.5156 19.2553 22.502C19.3253 22.4883 19.3919 22.461 19.4514 22.4216C19.5108 22.3822 19.5619 22.3315 19.6018 22.2724C19.6416 22.2132 19.6694 22.1468 19.6836 22.0769C19.6978 22.007 19.6981 21.935 19.6844 21.865ZM26.3649 25.3527C26.4363 25.3527 26.5069 25.3387 26.5728 25.3114C26.6387 25.2841 26.6985 25.2441 26.749 25.1937C26.7994 25.1432 26.8394 25.0834 26.8667 25.0175C26.894 24.9516 26.908 24.881 26.908 24.8096C26.908 24.7383 26.894 24.6677 26.8667 24.6018C26.8394 24.5359 26.7994 24.476 26.749 24.4256C26.6985 24.3752 26.6387 24.3352 26.5728 24.3079C26.5069 24.2806 26.4363 24.2666 26.3649 24.2666H25.6477C25.5764 24.2666 25.5058 24.2806 25.4399 24.3079C25.374 24.3352 25.3141 24.3752 25.2637 24.4256C25.2132 24.476 25.1732 24.5359 25.146 24.6018C25.1187 24.6677 25.1046 24.7383 25.1046 24.8096C25.1046 24.881 25.1187 24.9516 25.146 25.0175C25.1732 25.0834 25.2132 25.1432 25.2637 25.1937C25.3141 25.2441 25.374 25.2841 25.4399 25.3114C25.5058 25.3387 25.5764 25.3527 25.6477 25.3527H26.3649ZM34.747 26.3415C34.8598 26.3416 34.9699 26.3065 35.0619 26.2411C35.1538 26.1757 35.2232 26.0833 35.2602 25.9767C35.2973 25.8701 35.3002 25.7547 35.2686 25.6463C35.237 25.538 35.1724 25.4422 35.0839 25.3722C34.8741 25.2067 34.6519 25.0577 34.419 24.9265C34.3569 24.8915 34.2885 24.8691 34.2177 24.8605C34.1469 24.852 34.0751 24.8574 34.0064 24.8766C33.9377 24.8958 33.8735 24.9283 33.8174 24.9723C33.7613 25.0163 33.7144 25.071 33.6794 25.1331C33.6444 25.1952 33.6219 25.2637 33.6134 25.3345C33.6048 25.4053 33.6103 25.4771 33.6295 25.5457C33.6487 25.6144 33.6812 25.6787 33.7252 25.7348C33.7692 25.7909 33.8239 25.8378 33.886 25.8728C34.0698 25.9764 34.2452 26.0941 34.4109 26.2247C34.5065 26.3005 34.625 26.3417 34.747 26.3415ZM32.4558 33.4378C32.278 33.4624 32.0958 33.4754 31.9142 33.4761L31.8126 33.4766C31.6707 33.4802 31.5359 33.5391 31.4369 33.6409C31.338 33.7426 31.2828 33.879 31.2831 34.0209C31.2834 34.1628 31.3393 34.299 31.4387 34.4002C31.5381 34.5015 31.6732 34.5598 31.8151 34.5627H31.8178L31.9192 34.5622C32.1484 34.5612 32.3774 34.545 32.6045 34.5138C32.7471 34.494 32.8761 34.4184 32.963 34.3036C33.05 34.1888 33.0878 34.0441 33.0681 33.9015C33.0269 33.6044 32.7523 33.3965 32.4558 33.4378ZM34.697 32.3557C34.5441 32.5013 34.3802 32.6348 34.2067 32.7552C34.0884 32.8373 34.0075 32.963 33.9818 33.1047C33.9561 33.2464 33.9878 33.3926 34.0698 33.511C34.1198 33.5832 34.1866 33.6422 34.2644 33.6829C34.3422 33.7236 34.4288 33.7448 34.5166 33.7447C34.627 33.7447 34.7349 33.7109 34.8255 33.6479C35.0451 33.4955 35.2526 33.3264 35.4461 33.1421C35.4978 33.0929 35.5392 33.0341 35.5681 32.9689C35.5969 32.9037 35.6127 32.8334 35.6144 32.7621C35.6161 32.6908 35.6038 32.6199 35.5781 32.5534C35.5524 32.4868 35.5138 32.426 35.4647 32.3744C35.4155 32.3227 35.3566 32.2813 35.2914 32.2524C35.2263 32.2235 35.156 32.2077 35.0847 32.2059C35.0134 32.2042 34.9425 32.2165 34.876 32.2422C34.8094 32.2679 34.7486 32.3065 34.697 32.3557ZM36.5216 29.7369C36.3801 29.7103 36.2338 29.7409 36.1149 29.8221C35.996 29.9034 35.9142 30.0285 35.8875 30.17C35.8484 30.3771 35.7933 30.581 35.7226 30.7796C35.6986 30.8468 35.6882 30.918 35.6917 30.9892C35.6953 31.0604 35.7129 31.1303 35.7434 31.1947C35.8052 31.3248 35.9161 31.4251 36.0517 31.4735C36.1874 31.5219 36.3367 31.5144 36.4669 31.4526C36.5313 31.4221 36.5891 31.3791 36.6369 31.3262C36.6847 31.2733 36.7217 31.2115 36.7456 31.1443C36.8354 30.8924 36.9053 30.6338 36.9549 30.371C36.9815 30.2294 36.9508 30.0831 36.8695 29.9642C36.7883 29.8453 36.6632 29.7635 36.5216 29.7369ZM35.8414 26.9776C35.7109 27.0386 35.6099 27.1488 35.5607 27.2842C35.5114 27.4195 35.518 27.5689 35.5789 27.6994C35.668 27.8905 35.742 28.0882 35.8003 28.2908C35.8328 28.4041 35.9013 28.5037 35.9954 28.5747C36.0895 28.6456 36.2041 28.6841 36.3219 28.6842C36.4061 28.6843 36.4891 28.6647 36.5644 28.6272C36.6397 28.5897 36.7053 28.5352 36.7559 28.468C36.8065 28.4008 36.8409 28.3227 36.8562 28.24C36.8715 28.1572 36.8674 28.0721 36.8442 27.9912C36.7702 27.7339 36.6762 27.4828 36.5631 27.2401C36.5022 27.1096 36.3919 27.0086 36.2566 26.9594C36.1212 26.9102 35.9719 26.9167 35.8414 26.9776ZM29.234 25.3527C29.3054 25.3527 29.376 25.3387 29.4419 25.3114C29.5078 25.2841 29.5676 25.2441 29.6181 25.1937C29.6685 25.1432 29.7085 25.0834 29.7358 25.0175C29.7631 24.9516 29.7771 24.881 29.7771 24.8096C29.7771 24.7383 29.7631 24.6677 29.7358 24.6018C29.7085 24.5359 29.6685 24.476 29.6181 24.4256C29.5676 24.3752 29.5078 24.3352 29.4419 24.3079C29.376 24.2806 29.3054 24.2666 29.234 24.2666H28.5168C28.4455 24.2666 28.3749 24.2806 28.309 24.3079C28.2431 24.3352 28.1832 24.3752 28.1328 24.4256C28.0823 24.476 28.0423 24.5359 28.015 24.6018C27.9878 24.6677 27.9737 24.7383 27.9737 24.8096C27.9737 24.881 27.9878 24.9516 28.015 25.0175C28.0423 25.0834 28.0823 25.1432 28.1328 25.1937C28.1832 25.2441 28.2431 25.2841 28.309 25.3114C28.3749 25.3387 28.4455 25.3527 28.5168 25.3527H29.234ZM26.7942 33.4993H26.7917L26.0745 33.5026C25.9304 33.5029 25.7924 33.5604 25.6908 33.6625C25.5892 33.7645 25.5323 33.9028 25.5326 34.0468C25.5329 34.1909 25.5904 34.3289 25.6925 34.4305C25.7946 34.5321 25.9328 34.589 26.0768 34.5887H26.0794L26.7966 34.5854C26.9406 34.5847 27.0785 34.5269 27.1799 34.4246C27.2812 34.3223 27.3378 34.1839 27.3372 34.0399C27.3366 33.8963 27.2791 33.7588 27.1773 33.6575C27.0756 33.5562 26.9378 33.4993 26.7942 33.4993ZM31.8958 25.3527C31.9572 25.3527 32.0183 25.3541 32.079 25.3568C32.2228 25.3631 32.3633 25.3121 32.4696 25.2149C32.5758 25.1177 32.6391 24.9822 32.6455 24.8384C32.6486 24.7671 32.6378 24.6959 32.6134 24.6289C32.5891 24.5619 32.5518 24.5003 32.5036 24.4477C32.4555 24.3951 32.3975 24.3525 32.3328 24.3223C32.2682 24.2921 32.1983 24.275 32.1271 24.2719C32.0501 24.2684 31.973 24.2667 31.8959 24.2667H31.3859C31.3146 24.2667 31.2439 24.2808 31.1781 24.308C31.1122 24.3353 31.0523 24.3753 31.0019 24.4258C30.9514 24.4762 30.9114 24.5361 30.8841 24.602C30.8569 24.6678 30.8428 24.7385 30.8428 24.8098C30.8428 24.8811 30.8569 24.9517 30.8841 25.0176C30.9114 25.0835 30.9514 25.1434 31.0019 25.1938C31.0523 25.2442 31.1122 25.2842 31.1781 25.3115C31.2439 25.3388 31.3146 25.3529 31.3859 25.3528L31.8958 25.3527ZM29.6633 33.4864H29.6608L28.9435 33.4896C28.801 33.4922 28.6652 33.5508 28.5655 33.6526C28.4657 33.7544 28.41 33.8913 28.4103 34.0339C28.4106 34.1764 28.467 34.3131 28.5671 34.4144C28.6673 34.5158 28.8033 34.5738 28.9459 34.5757H28.9484L29.6656 34.5725C29.8081 34.5699 29.9439 34.5114 30.0436 34.4096C30.1434 34.3077 30.1991 34.1708 30.1988 34.0283C30.1985 33.8858 30.1422 33.7491 30.042 33.6477C29.9418 33.5463 29.8058 33.4884 29.6633 33.4864Z" fill="#F1F1F1"/>
<circle cx="29.9405" cy="7.07671" r="3.8106" fill="#010F14"/>
</svg>
