<svg width="37" height="37" viewBox="0 0 37 37" fill="none" xmlns="http://www.w3.org/2000/svg">
<g clip-path="url(#clip0_15_132)">
<path d="M35.8184 20.249C35.7938 20.1765 35.7575 20.1033 35.7336 20.0239C35.8275 19.169 35.74 18.304 35.4769 17.4852C35.2138 16.6665 34.7809 15.9124 34.2066 15.2723C33.6323 14.6321 32.9295 14.1203 32.144 13.7702C31.3584 13.4201 30.5079 13.2397 29.6479 13.2406C28.7387 13.239 27.8409 13.4429 27.0217 13.8372C24.7616 13.5026 22.0513 13.2652 20.0587 13.1735C20.0382 13.1745 20.0177 13.1724 19.9978 13.1673C19.5028 13.1451 19.0073 13.133 18.5117 13.1311H18.487C18.0731 13.1311 17.5674 13.1434 17.0008 13.1673C16.981 13.1724 16.9604 13.1745 16.9399 13.1735C14.9481 13.2652 12.2494 13.5026 9.9955 13.8318C9.06246 13.3891 8.03261 13.1897 7.00176 13.2519C5.97091 13.3141 4.97255 13.6361 4.09954 14.1878C3.22652 14.7395 2.50722 15.503 2.00854 16.4074C1.50986 17.3117 1.248 18.3275 1.24732 19.3602C1.24732 19.5699 1.25942 19.7794 1.28355 19.9877C1.25348 20.0786 1.21032 20.1642 1.18025 20.249C0.385525 22.8937 0.485733 28.638 0.863442 30.9589C0.958845 31.7662 1.28559 32.5286 1.80433 33.1544C2.32307 33.7803 3.01168 34.2428 3.78721 34.4863C4.5858 34.6142 5.5054 33.9166 6.16678 33.2229C6.3009 33.0826 6.42886 32.9361 6.55219 32.7966L7.27138 31.8338L7.34846 31.7305C7.8418 31.6026 8.48159 31.4438 9.28557 31.2858C12.3224 30.7073 15.4087 30.4284 18.5001 30.4533C22.2558 30.3932 26.0033 30.8213 29.6487 31.7267L30.4704 32.8166C30.5868 32.9508 30.7016 33.0849 30.8304 33.219C31.494 33.9128 32.4198 34.6142 33.2122 34.4863C33.9883 34.2437 34.6775 33.7815 35.1964 33.1555C35.7153 32.5295 36.0416 31.7665 36.136 30.9589C36.5191 28.638 36.6147 22.8937 35.8184 20.249Z" fill="#FAC543"/>
<path d="M35.8183 20.249C35.7936 20.1765 35.7574 20.1033 35.7335 20.0239C35.8273 19.169 35.7399 18.304 35.4767 17.4852C35.2136 16.6665 34.7808 15.9124 34.2065 15.2723C33.6322 14.6321 32.9293 14.1203 32.1438 13.7702C31.3583 13.4201 30.5077 13.2397 29.6477 13.2406C28.7386 13.239 27.8408 13.4429 27.0215 13.8372C24.7614 13.5026 22.0512 13.2652 20.0586 13.1735C20.0381 13.1745 20.0176 13.1724 19.9977 13.1673C19.5026 13.1451 19.0071 13.133 18.5115 13.1311H18.4868C18.0729 13.1311 17.5672 13.1434 17.0007 13.1673C16.9808 13.1724 16.9603 13.1745 16.9398 13.1735C14.9479 13.2652 12.2493 13.5026 9.99534 13.8318C8.84057 13.2835 7.54308 13.1105 6.28501 13.3373C5.02694 13.564 3.87145 14.179 2.98075 15.096C2.84715 15.599 2.7785 16.1171 2.77648 16.6376C2.77649 16.8473 2.78858 17.0568 2.81271 17.2651C2.78265 17.356 2.73948 17.4416 2.70942 17.5264C1.91778 20.1704 2.01567 25.9154 2.39261 28.2364C2.48735 29.0447 2.81406 29.8083 3.33329 30.4351C3.85252 31.0618 4.54207 31.5249 5.31869 31.7683C6.11728 31.8963 7.14942 31.0599 7.74836 30.3091C12.647 24.1617 15.6995 23.0941 19.0557 23.1728C25.9932 23.3362 32.237 30.3669 32.3611 30.5011C33.0248 31.1948 34.0168 31.9772 34.8162 31.9125C35.0893 31.8877 35.3518 31.7944 35.5792 31.6412C35.8067 31.488 35.9918 31.2798 36.1173 31.036C36.122 31.0083 36.132 30.9859 36.1366 30.9589C36.5189 28.638 36.6145 22.8937 35.8183 20.249Z" fill="#FAD36B"/>
<path d="M7.37219 23.6716C9.75196 23.6716 11.6811 21.7424 11.6811 19.3627C11.6811 16.9829 9.75196 15.0537 7.37219 15.0537C4.99242 15.0537 3.06323 16.9829 3.06323 19.3627C3.06323 21.7424 4.99242 23.6716 7.37219 23.6716Z" fill="#1FC091"/>
<path d="M29.6464 23.6716C32.0261 23.6716 33.9553 21.7424 33.9553 19.3627C33.9553 16.9829 32.0261 15.0537 29.6464 15.0537C27.2666 15.0537 25.3374 16.9829 25.3374 19.3627C25.3374 21.7424 27.2666 23.6716 29.6464 23.6716Z" fill="#1FC091"/>
<path d="M29.6479 31.7267C26.0028 30.8214 22.2555 30.3933 18.5001 30.4533C15.4099 30.4274 12.3246 30.7049 9.28867 31.2819C8.63816 31.4084 7.99209 31.5568 7.35156 31.7267L7.37546 31.6897C7.85723 30.9281 12.8484 24.0022 18.4994 24.0022C24.1503 24.0022 29.1476 30.9281 29.6233 31.6897C29.6305 31.7027 29.6387 31.7151 29.6479 31.7267Z" fill="#EB7729"/>
<path d="M15.7089 10.3123C15.6521 10.3652 15.6065 10.429 15.575 10.4999C15.5434 10.5708 15.5264 10.6474 15.525 10.725C15.5236 10.8026 15.5379 10.8798 15.567 10.9517C15.5961 11.0237 15.6393 11.0891 15.6942 11.144C15.7491 11.1989 15.8145 11.2422 15.8865 11.2713C15.9585 11.3003 16.0356 11.3146 16.1132 11.3133C16.1909 11.3119 16.2674 11.2949 16.3383 11.2633C16.4092 11.2317 16.4731 11.1861 16.526 11.1293C17.0502 10.6074 17.7599 10.3143 18.4997 10.3143C19.2395 10.3143 19.9492 10.6074 20.4734 11.1293C20.5264 11.1861 20.5902 11.2317 20.6611 11.2633C20.732 11.2949 20.8086 11.3119 20.8862 11.3133C20.9638 11.3146 21.0409 11.3003 21.1129 11.2713C21.1849 11.2422 21.2503 11.1989 21.3052 11.144C21.3601 11.0891 21.4034 11.0237 21.4324 10.9517C21.4615 10.8798 21.4758 10.8026 21.4744 10.725C21.4731 10.6474 21.4561 10.5708 21.4245 10.4999C21.3929 10.429 21.3473 10.3652 21.2905 10.3123C20.5497 9.57338 19.546 9.15845 18.4997 9.15845C17.4534 9.15845 16.4498 9.57338 15.7089 10.3123Z" fill="#EB7729"/>
<path d="M23.3562 8.82379C23.4705 8.82369 23.5822 8.78973 23.6771 8.7262C23.7721 8.66267 23.8461 8.57242 23.8899 8.46684C23.9336 8.36126 23.945 8.2451 23.9227 8.13302C23.9005 8.02095 23.8455 7.91798 23.7648 7.83713C23.0733 7.14548 22.2523 6.59683 21.3488 6.22251C20.4452 5.84818 19.4768 5.65552 18.4988 5.65552C17.5208 5.65552 16.5524 5.84818 15.6488 6.22251C14.7453 6.59683 13.9243 7.14548 13.2329 7.83713C13.1244 7.94558 13.0635 8.09268 13.0635 8.24606C13.0635 8.39943 13.1244 8.54653 13.2329 8.65498C13.3413 8.76344 13.4884 8.82437 13.6418 8.82437C13.7952 8.82437 13.9423 8.76344 14.0507 8.65498C14.6348 8.07067 15.3283 7.60715 16.0916 7.29091C16.8549 6.97467 17.673 6.81191 18.4992 6.81191C19.3254 6.81191 20.1435 6.97467 20.9068 7.29091C21.6701 7.60715 22.3636 8.07067 22.9477 8.65498C23.0013 8.70868 23.065 8.75124 23.1351 8.78021C23.2052 8.80919 23.2803 8.824 23.3562 8.82379Z" fill="#1FC091"/>
<path d="M11.0007 6.18207C11.154 6.18194 11.3009 6.12094 11.4093 6.01249C12.3404 5.08094 13.446 4.34198 14.6628 3.83781C15.8796 3.33364 17.1838 3.07414 18.5009 3.07414C19.818 3.07414 21.1223 3.33364 22.3391 3.83781C23.5559 4.34198 24.6614 5.08094 25.5926 6.01249C25.6456 6.06924 25.7094 6.11473 25.7804 6.14626C25.8513 6.17779 25.9279 6.19471 26.0055 6.19601C26.0831 6.1973 26.1602 6.18295 26.2322 6.15381C26.3042 6.12466 26.3695 6.08132 26.4244 6.02637C26.4792 5.97143 26.5224 5.90599 26.5514 5.83398C26.5804 5.76196 26.5946 5.68485 26.5932 5.60722C26.5918 5.5296 26.5747 5.45306 26.543 5.38218C26.5114 5.31129 26.4657 5.24751 26.4089 5.19463C25.3703 4.15597 24.1374 3.33204 22.7804 2.76991C21.4234 2.20778 19.969 1.91846 18.5001 1.91846C17.0313 1.91846 15.5769 2.20778 14.2199 2.76991C12.8629 3.33204 11.6299 4.15597 10.5914 5.19463C10.5107 5.27563 10.4558 5.37871 10.4336 5.49087C10.4115 5.60302 10.423 5.71924 10.4668 5.82485C10.5105 5.93046 10.5846 6.02075 10.6796 6.08432C10.7747 6.1479 10.8864 6.18191 11.0007 6.18207ZM30.0981 32.0551C30.1657 31.957 30.203 31.8412 30.2054 31.7221C30.2077 31.603 30.175 31.4859 30.1112 31.3852C30.0627 31.3051 24.7439 23.4241 18.5001 23.4241C12.2564 23.4241 6.93765 31.3051 6.87059 31.4122C6.8132 31.4993 6.78049 31.6004 6.77594 31.7046C6.77139 31.8088 6.79516 31.9124 6.84474 32.0042C6.89431 32.0959 6.96783 32.1726 7.05749 32.2259C7.14714 32.2793 7.24957 32.3074 7.3539 32.3072C7.40594 32.3073 7.45778 32.3005 7.50806 32.2871C8.08234 32.1329 8.71981 31.9834 9.40123 31.847C12.4007 31.2816 15.4479 31.0082 18.5001 31.0307C22.2042 30.9708 25.9003 31.3932 29.4953 32.2871C29.6075 32.3148 29.7254 32.3074 29.8332 32.2659C29.941 32.2244 30.0335 32.1508 30.0981 32.0551ZM18.5001 29.8744C15.3713 29.8518 12.2476 30.1329 9.17306 30.7138C9.03693 30.7406 8.901 30.7683 8.76529 30.7971C10.4434 28.6973 14.2752 24.5803 18.5009 24.5803C22.7128 24.5803 26.5338 28.6704 28.2335 30.7963C25.0294 30.1549 21.7677 29.846 18.5001 29.8744ZM15.6982 20.8896C15.6982 20.6976 15.6413 20.51 15.5346 20.3504C15.428 20.1908 15.2764 20.0664 15.0991 19.993C14.9217 19.9195 14.7266 19.9003 14.5384 19.9377C14.3501 19.9752 14.1772 20.0676 14.0415 20.2033C13.9057 20.3391 13.8133 20.512 13.7759 20.7002C13.7384 20.8885 13.7576 21.0836 13.8311 21.261C13.9045 21.4383 14.0289 21.5899 14.1885 21.6965C14.3481 21.8031 14.5357 21.8601 14.7277 21.8601C14.9851 21.8601 15.2319 21.7578 15.4139 21.5758C15.5959 21.3938 15.6982 21.147 15.6982 20.8896Z" fill="#FAD36B"/>
<path d="M18.3528 21.8855C18.8888 21.8855 19.3233 21.451 19.3233 20.9151C19.3233 20.3791 18.8888 19.9446 18.3528 19.9446C17.8168 19.9446 17.3823 20.3791 17.3823 20.9151C17.3823 21.451 17.8168 21.8855 18.3528 21.8855Z" fill="black"/>
<path d="M21.978 21.8616C22.514 21.8616 22.9485 21.4271 22.9485 20.8911C22.9485 20.3552 22.514 19.9207 21.978 19.9207C21.4421 19.9207 21.0076 20.3552 21.0076 20.8911C21.0076 21.4271 21.4421 21.8616 21.978 21.8616Z" fill="black"/>
<path d="M36.3711 20.0826C36.3587 20.0425 36.3433 20.0055 36.3202 19.9423C36.3379 19.7511 36.3464 19.5569 36.3464 19.3626C36.3448 17.5863 35.6384 15.8831 34.3824 14.627C33.1265 13.3709 31.4234 12.6644 29.6471 12.6625C28.7127 12.6623 27.7888 12.8596 26.9361 13.2414C24.6759 12.9245 22.4024 12.7113 20.1227 12.6024L20.024 12.5955C19.5125 12.5705 19.0006 12.5574 18.4885 12.5562C18.0661 12.5562 17.5519 12.5685 16.9129 12.5993C14.7546 12.6964 12.1538 12.94 10.0779 13.2391C9.2264 12.8587 8.30418 12.6622 7.37153 12.6625C5.59506 12.6642 3.89182 13.3706 2.63566 14.6267C1.3795 15.8829 0.673081 17.5861 0.671448 19.3626C0.671448 19.5445 0.679156 19.7264 0.693031 19.9022C0.669135 19.9608 0.646781 20.0209 0.62751 20.0841C-0.231198 22.9339 -0.0770313 28.8061 0.29374 31.0554C0.404794 31.9837 0.787207 32.8586 1.39311 33.5706C1.99901 34.2827 2.80147 34.8002 3.70005 35.0583C4.78307 35.2395 5.87072 34.3707 6.59299 33.6153C6.73328 33.4681 6.86818 33.3162 6.99459 33.1659C7.09354 33.049 7.14198 32.8975 7.12926 32.7449C7.11654 32.5922 7.0437 32.4509 6.92676 32.3519C6.80982 32.253 6.65837 32.2045 6.50571 32.2173C6.35306 32.23 6.21171 32.3028 6.11276 32.4198C5.99945 32.5523 5.88151 32.688 5.75664 32.8175C5.02666 33.5775 4.32289 33.9861 3.87966 33.9167C3.2261 33.6906 2.64978 33.2843 2.21716 32.7448C1.78454 32.2052 1.51325 31.5544 1.43457 30.8673C1.03991 28.4623 0.990573 22.8915 1.73366 20.421C1.74522 20.3863 1.75832 20.3531 1.7722 20.32C1.79147 20.2722 1.81151 20.2236 1.8277 20.1751C1.85482 20.0959 1.86454 20.0117 1.85622 19.9284C1.83739 19.7401 1.82788 19.551 1.8277 19.3618C1.82933 17.892 2.41394 16.4829 3.45325 15.4436C4.49257 14.4042 5.90172 13.8196 7.37153 13.818C8.19285 13.8178 9.00372 14.0022 9.74416 14.3576C9.84801 14.4051 9.96321 14.4222 10.0764 14.4069C12.143 14.1024 14.7831 13.8519 17.0301 13.7494C17.5231 13.7257 18.0165 13.7131 18.5101 13.7116C18.9202 13.7116 19.4158 13.724 19.9554 13.7486L20.0325 13.7533C22.2309 13.8527 24.8764 14.104 26.9376 14.4092C27.0511 14.4258 27.167 14.4083 27.2706 14.3591C28.0123 14.0036 28.8245 13.8191 29.6471 13.8195C30.4261 13.8179 31.1967 13.9808 31.9084 14.2977C32.6201 14.6145 33.2568 15.0781 33.7769 15.6581C34.297 16.2381 34.6887 16.9214 34.9264 17.6633C35.1641 18.4051 35.2424 19.1888 35.1562 19.9631C35.1473 20.0475 35.1573 20.1328 35.1855 20.2128C35.2002 20.2568 35.2171 20.3007 35.2356 20.3447L35.2649 20.4217C36.0088 22.8969 35.9587 28.4669 35.5663 30.8704C35.4868 31.5568 35.2152 32.2069 34.7826 32.7458C34.3501 33.2847 33.7742 33.6906 33.1212 33.9167C32.7516 33.8669 32.3956 33.744 32.0739 33.5553C31.7522 33.3666 31.4712 33.1158 31.2473 32.8175C31.1311 32.6962 31.019 32.571 30.9112 32.4421C30.8104 32.3304 30.6701 32.2624 30.52 32.2523C30.3699 32.2423 30.2218 32.2911 30.107 32.3884C29.9923 32.4857 29.92 32.6239 29.9053 32.7736C29.8907 32.9234 29.9349 33.0729 30.0286 33.1906C30.1497 33.3324 30.2776 33.4766 30.4141 33.6161C31.0644 34.4185 31.9966 34.9424 33.0202 35.0807C33.1161 35.0811 33.2117 35.0733 33.3062 35.0575C34.2043 34.7986 35.0061 34.2807 35.6115 33.5686C36.2169 32.8566 36.5991 31.9819 36.7102 31.0538C37.0771 28.8076 37.2313 22.9362 36.3711 20.0826Z" fill="black"/>
<path d="M12.2563 19.3626C12.2562 18.396 11.9694 17.4511 11.4322 16.6475C10.895 15.8439 10.1315 15.2176 9.2384 14.8479C8.34525 14.4782 7.36253 14.3816 6.41452 14.5705C5.4665 14.7593 4.59579 15.2251 3.91248 15.9088C3.22918 16.5925 2.76399 17.4636 2.57575 18.4117C2.3875 19.3598 2.48466 20.3425 2.85492 21.2354C3.22519 22.1283 3.85194 22.8914 4.65591 23.428C5.45987 23.9647 6.40494 24.2509 7.37158 24.2505C8.66694 24.2482 9.90857 23.7325 10.8242 22.8162C11.7399 21.8999 12.2549 20.658 12.2563 19.3626ZM3.63843 19.3626C3.63858 18.6249 3.85746 17.9037 4.2674 17.2903C4.67734 16.677 5.25994 16.1989 5.94154 15.9166C6.62313 15.6342 7.37314 15.5603 8.09673 15.7042C8.82033 15.848 9.48503 16.2032 10.0068 16.7248C10.5286 17.2463 10.884 17.9109 11.0282 18.6344C11.1723 19.358 11.0987 20.108 10.8167 20.7897C10.5346 21.4714 10.0568 22.0542 9.4436 22.4644C8.83039 22.8746 8.10933 23.0938 7.37158 23.0942C6.38247 23.0928 5.43431 22.6992 4.73506 21.9996C4.0358 21.3001 3.64253 20.3517 3.64151 19.3626H3.63843Z" fill="black"/>
<path d="M7.35388 18.6942C7.5072 18.6942 7.65425 18.6332 7.76267 18.5248C7.87109 18.4164 7.932 18.2694 7.932 18.116V17.2219C7.932 17.0685 7.87109 16.9215 7.76267 16.8131C7.65425 16.7046 7.5072 16.6437 7.35388 16.6437C7.20055 16.6437 7.0535 16.7046 6.94508 16.8131C6.83666 16.9215 6.77575 17.0685 6.77575 17.2219V18.1145C6.77555 18.1905 6.79035 18.2659 6.81932 18.3362C6.84828 18.4065 6.89083 18.4704 6.94453 18.5243C6.99824 18.5781 7.06204 18.6208 7.13228 18.65C7.20252 18.6791 7.27783 18.6942 7.35388 18.6942ZM7.932 21.5462V20.6528C7.932 20.4995 7.87109 20.3525 7.76267 20.244C7.65425 20.1356 7.5072 20.0747 7.35388 20.0747C7.20055 20.0747 7.0535 20.1356 6.94508 20.244C6.83666 20.3525 6.77575 20.4995 6.77575 20.6528V21.5462C6.77575 21.6996 6.83666 21.8466 6.94508 21.955C7.0535 22.0635 7.20055 22.1244 7.35388 22.1244C7.5072 22.1244 7.65425 22.0635 7.76267 21.955C7.87109 21.8466 7.932 21.6996 7.932 21.5462ZM6.08971 18.8082H5.19092C5.03759 18.8082 4.89054 18.8691 4.78212 18.9776C4.6737 19.086 4.61279 19.233 4.61279 19.3864C4.61279 19.5397 4.6737 19.6867 4.78212 19.7952C4.89054 19.9036 5.03759 19.9645 5.19092 19.9645H6.08971C6.24304 19.9645 6.39009 19.9036 6.49851 19.7952C6.60693 19.6867 6.66783 19.5397 6.66783 19.3864C6.66783 19.233 6.60693 19.086 6.49851 18.9776C6.39009 18.8691 6.24304 18.8082 6.08971 18.8082ZM8.62267 19.9645H9.51606C9.66939 19.9645 9.81644 19.9036 9.92486 19.7952C10.0333 19.6867 10.0942 19.5397 10.0942 19.3864C10.0942 19.233 10.0333 19.086 9.92486 18.9776C9.81644 18.8691 9.66939 18.8082 9.51606 18.8082H8.62267C8.46934 18.8082 8.32229 18.8691 8.21387 18.9776C8.10545 19.086 8.04454 19.233 8.04454 19.3864C8.04454 19.5397 8.10545 19.6867 8.21387 19.7952C8.32229 19.9036 8.46934 19.9645 8.62267 19.9645ZM34.5335 19.3625C34.5335 18.3957 34.2468 17.4507 33.7097 16.6468C33.1725 15.843 32.4091 15.2165 31.5159 14.8466C30.6227 14.4767 29.6399 14.3799 28.6917 14.5686C27.7436 14.7572 26.8726 15.2228 26.1891 15.9065C25.5056 16.5902 25.0401 17.4612 24.8516 18.4094C24.6631 19.3576 24.76 20.3404 25.13 21.2335C25.5001 22.1266 26.1267 22.89 26.9306 23.4269C27.7345 23.9639 28.6796 24.2505 29.6464 24.2503C30.9421 24.2487 32.1844 23.7332 33.1005 22.8169C34.0167 21.9005 34.532 20.6582 34.5335 19.3625ZM25.9148 19.3625C25.9148 18.6244 26.1336 17.903 26.5437 17.2893C26.9537 16.6756 27.5365 16.1973 28.2184 15.9149C28.9002 15.6325 29.6505 15.5586 30.3744 15.7026C31.0982 15.8465 31.7631 16.2019 32.285 16.7238C32.8069 17.2457 33.1623 17.9106 33.3063 18.6345C33.4503 19.3583 33.3764 20.1086 33.0939 20.7905C32.8115 21.4724 32.3332 22.0551 31.7195 22.4652C31.1059 22.8752 30.3844 23.0941 29.6464 23.0941C28.6572 23.0926 27.709 22.699 27.0096 21.9995C26.3102 21.3 25.916 20.3516 25.9148 19.3625Z" fill="black"/>
<path d="M29.6286 18.6943C29.7819 18.6943 29.9289 18.6334 30.0374 18.525C30.1458 18.4166 30.2067 18.2695 30.2067 18.1162V17.222C30.2067 17.0687 30.1458 16.9217 30.0374 16.8132C29.9289 16.7048 29.7819 16.6439 29.6286 16.6439C29.4752 16.6439 29.3282 16.7048 29.2198 16.8132C29.1113 16.9217 29.0504 17.0687 29.0504 17.222V18.1147C29.0502 18.1907 29.065 18.2661 29.094 18.3364C29.123 18.4067 29.1655 18.4706 29.2192 18.5245C29.2729 18.5783 29.3367 18.621 29.407 18.6502C29.4772 18.6793 29.5525 18.6943 29.6286 18.6943ZM30.2067 21.5464V20.653C30.2067 20.4997 30.1458 20.3526 30.0374 20.2442C29.9289 20.1358 29.7819 20.0749 29.6286 20.0749C29.4752 20.0749 29.3282 20.1358 29.2198 20.2442C29.1113 20.3526 29.0504 20.4997 29.0504 20.653V21.5464C29.0504 21.6997 29.1113 21.8468 29.2198 21.9552C29.3282 22.0636 29.4752 22.1245 29.6286 22.1245C29.7819 22.1245 29.9289 22.0636 30.0374 21.9552C30.1458 21.8468 30.2067 21.6997 30.2067 21.5464ZM28.3598 18.8084H27.4664C27.313 18.8084 27.166 18.8693 27.0576 18.9777C26.9492 19.0862 26.8882 19.2332 26.8882 19.3865C26.8882 19.5399 26.9492 19.6869 27.0576 19.7953C27.166 19.9038 27.313 19.9647 27.4664 19.9647H28.3598C28.5131 19.9647 28.6601 19.9038 28.7686 19.7953C28.877 19.6869 28.9379 19.5399 28.9379 19.3865C28.9379 19.2332 28.877 19.0862 28.7686 18.9777C28.6601 18.8693 28.5131 18.8084 28.3598 18.8084ZM30.8966 19.9647H31.7907C31.9441 19.9647 32.0911 19.9038 32.1995 19.7953C32.308 19.6869 32.3689 19.5399 32.3689 19.3865C32.3689 19.2332 32.308 19.0862 32.1995 18.9777C32.0911 18.8693 31.9441 18.8084 31.7907 18.8084H30.8966C30.7433 18.8084 30.5962 18.8693 30.4878 18.9777C30.3794 19.0862 30.3185 19.2332 30.3185 19.3865C30.3185 19.5399 30.3794 19.6869 30.4878 19.7953C30.5962 19.9038 30.7433 19.9647 30.8966 19.9647ZM17.1842 15.2117C17.0573 15.1258 16.9016 15.0938 16.7511 15.1227C16.6006 15.1516 16.4678 15.2391 16.3818 15.3659C16.138 15.7275 15.9983 16.1493 15.9779 16.585C15.9576 17.0207 16.0574 17.4536 16.2665 17.8364C16.4755 18.2193 16.7858 18.5373 17.1633 18.7557C17.5409 18.9741 17.9712 19.0845 18.4073 19.0749C18.8434 19.0653 19.2684 18.9361 19.636 18.7012C20.0036 18.4664 20.2995 18.1351 20.4915 17.7434C20.6835 17.3518 20.7642 16.9149 20.7247 16.4805C20.6852 16.0461 20.5271 15.6309 20.2676 15.2803C20.225 15.2131 20.169 15.1554 20.103 15.1109C20.0371 15.0663 19.9627 15.0359 19.8845 15.0214C19.8063 15.0069 19.7259 15.0087 19.6484 15.0267C19.5709 15.0447 19.498 15.0786 19.4341 15.126C19.3703 15.1735 19.317 15.2337 19.2775 15.3028C19.238 15.3718 19.2131 15.4483 19.2045 15.5274C19.1959 15.6065 19.2038 15.6865 19.2275 15.7624C19.2513 15.8383 19.2904 15.9086 19.3426 15.9687C19.4991 16.1789 19.5832 16.4342 19.5823 16.6963C19.5819 16.8873 19.5368 17.0756 19.4506 17.2461C19.3644 17.4165 19.2395 17.5644 19.0859 17.6779C18.9322 17.7914 18.7542 17.8674 18.5659 17.8997C18.3776 17.932 18.1844 17.9198 18.0017 17.864C17.8191 17.8082 17.652 17.7104 17.5139 17.5785C17.3758 17.4465 17.2705 17.284 17.2064 17.1041C17.1424 16.9241 17.1214 16.7317 17.1451 16.5421C17.1688 16.3526 17.2366 16.1712 17.343 16.0126C17.4282 15.8853 17.4593 15.7295 17.4295 15.5793C17.3997 15.4291 17.3115 15.2969 17.1842 15.2117Z" fill="black"/>
<path d="M18.9333 16.3579V14.8933C18.9333 14.74 18.8724 14.5929 18.764 14.4845C18.6556 14.3761 18.5086 14.3152 18.3552 14.3152C18.2019 14.3152 18.0548 14.3761 17.9464 14.4845C17.838 14.5929 17.7771 14.74 17.7771 14.8933V16.3579C17.7771 16.5112 17.838 16.6583 17.9464 16.7667C18.0548 16.8751 18.2019 16.936 18.3552 16.936C18.5086 16.936 18.6556 16.8751 18.764 16.7667C18.8724 16.6583 18.9333 16.5112 18.9333 16.3579Z" fill="black"/>
</g>
<defs>
<clipPath id="clip0_15_132">
<rect width="37" height="37" fill="white"/>
</clipPath>
</defs>
</svg>
